<?xml version="1.0" encoding="utf-8"?>
<!-- Generator: Adobe Illustrator 22.0.1, SVG Export Plug-In . SVG Version: 6.00 Build 0)  -->
<svg version="1.1" id="Слой_1" xmlns="http://www.w3.org/2000/svg" xmlns:xlink="http://www.w3.org/1999/xlink" x="0px" y="0px"
	 viewBox="0 0 263 60" style="enable-background:new 0 0 263 60;" xml:space="preserve">
<style type="text/css">
	.st0{opacity:0.9;}
	.st1{fill:#04345B;}
	.st2{fill:#04345B;fill-opacity:0.9;}
	.st3{fill:#FFFFFF;}
</style>
<g class="st0">
	<path class="st1" d="M30,0C13.5,0,0,13.5,0,30s13.5,30,30,30s30-13.5,30-30S46.5,0,30,0z M30,55.1C16.2,55.1,4.9,43.8,4.9,30
		s11.3-25,25.1-25s25.1,11.3,25.1,25S43.8,55.1,30,55.1z"/>
	<path class="st1" d="M30,17.5c2.7,0,4.9,2.3,4.9,5h5c0-4.8-3.3-8.5-7.5-9.8v-2.7h-4.9v2.7c-4.2,1.2-7.5,5-7.5,9.8
		c0,5.6,4.5,10.1,10.1,10.1c2.7,0,4.9,2.3,4.9,4.9s-2.3,4.9-4.9,4.9s-4.9-2.3-4.9-4.9h-5c0,4.8,3.3,8.6,7.5,9.8v2.7h5v-2.7
		c4.2-1.1,7.5-4.9,7.5-9.8c0-5.6-4.5-10.1-10.1-10.1c-2.7,0-4.9-2.3-4.9-5S27.3,17.5,30,17.5z"/>
</g>
<title></title>
<desc></desc>
<g id="Page-1">
	<g id="Icons-Device" transform="translate(-44.000000, 0.000000)">
		<g id="access-time" transform="translate(44.000000, 0.000000)">
			<path id="Shape" class="st2" d="M96.3,0c-16.5,0-30,13.5-30,30s13.5,30,30,30s30-13.5,30-30S112.8,0,96.3,0L96.3,0z M96.3,54
				c-13.2,0-24-10.8-24-24s10.8-24,24-24s24,10.8,24,24S109.5,54,96.3,54z M97.8,15h-4.5v18l15.6,9.6l2.4-3.9l-13.5-8.1V15z"/>
		</g>
	</g>
</g>
<path class="st3" d="M165,0c-1.1,0-2,0.8-2.3,1.9l-5.9,19h-19.4c-1.3,0-2.4,1.2-2.4,2.6c0,0.9,0.4,1.6,1,2.1
	c0.4,0.3,15.6,11.9,15.6,11.9s-5.9,18.8-6,19.1c-0.1,0.3-0.1,0.6-0.1,0.9c0,1.4,1.1,2.5,2.4,2.5c0.5,0,1-0.2,1.4-0.5L165,47.7
	c0,0,15.3,11.6,15.6,11.9c0.4,0.3,0.9,0.5,1.4,0.5c1.3,0,2.4-1.1,2.4-2.5c0-0.3-0.1-0.6-0.2-0.9c-0.1-0.3-6-19.1-6-19.1
	s15.3-11.6,15.6-11.9c0.6-0.5,1-1.2,1-2.1c0-1.4-1-2.6-2.4-2.6h-19.4l-5.9-19C167,0.8,166.1,0,165,0z"/>
<path class="st3" d="M215.3,60h-10.9c-0.8,0-1.4-0.5-1.4-1.2V23.3c0-0.7,0.7-1.2,1.4-1.2h10.9c0.8,0,1.4,0.6,1.4,1.2v35.5
	C216.7,59.5,216,60,215.3,60z M205.7,57.6h8.2V24.5h-8.2V57.6z M238.2,57.6L238.2,57.6c-1,0-1.9,0-2.9,0c-3.7-0.1-8.1-0.7-11.2-1.1
	c-1.5-0.2-2.9-0.4-3.7-0.4c-0.7,0-1.2-0.6-1.2-1.2v-29c0-0.5,0.4-1,0.8-1.1l0.7-0.2c3.1-1,9.6-3.2,12.8-6.4
	c3.5-3.3,5.2-7.8,5.2-13.2c0.1-1.7,1.2-4.9,4.9-4.9c0.7,0,1.5,0.1,2.5,0.4c0.1,0,0.4,0.1,0.5,0.2c1.5,1.3,6.4,9.3,1.8,21.4h7.8l0,0
	c0.5,0,4.6,0.1,6.3,4.8c0.3,0.6,1.4,3.2-1.1,6.4c0.7,1.1,1.8,3.4,0.5,5.9c-0.1,0.2-0.7,1.7-1.8,2.7c0.7,2.1,0.5,5.5-2.7,8
	c-0.1,1.5-0.8,4.9-4.1,6.1C253,56,247.2,57.6,238.2,57.6z M222.1,53.8c0.7,0.1,1.6,0.2,2.6,0.4c3.1,0.4,7.4,0.9,10.9,1.1
	c10.1,0.4,16.8-1.6,16.8-1.6c2.3-0.9,2.3-4.4,2.3-4.4c0-0.4,0.3-0.7,0.5-1c3.8-2.4,2-6.1,2-6.4c-0.3-0.6,0-1.2,0.7-1.6
	c0.5-0.2,1.2-1.3,1.5-2c1.1-2.2-0.7-4.3-0.7-4.3c-0.4-0.5-0.4-1.1,0-1.6c2.3-2.4,1.4-4.4,1.4-4.5c0,0,0-0.1-0.1-0.1
	c-1.1-3.2-3.5-3.3-3.7-3.3h-9.8c-0.4,0-0.8-0.2-1.1-0.5c-0.3-0.4-0.3-0.7-0.1-1.1c4.8-11.1,1-18.7-0.3-20.3c-0.5-0.1-1-0.1-1.2-0.1
	c-1.9,0-2,2.2-2,2.4c0,6-1.9,11-5.9,14.8c-3.7,3.6-10.2,5.8-13.7,6.9v27.2H222.1z M209.8,55.1c-0.8,0-1.4-0.5-1.4-1.2
	s0.7-1.2,1.4-1.2c0.7,0,1.4,0.6,1.4,1.2C211.2,54.6,210.5,55.1,209.8,55.1z"/>
</svg>
