<?xml version="1.0" encoding="utf-8"?>
<!-- Generator: Adobe Illustrator 22.0.1, SVG Export Plug-In . SVG Version: 6.00 Build 0)  -->
<svg version="1.1" id="Layer_1" xmlns="http://www.w3.org/2000/svg" xmlns:xlink="http://www.w3.org/1999/xlink" x="0px" y="0px"
	 viewBox="0 0 60 60" style="enable-background:new 0 0 60 60;" xml:space="preserve">
<style type="text/css">
	.st0{fill:#FFFFFF;}
</style>
<path class="st0" d="M30,0c-1.1,0-2,0.8-2.3,1.9l-5.9,19H2.4c-1.3,0-2.4,1.2-2.4,2.6c0,0.9,0.4,1.6,1,2.1
	c0.4,0.3,15.6,11.9,15.6,11.9s-5.9,18.8-6,19.1c-0.1,0.3-0.1,0.6-0.1,0.9c0,1.4,1.1,2.5,2.4,2.5c0.5,0,1-0.2,1.4-0.5L30,47.7
	c0,0,15.3,11.6,15.6,11.9C46,59.8,46.5,60,47,60c1.3,0,2.4-1.1,2.4-2.5c0-0.3-0.1-0.6-0.2-0.9c-0.1-0.3-6-19.1-6-19.1
	S58.6,25.9,59,25.6c0.6-0.5,1-1.2,1-2.1c0-1.4-1-2.6-2.4-2.6H38.2l-5.9-19C32,0.8,31.1,0,30,0z"/>
</svg>
