<?xml version="1.0" encoding="utf-8"?>
<!-- Generator: Adobe Illustrator 22.0.1, SVG Export Plug-In . SVG Version: 6.00 Build 0)  -->
<svg version="1.1" id="Layer_1" xmlns="http://www.w3.org/2000/svg" xmlns:xlink="http://www.w3.org/1999/xlink" x="0px" y="0px"
	 viewBox="0 0 60 60" style="enable-background:new 0 0 60 60;" xml:space="preserve">
<style type="text/css">
	.st0{fill:#FFFFFF;}
</style>
<path class="st0" d="M12.3,60H1.3C0.5,60,0,59.5,0,58.8V23.3C0,22.5,0.7,22,1.3,22h10.9c0.8,0,1.4,0.6,1.4,1.2v35.5
	C13.6,59.5,12.9,60,12.3,60z M2.7,57.6h8.2V24.5H2.7V57.6z M35.2,57.6L35.2,57.6c-1,0-1.9,0-2.9,0c-3.7-0.1-8.1-0.7-11.2-1.1
	c-1.5-0.2-2.9-0.4-3.7-0.4c-0.7,0-1.2-0.6-1.2-1.2v-29c0-0.5,0.4-1,0.8-1.1l0.7-0.2c3.1-1,9.6-3.2,12.8-6.4
	c3.5-3.3,5.2-7.8,5.2-13.2C35.9,3.2,37,0,40.7,0c0.7,0,1.5,0.1,2.5,0.4c0.1,0,0.4,0.1,0.5,0.2C45.2,2,50.1,9.9,45.4,22h7.8l0,0
	c0.5,0,4.6,0.1,6.3,4.8c0.3,0.6,1.4,3.2-1.1,6.4c0.7,1.1,1.8,3.4,0.5,5.9c-0.1,0.2-0.7,1.7-1.8,2.7c0.7,2.1,0.5,5.5-2.7,8
	c-0.1,1.5-0.8,4.9-4.1,6.1C49.9,56,44.2,57.6,35.2,57.6z M19.1,53.8c0.7,0.1,1.6,0.2,2.6,0.4c3.1,0.4,7.4,0.9,10.9,1.1
	c10.1,0.4,16.8-1.6,16.8-1.6c2.3-0.9,2.3-4.4,2.3-4.4c0-0.4,0.3-0.7,0.5-1c3.8-2.4,2-6.1,2-6.4c-0.3-0.6,0-1.2,0.7-1.6
	c0.5-0.2,1.2-1.3,1.5-2c1.1-2.2-0.7-4.3-0.7-4.3c-0.4-0.5-0.4-1.1,0-1.6c2.3-2.4,1.4-4.4,1.4-4.5c0,0,0-0.1-0.1-0.1
	c-1.1-3.2-3.5-3.3-3.7-3.3h-9.8c-0.4,0-0.8-0.2-1.1-0.5c-0.3-0.4-0.3-0.7-0.1-1.1c4.8-11.1,1-18.7-0.3-20.3c-0.5-0.1-1-0.1-1.2-0.1
	c-1.9,0-2,2.2-2,2.4c0,6-1.9,11-5.9,14.8c-3.7,3.6-10.2,5.8-13.7,6.9v27.2H19.1z M6.8,55.1c-0.8,0-1.4-0.5-1.4-1.2s0.7-1.2,1.4-1.2
	s1.4,0.6,1.4,1.2C8.2,54.6,7.5,55.1,6.8,55.1z"/>
</svg>
