<?xml version="1.0" encoding="utf-8"?>
<!-- Generator: Adobe Illustrator 22.0.1, SVG Export Plug-In . SVG Version: 6.00 Build 0)  -->
<svg version="1.1" id="Слой_1" xmlns="http://www.w3.org/2000/svg" xmlns:xlink="http://www.w3.org/1999/xlink" x="0px" y="0px"
	 viewBox="0 0 480 480" style="enable-background:new 0 0 480 480;" xml:space="preserve">
<style type="text/css">
	.st0{fill:#407471;}
</style>
<path class="st0" d="M254.5,248h-29c-0.6,0-1,0.4-1,1v16c0,0.6,0.5,1,1,1h29c0.6,0,1-0.4,1-1v-16C255.5,248.4,255.1,248,254.5,248z
	 M253.4,250c-0.5,4.6-4.5,8-9.3,8H241v-1c0-0.6-0.5-1-1-1s-1,0.4-1,1v1h-3.1c-4.7,0-8.7-3.4-9.3-8H253.4z M253.4,264h-26.9v-8.7
	c2.1,2.9,5.6,4.7,9.3,4.7h3.1v1c0,0.6,0.5,1,1,1s1-0.4,1-1v-1h3.1c3.7,0,7.2-1.8,9.3-4.7V264z"/>
<path class="st0" d="M264.8,246h-3.1v-16.1c2.4-0.5,4.1-2.5,4.1-4.9v-6c0-2.8-2.3-5-5.2-5h-12.5c-0.5-2.3-2.6-4-5.1-4h-6.2
	c-2.5,0-4.6,1.7-5.1,4h-12.5c-2.9,0-5.2,2.2-5.2,5v6c0,2.4,1.7,4.4,4.1,4.9V246h-3.1c-2.9,0-5.2,2.2-5.2,5v8c0,2.8,2.3,5,5.2,5h3.1
	v1c0,2.8,2.3,5,5.2,5h33.1c2.9,0,5.2-2.2,5.2-5v-1h3.1c2.9,0,5.2-2.2,5.2-5v-8C270,248.2,267.7,246,264.8,246z M263.8,219v6
	c0,1.7-1.4,3-3.1,3h-5.2v-12h5.2C262.4,216,263.8,217.3,263.8,219z M253.4,216v12h-2.1v-12H253.4z M251.4,238h2.1v1c0,0.6-0.5,1-1,1
	s-1-0.4-1-1V238z M251.4,236v-6h2.1v6H251.4z M249.3,216v12h-18.6v-12H249.3z M236.9,212h6.2c1.3,0,2.5,0.8,2.9,2H234
	C234.4,212.8,235.6,212,236.9,212z M228.6,216v12h-2.1v-12H228.6z M226.6,238h2.1v1c0,0.6-0.5,1-1,1s-1-0.4-1-1V238z M226.6,236v-6
	h2.1v6H226.6z M216.2,225v-6c0-1.7,1.4-3,3.1-3h5.2v12h-5.2C217.6,228,216.2,226.7,216.2,225z M215.2,262c-1.7,0-3.1-1.3-3.1-3v-8
	c0-1.7,1.4-3,3.1-3h3.1v14H215.2z M259.7,265c0,1.7-1.4,3-3.1,3h-33.1c-1.7,0-3.1-1.3-3.1-3v-35h4.1v6h-1c-0.6,0-1,0.4-1,1
	s0.5,1,1,1h1v1c0,1.7,1.4,3,3.1,3s3.1-1.3,3.1-3v-1h1c0.6,0,1-0.4,1-1s-0.5-1-1-1h-1v-6h18.6v6h-1c-0.6,0-1,0.4-1,1s0.5,1,1,1h1v1
	c0,1.7,1.4,3,3.1,3s3.1-1.3,3.1-3v-1h1c0.6,0,1-0.4,1-1s-0.5-1-1-1h-1v-6h4.1V265z M267.9,259c0,1.7-1.4,3-3.1,3h-3.1v-14h3.1
	c1.7,0,3.1,1.3,3.1,3V259z"/>
</svg>
