<?xml version="1.0" encoding="utf-8"?>
<!-- Generator: Adobe Illustrator 22.0.1, SVG Export Plug-In . SVG Version: 6.00 Build 0)  -->
<svg version="1.1" id="Capa_1" xmlns="http://www.w3.org/2000/svg" xmlns:xlink="http://www.w3.org/1999/xlink" x="0px" y="0px"
	 viewBox="0 0 48 73" style="enable-background:new 0 0 48 73;" xml:space="preserve">
<style type="text/css">
	.st0{fill:#407471;}
</style>
<g>
	<g>
		<path class="st0" d="M7,42.2c2.6,0.2,4.9-1.1,6.3-3c0.1,0,0.3,0,0.5-0.1c0.7-0.2,1.3-0.4,1.9-0.7c-0.2,0.5-0.3,1.1-0.4,1.6
			c-0.3,1.1-0.3,2.2-0.1,3.1c-1.7,8.1-3.8,16.1-6.1,24.1c-1.5,5.2,6.7,7.4,8.2,2.2c2-6.8,3.8-13.7,5.3-20.6c0.2,0,0.3,0,0.4,0
			c4,5.6,6,12,4.9,19C27,73,35.3,75.3,36.1,70c1.6-10.1-1-18.8-6.8-26.7c0.9-4.1,1.6-8.1,2-12.2c3.5,2.4,7.3,4.4,11.5,5.7
			c5.3,1.7,7.5-6.3,2.3-8c-5.3-1.7-9.9-4.6-13.6-8.5c-1.7-6.1-11.4-6.3-13.7-0.5c-0.2,0-0.3-0.1-0.5-0.1c-1.8-0.4-3.6-0.3-5.3,0.1
			c-1-0.7-2.2-1.1-3.5-1.2c-4-0.2-7.3,2.9-7.6,6.7c-0.3,3.2-0.5,6.3-0.8,9.5C-0.2,38.6,3.1,42,7,42.2z M14.7,34.2
			c0.3-2.7,0.5-5.5,0.7-8.2c0.1-0.8-0.1-1.6-0.3-2.4c0.8,0.1,1.5,0.2,2.2,0.5c-0.1,3-0.3,5.9-0.7,8.8C16,33.4,15.4,33.9,14.7,34.2z"
			/>
		<ellipse class="st0" cx="28.3" cy="7.1" rx="7.2" ry="7.1"/>
	</g>
</g>
</svg>
