<?xml version="1.0" encoding="utf-8"?>
<!-- Generator: Adobe Illustrator 22.0.1, SVG Export Plug-In . SVG Version: 6.00 Build 0)  -->
<svg version="1.1" id="Capa_1" xmlns="http://www.w3.org/2000/svg" xmlns:xlink="http://www.w3.org/1999/xlink" x="0px" y="0px"
	 viewBox="0 0 548.2 548.2" style="enable-background:new 0 0 548.2 548.2;" xml:space="preserve">
<style type="text/css">
	.st0{fill:#407471;}
</style>
<g>
	<path class="st0" d="M297.9,250.5c-0.8-0.9-1.8-1.4-2.9-1.4h-41.7c-1.1,0-2.1,0.5-2.9,1.4c-0.8,0.9-1.2,2.1-1.2,3.4v40.4
		c0,1.3,0.4,2.5,1.2,3.4c0.8,0.9,1.8,1.4,2.9,1.4h41.7c1.1,0,2.1-0.5,2.9-1.4c0.8-0.9,1.2-2.1,1.2-3.4v-40.4
		C299.1,252.6,298.7,251.4,297.9,250.5z M259.1,293.3c0,0.5-0.2,1-0.5,1.4c-0.3,0.4-0.7,0.6-1.2,0.6h-3.3c-0.5,0-0.8-0.2-1.2-0.6
		c-0.3-0.4-0.5-0.8-0.5-1.4v-3.8c0-0.5,0.2-1,0.5-1.4c0.3-0.4,0.7-0.6,1.2-0.6h3.3c0.5,0,0.8,0.2,1.2,0.6c0.3,0.4,0.5,0.8,0.5,1.4
		V293.3z M259.1,281.8c0,0.5-0.2,1-0.5,1.4c-0.3,0.4-0.7,0.6-1.2,0.6h-3.3c-0.5,0-0.8-0.2-1.2-0.6c-0.3-0.4-0.5-0.8-0.5-1.4v-3.8
		c0-0.5,0.2-1,0.5-1.4c0.3-0.4,0.7-0.6,1.2-0.6h3.3c0.5,0,0.8,0.2,1.2,0.6c0.3,0.4,0.5,0.8,0.5,1.4V281.8z M259.1,270.2
		c0,0.5-0.2,1-0.5,1.4c-0.3,0.4-0.7,0.6-1.2,0.6h-3.3c-0.5,0-0.8-0.2-1.2-0.6c-0.3-0.4-0.5-0.8-0.5-1.4v-3.8c0-0.5,0.2-1,0.5-1.4
		c0.3-0.4,0.7-0.6,1.2-0.6h3.3c0.5,0,0.8,0.2,1.2,0.6c0.3,0.4,0.5,0.8,0.5,1.4V270.2z M259.1,258.7c0,0.5-0.2,1-0.5,1.4
		c-0.3,0.4-0.7,0.6-1.2,0.6h-3.3c-0.5,0-0.8-0.2-1.2-0.6c-0.3-0.4-0.5-0.8-0.5-1.4v-3.8c0-0.5,0.2-1,0.5-1.4
		c0.3-0.4,0.7-0.6,1.2-0.6h3.3c0.5,0,0.8,0.2,1.2,0.6c0.3,0.4,0.5,0.8,0.5,1.4V258.7z M285.8,293.3c0,0.5-0.2,1-0.5,1.4
		c-0.3,0.4-0.7,0.6-1.2,0.6h-20c-0.5,0-0.8-0.2-1.2-0.6c-0.3-0.4-0.5-0.8-0.5-1.4v-15.4c0-0.5,0.2-1,0.5-1.4
		c0.3-0.4,0.7-0.6,1.2-0.6h20c0.5,0,0.8,0.2,1.2,0.6c0.3,0.4,0.5,0.8,0.5,1.4L285.8,293.3L285.8,293.3z M285.8,270.2
		c0,0.5-0.2,1-0.5,1.4c-0.3,0.4-0.7,0.6-1.2,0.6h-20c-0.5,0-0.8-0.2-1.2-0.6c-0.3-0.4-0.5-0.8-0.5-1.4v-15.4c0-0.5,0.2-1,0.5-1.4
		c0.3-0.4,0.7-0.6,1.2-0.6h20c0.5,0,0.8,0.2,1.2,0.6c0.3,0.4,0.5,0.8,0.5,1.4L285.8,270.2L285.8,270.2z M295.8,293.3
		c0,0.5-0.2,1-0.5,1.4c-0.3,0.4-0.7,0.6-1.2,0.6h-3.3c-0.5,0-0.8-0.2-1.2-0.6c-0.3-0.4-0.5-0.8-0.5-1.4v-3.8c0-0.5,0.2-1,0.5-1.4
		c0.3-0.4,0.7-0.6,1.2-0.6h3.3c0.5,0,0.8,0.2,1.2,0.6c0.3,0.4,0.5,0.8,0.5,1.4L295.8,293.3L295.8,293.3z M295.8,281.8
		c0,0.5-0.2,1-0.5,1.4c-0.3,0.4-0.7,0.6-1.2,0.6h-3.3c-0.5,0-0.8-0.2-1.2-0.6c-0.3-0.4-0.5-0.8-0.5-1.4v-3.8c0-0.5,0.2-1,0.5-1.4
		c0.3-0.4,0.7-0.6,1.2-0.6h3.3c0.5,0,0.8,0.2,1.2,0.6c0.3,0.4,0.5,0.8,0.5,1.4L295.8,281.8L295.8,281.8z M295.8,270.2
		c0,0.5-0.2,1-0.5,1.4c-0.3,0.4-0.7,0.6-1.2,0.6h-3.3c-0.5,0-0.8-0.2-1.2-0.6c-0.3-0.4-0.5-0.8-0.5-1.4v-3.8c0-0.5,0.2-1,0.5-1.4
		c0.3-0.4,0.7-0.6,1.2-0.6h3.3c0.5,0,0.8,0.2,1.2,0.6c0.3,0.4,0.5,0.8,0.5,1.4L295.8,270.2L295.8,270.2z M295.8,258.7
		c0,0.5-0.2,1-0.5,1.4c-0.3,0.4-0.7,0.6-1.2,0.6h-3.3c-0.5,0-0.8-0.2-1.2-0.6c-0.3-0.4-0.5-0.8-0.5-1.4v-3.8c0-0.5,0.2-1,0.5-1.4
		c0.3-0.4,0.7-0.6,1.2-0.6h3.3c0.5,0,0.8,0.2,1.2,0.6c0.3,0.4,0.5,0.8,0.5,1.4L295.8,258.7L295.8,258.7z"/>
</g>
</svg>
