<?xml version="1.0" encoding="utf-8"?>
<!-- Generator: Adobe Illustrator 22.0.1, SVG Export Plug-In . SVG Version: 6.00 Build 0)  -->
<svg version="1.1" id="Слой_1" xmlns="http://www.w3.org/2000/svg" xmlns:xlink="http://www.w3.org/1999/xlink" x="0px" y="0px"
	 viewBox="0 0 512 512" style="enable-background:new 0 0 512 512;" xml:space="preserve">
<style type="text/css">
	.st0{fill:#407471;}
</style>
<path class="st0" d="M227.7,246.7c0.5,0.2,1,0.3,1.5,0.3c0.3,0,0.6,0,1-0.1c2-0.4,3.2-2,2.8-3.8c0,0,0,0,0,0l-2.2-10.2l9.3-2
	l1.6,7.5c-0.5-0.1-1.1-0.1-1.8,0.1c-2.1,0.4-3.2,1.9-2.8,3.7c0.3,1.5,1.5,2.4,3.1,2.4c0.3,0,0.6,0,1-0.1c2-0.4,3.2-2,2.8-3.8
	c0,0,0,0,0,0l-3-13.5c-0.2-0.8-1-1.4-1.9-1.2l-9.7,2.1c-0.4,0.1-0.8,0.3-1,0.7c-0.2,0.4-0.3,0.8-0.2,1.2l2.4,10.9
	c-0.5-0.1-1.1-0.1-1.8,0.1c-0.9,0.2-1.7,0.6-2.2,1.2c-0.6,0.7-0.8,1.6-0.6,2.5C226.3,245.6,226.8,246.3,227.7,246.7z M240.8,242.8
	c-0.4,0.1-1.7,0.3-2-0.9c-0.2-1.1,0.8-1.5,1.5-1.6c0.2,0,0.4-0.1,0.7-0.1c0.6,0,1.1,0.2,1.3,0.9v0
	C242.5,242.3,241.2,242.7,240.8,242.8z M239.3,227.8l0.3,1.5l-9.3,2l-0.3-1.5L239.3,227.8z M228,243.3c0.3-0.3,0.7-0.5,1.2-0.6
	c0.2,0,0.4-0.1,0.7-0.1c0.6,0,1.1,0.2,1.3,0.9v0c0.3,1.2-1,1.6-1.4,1.7c-0.5,0.1-1,0.1-1.4-0.1c-0.3-0.2-0.5-0.4-0.6-0.8
	C227.7,243.9,227.8,243.6,228,243.3z"/>
<path class="st0" d="M285.9,270c-0.2-0.4-0.5-0.7-0.9-0.8l-9.3-3.6c-0.8-0.3-1.7,0.1-2,0.9l-4,10.4c-0.4-0.4-0.9-0.7-1.5-0.9
	c-0.9-0.3-1.7-0.4-2.5-0.2c-0.9,0.2-1.6,0.9-1.9,1.7c-0.3,0.9-0.3,1.8,0.2,2.6c0.4,0.7,1.1,1.2,2,1.6c0.5,0.2,1,0.3,1.5,0.3
	c1.3,0,2.4-0.7,2.8-1.9l3.8-9.7l8.9,3.5l-2.8,7.2c-0.4-0.4-0.9-0.7-1.5-0.9c-2-0.8-3.7-0.1-4.4,1.5c-0.3,0.9-0.3,1.8,0.2,2.6
	c0.4,0.7,1.1,1.2,2,1.6c0.5,0.2,1,0.3,1.5,0.3c1.3,0,2.4-0.7,2.8-1.9l5-12.9C286,270.8,286,270.4,285.9,270z M266.6,280
	c-0.5-0.2-0.9-0.5-1.1-0.8c-0.2-0.3-0.2-0.7-0.1-1c0.1-0.4,0.4-0.6,0.7-0.7c0.1,0,0.3,0,0.4,0c0.3,0,0.6,0.1,1,0.2
	c0.5,0.2,0.9,0.5,1.1,0.8c0.2,0.3,0.2,0.6,0,1C268.3,280.5,267,280.1,266.6,280z M274.7,268.7l0.5-1.4l8.9,3.5l-0.5,1.4L274.7,268.7
	z M277.1,284.1c-0.5-0.2-0.9-0.5-1.1-0.8c-0.2-0.3-0.2-0.7-0.1-1c0.2-0.6,0.7-0.7,1.1-0.7c0.4,0,0.7,0.1,1,0.2
	c0.5,0.2,0.9,0.5,1.1,0.8c0.2,0.3,0.2,0.6,0,1C278.8,284.6,277.5,284.2,277.1,284.1z"/>
<path class="st0" d="M251.8,282c-5.4,3.9-13.6,2.6-19.1-3c-3.2-3.3-5-7.6-4.9-11.8c0.1-3.4,1.3-6.4,3.6-8.6c1.6-1.5,3.7-2.6,5.9-3
	c3.1-0.6,5.8-2.1,7.9-4.3c0.3-0.4,0.3-0.9,0-1.2c-0.4-0.3-0.9-0.3-1.2,0c-1.8,2-4.2,3.3-7,3.8c-2.6,0.5-5,1.7-6.8,3.4
	c-2.6,2.5-4.1,6-4.2,9.8c-0.1,4.7,1.9,9.5,5.4,13.1c3.7,3.8,8.5,5.8,13.1,5.8c3,0,5.9-0.8,8.3-2.6c0.4-0.3,0.5-0.8,0.2-1.2
	C252.8,281.8,252.2,281.7,251.8,282z"/>
<path class="st0" d="M267,264.3c1.8-1.8,2.7-4.2,2.5-6.8c-0.1-2.1-0.9-4.3-2.3-6.5l5.6-5.6c0.3-0.3,0.3-0.9,0-1.2
	c-0.3-0.3-0.9-0.3-1.2,0L256,259.7c-0.3-0.8-0.8-1.6-1.5-2.2s-1.4-1.2-2.2-1.5l18.3-18.3l3.7,3.7l-0.1,0.1c-0.3,0.3-0.3,0.9,0,1.2
	c0.2,0.2,0.4,0.3,0.6,0.3c0.2,0,0.4-0.1,0.6-0.3l0.2-0.2c0.1,0,0.3,0.1,0.4,0.1c0,0,0,0,0,0c0.4,0,0.8-0.2,1-0.5l0.9-1.1l1,1
	c0.2,0.2,0.4,0.3,0.6,0.3s0.4-0.1,0.6-0.3c0.3-0.3,0.3-0.9,0-1.2l-1.1-1.1l1.5-1.7l1,1c0.2,0.2,0.4,0.3,0.6,0.3s0.4-0.1,0.6-0.3
	c0.3-0.3,0.3-0.9,0-1.2l-1.1-1.1l1.5-1.7l0.8,0.8c0.2,0.2,0.4,0.3,0.6,0.3s0.4-0.1,0.6-0.3c0.3-0.3,0.3-0.9,0-1.2l-0.8-0.8l1.1-1.2
	c0.5-0.6,0.5-1.4-0.1-2l-4.1-4.1c-0.5-0.5-1.4-0.6-2-0.1l-1.2,1.1l-0.8-0.8c-0.3-0.3-0.9-0.3-1.2,0c-0.3,0.3-0.3,0.9,0,1.2l0.8,0.8
	l-1.7,1.5l-1.1-1.1c-0.3-0.3-0.9-0.3-1.2,0c-0.3,0.3-0.3,0.9,0,1.2l1.1,1.1l-1.7,1.5l-1.1-1.1c-0.3-0.3-0.9-0.3-1.2,0
	s-0.3,0.9,0,1.2l1,1l-1.1,0.9c-0.3,0.3-0.5,0.6-0.5,1c0,0.2,0,0.3,0.1,0.5l-8.5,8.5c-4.9-3.2-9.9-3.2-13.1,0
	c-0.8,0.8-1.5,1.6-1.9,2.4c-0.2,0.4-0.1,1,0.3,1.2c0.1,0.1,0.3,0.1,0.4,0.1c0.3,0,0.6-0.2,0.8-0.4c0.4-0.7,0.9-1.4,1.6-2.1
	c3.5-3.5,8.3-1.4,10.6,0l-9.5,9.5c-0.2,0-0.3,0-0.5,0c-1.8,0-3.5,0.7-4.8,2c-1.3,1.3-2,3-2,4.8s0.7,3.5,2,4.8c1.3,1.3,3,2,4.8,2
	c1.8,0,3.5-0.7,4.8-2c1.3-1.3,2-3,2-4.8c0-0.2,0-0.3,0-0.5l9.4-9.4c1.4,2.3,3.5,7.1-0.2,10.8c-0.6,0.6-1.2,1.1-2,1.5
	c-4,2.2-6.6,5.8-7.4,10.1c-0.3,1.8-1,3.5-2.1,4.9c-0.3,0.4-0.2,0.9,0.2,1.2c0.2,0.1,0.3,0.2,0.5,0.2c0.3,0,0.5-0.1,0.7-0.4
	c1.2-1.6,2-3.5,2.4-5.6c0.7-3.8,3-7,6.6-8.9C265.5,265.6,266.3,265,267,264.3z M280.4,227.9l3.7,3.7l-8,9.1l-4.8-4.8L280.4,227.9z
	 M253.3,265.7c-0.9,0.9-2.2,1.5-3.5,1.5s-2.6-0.5-3.5-1.5s-1.5-2.2-1.5-3.5c0-1.3,0.5-2.6,1.5-3.5c0.9-0.9,2.2-1.5,3.5-1.5
	s2.6,0.5,3.5,1.5c0.9,0.9,1.5,2.2,1.5,3.5C254.8,263.5,254.2,264.8,253.3,265.7z"/>
<path class="st0" d="M233.5,265.2c-1.2,1.2-1.2,3.1,0,4.3l9,9c0.6,0.6,1.4,0.9,2.2,0.9c0.8,0,1.6-0.3,2.2-0.9c1.2-1.2,1.2-3.1,0-4.3
	l-9-9c-0.6-0.6-1.3-0.9-2.2-0.9C234.8,264.3,234.1,264.7,233.5,265.2z M245.5,275.5c0.5,0.5,0.5,1.3,0,1.8c-0.5,0.5-1.3,0.5-1.8,0
	l-9-9c-0.5-0.5-0.5-1.3,0-1.8c0.2-0.2,0.6-0.4,0.9-0.4c0.3,0,0.7,0.1,0.9,0.4L245.5,275.5z"/>
<path class="st0" d="M270.2,244.6c0.2,0,0.4-0.1,0.6-0.3c0.3-0.3,0.3-0.9,0-1.2l-1.9-1.9c-0.3-0.3-0.9-0.3-1.2,0
	c-0.3,0.3-0.3,0.9,0,1.2l1.9,1.9C269.7,244.5,270,244.6,270.2,244.6z"/>
<path class="st0" d="M267.6,247.2c0.2,0,0.4-0.1,0.6-0.3c0.3-0.3,0.3-0.9,0-1.2l-1.9-1.9c-0.3-0.3-0.9-0.3-1.2,0
	c-0.3,0.3-0.3,0.9,0,1.2l1.9,1.9C267.1,247.1,267.4,247.2,267.6,247.2z"/>
<path class="st0" d="M265,249.8c0.2,0,0.4-0.1,0.6-0.3c0.3-0.3,0.3-0.9,0-1.2l-1.9-1.9c-0.3-0.3-0.9-0.3-1.2,0s-0.3,0.9,0,1.2
	l1.9,1.9C264.5,249.7,264.8,249.8,265,249.8z"/>
<path class="st0" d="M262.4,252.3c0.2,0,0.4-0.1,0.6-0.3c0.3-0.3,0.3-0.9,0-1.2l-1.9-1.9c-0.3-0.3-0.9-0.3-1.2,0
	c-0.3,0.3-0.3,0.9,0,1.2l1.9,1.9C261.9,252.3,262.2,252.3,262.4,252.3z"/>
<path class="st0" d="M257.3,251.6c-0.3,0.3-0.3,0.9,0,1.2l1.9,1.9c0.2,0.2,0.4,0.3,0.6,0.3c0.2,0,0.4-0.1,0.6-0.3
	c0.3-0.3,0.3-0.9,0-1.2l-1.9-1.9C258.2,251.2,257.6,251.2,257.3,251.6z"/>
<path class="st0" d="M274.9,235c-0.3-0.3-0.9-0.3-1.2,0s-0.3,0.9,0,1.2s0.9,0.3,1.2,0S275.3,235.3,274.9,235z"/>
<path class="st0" d="M277,237.1c-0.3-0.3-0.9-0.3-1.2,0c-0.3,0.3-0.3,0.9,0,1.2c0.3,0.3,0.9,0.3,1.2,0
	C277.4,238,277.4,237.4,277,237.1z"/>
<path class="st0" d="M277.6,232.3c-0.3-0.3-0.9-0.3-1.2,0c-0.3,0.3-0.3,0.9,0,1.2c0.3,0.3,0.9,0.3,1.2,0
	C277.9,233.2,277.9,232.7,277.6,232.3z"/>
<path class="st0" d="M279.7,234.4c-0.3-0.3-0.9-0.3-1.2,0c-0.3,0.3-0.3,0.9,0,1.2c0.3,0.3,0.9,0.3,1.2,0
	C280,235.3,280,234.8,279.7,234.4z"/>
<path class="st0" d="M280.2,229.7c-0.3-0.3-0.9-0.3-1.2,0s-0.3,0.9,0,1.2s0.9,0.3,1.2,0C280.6,230.6,280.6,230,280.2,229.7z"/>
<path class="st0" d="M282.3,231.8c-0.3-0.3-0.9-0.3-1.2,0c-0.3,0.3-0.3,0.9,0,1.2c0.3,0.3,0.9,0.3,1.2,0S282.7,232.1,282.3,231.8z"
	/>
</svg>
