<?xml version="1.0" encoding="utf-8"?>
<!-- Generator: Adobe Illustrator 22.0.1, SVG Export Plug-In . SVG Version: 6.00 Build 0)  -->
<svg version="1.1" id="Слой_1" xmlns="http://www.w3.org/2000/svg" xmlns:xlink="http://www.w3.org/1999/xlink" x="0px" y="0px"
	 viewBox="0 0 250 146" style="enable-background:new 0 0 250 146;" xml:space="preserve">
<style type="text/css">
	.st0{fill:#407471;}
</style>
<path class="st0" d="M51.1,13.7c-0.2-0.2-0.5-0.3-0.8-0.2l-31,3.7c-0.5,0.1-0.9,0.4-0.9,0.9v5.5v3.8V51c-1.7-1.8-4.4-3-7.5-3
	c-5.2,0-9.5,3.4-9.5,7.7s4.3,7.7,9.5,7.7s9.5-3.4,9.5-7.7c0-0.3,0-0.6-0.1-0.9c0-0.1,0.1-0.2,0.1-0.3V28.1l29-3.4v17.2
	c-1.7-1.8-4.4-3-7.5-3c-5.2,0-9.5,3.4-9.5,7.7s4.3,7.7,9.5,7.7s9.5-3.4,9.5-7.7c0-0.1,0-0.2,0-0.2c0,0,0,0,0-0.1V23.7v-3.8v-5.5
	C51.4,14.1,51.3,13.8,51.1,13.7z"/>
<g>
	<path class="st0" d="M108.9,14.5c-0.8-0.9-1.8-1.4-2.9-1.4H64.3c-1.1,0-2.1,0.5-2.9,1.4c-0.8,0.9-1.2,2.1-1.2,3.4v40.4
		c0,1.3,0.4,2.5,1.2,3.4c0.8,0.9,1.8,1.4,2.9,1.4h41.7c1.1,0,2.1-0.5,2.9-1.4c0.8-0.9,1.2-2.1,1.2-3.4V17.9
		C110.1,16.6,109.7,15.4,108.9,14.5z M70.1,57.3c0,0.5-0.2,1-0.5,1.4c-0.3,0.4-0.7,0.6-1.2,0.6h-3.3c-0.5,0-0.8-0.2-1.2-0.6
		c-0.3-0.4-0.5-0.8-0.5-1.4v-3.8c0-0.5,0.2-1,0.5-1.4c0.3-0.4,0.7-0.6,1.2-0.6h3.3c0.5,0,0.8,0.2,1.2,0.6c0.3,0.4,0.5,0.8,0.5,1.4
		V57.3z M70.1,45.8c0,0.5-0.2,1-0.5,1.4c-0.3,0.4-0.7,0.6-1.2,0.6h-3.3c-0.5,0-0.8-0.2-1.2-0.6c-0.3-0.4-0.5-0.8-0.5-1.4v-3.8
		c0-0.5,0.2-1,0.5-1.4c0.3-0.4,0.7-0.6,1.2-0.6h3.3c0.5,0,0.8,0.2,1.2,0.6c0.3,0.4,0.5,0.8,0.5,1.4V45.8z M70.1,34.2
		c0,0.5-0.2,1-0.5,1.4c-0.3,0.4-0.7,0.6-1.2,0.6h-3.3c-0.5,0-0.8-0.2-1.2-0.6c-0.3-0.4-0.5-0.8-0.5-1.4v-3.8c0-0.5,0.2-1,0.5-1.4
		c0.3-0.4,0.7-0.6,1.2-0.6h3.3c0.5,0,0.8,0.2,1.2,0.6c0.3,0.4,0.5,0.8,0.5,1.4V34.2z M70.1,22.7c0,0.5-0.2,1-0.5,1.4
		c-0.3,0.4-0.7,0.6-1.2,0.6h-3.3c-0.5,0-0.8-0.2-1.2-0.6c-0.3-0.4-0.5-0.8-0.5-1.4v-3.8c0-0.5,0.2-1,0.5-1.4
		c0.3-0.4,0.7-0.6,1.2-0.6h3.3c0.5,0,0.8,0.2,1.2,0.6c0.3,0.4,0.5,0.8,0.5,1.4V22.7z M96.8,57.3c0,0.5-0.2,1-0.5,1.4
		c-0.3,0.4-0.7,0.6-1.2,0.6h-20c-0.5,0-0.8-0.2-1.2-0.6c-0.3-0.4-0.5-0.8-0.5-1.4V41.9c0-0.5,0.2-1,0.5-1.4c0.3-0.4,0.7-0.6,1.2-0.6
		h20c0.5,0,0.8,0.2,1.2,0.6c0.3,0.4,0.5,0.8,0.5,1.4L96.8,57.3L96.8,57.3z M96.8,34.2c0,0.5-0.2,1-0.5,1.4c-0.3,0.4-0.7,0.6-1.2,0.6
		h-20c-0.5,0-0.8-0.2-1.2-0.6c-0.3-0.4-0.5-0.8-0.5-1.4V18.9c0-0.5,0.2-1,0.5-1.4c0.3-0.4,0.7-0.6,1.2-0.6h20c0.5,0,0.8,0.2,1.2,0.6
		c0.3,0.4,0.5,0.8,0.5,1.4L96.8,34.2L96.8,34.2z M106.8,57.3c0,0.5-0.2,1-0.5,1.4c-0.3,0.4-0.7,0.6-1.2,0.6h-3.3
		c-0.5,0-0.8-0.2-1.2-0.6c-0.3-0.4-0.5-0.8-0.5-1.4v-3.8c0-0.5,0.2-1,0.5-1.4c0.3-0.4,0.7-0.6,1.2-0.6h3.3c0.5,0,0.8,0.2,1.2,0.6
		c0.3,0.4,0.5,0.8,0.5,1.4V57.3L106.8,57.3z M106.8,45.8c0,0.5-0.2,1-0.5,1.4c-0.3,0.4-0.7,0.6-1.2,0.6h-3.3c-0.5,0-0.8-0.2-1.2-0.6
		c-0.3-0.4-0.5-0.8-0.5-1.4v-3.8c0-0.5,0.2-1,0.5-1.4c0.3-0.4,0.7-0.6,1.2-0.6h3.3c0.5,0,0.8,0.2,1.2,0.6c0.3,0.4,0.5,0.8,0.5,1.4
		V45.8L106.8,45.8z M106.8,34.2c0,0.5-0.2,1-0.5,1.4c-0.3,0.4-0.7,0.6-1.2,0.6h-3.3c-0.5,0-0.8-0.2-1.2-0.6
		c-0.3-0.4-0.5-0.8-0.5-1.4v-3.8c0-0.5,0.2-1,0.5-1.4c0.3-0.4,0.7-0.6,1.2-0.6h3.3c0.5,0,0.8,0.2,1.2,0.6c0.3,0.4,0.5,0.8,0.5,1.4
		V34.2L106.8,34.2z M106.8,22.7c0,0.5-0.2,1-0.5,1.4c-0.3,0.4-0.7,0.6-1.2,0.6h-3.3c-0.5,0-0.8-0.2-1.2-0.6
		c-0.3-0.4-0.5-0.8-0.5-1.4v-3.8c0-0.5,0.2-1,0.5-1.4c0.3-0.4,0.7-0.6,1.2-0.6h3.3c0.5,0,0.8,0.2,1.2,0.6c0.3,0.4,0.5,0.8,0.5,1.4
		V22.7L106.8,22.7z"/>
</g>
<path class="st0" d="M2.7,97.2c0.5,0.2,1,0.3,1.5,0.3c0.3,0,0.6,0,1-0.1c2-0.4,3.2-2,2.8-3.8c0,0,0,0,0,0L5.7,83.4l9.3-2l1.6,7.5
	c-0.5-0.1-1.1-0.1-1.8,0.1c-2.1,0.4-3.2,1.9-2.8,3.7c0.3,1.5,1.5,2.4,3.1,2.4c0.3,0,0.6,0,1-0.1c2-0.4,3.2-2,2.8-3.8c0,0,0,0,0,0
	l-3-13.5c-0.2-0.8-1-1.4-1.9-1.2l-9.7,2.1c-0.4,0.1-0.8,0.3-1,0.7c-0.2,0.4-0.3,0.8-0.2,1.2l2.4,10.9c-0.5-0.1-1.1-0.1-1.8,0.1
	C3,91.6,2.2,92,1.7,92.6c-0.6,0.7-0.8,1.6-0.6,2.5C1.3,96,1.8,96.8,2.7,97.2z M15.8,93.2c-0.4,0.1-1.7,0.3-2-0.9
	c-0.2-1.1,0.8-1.5,1.5-1.6c0.2,0,0.4-0.1,0.7-0.1c0.6,0,1.1,0.2,1.3,0.9v0C17.5,92.8,16.2,93.2,15.8,93.2z M14.3,78.2l0.3,1.5
	l-9.3,2L5,80.3L14.3,78.2z M3,93.8c0.3-0.3,0.7-0.5,1.2-0.6c0.2,0,0.4-0.1,0.7-0.1C5.5,93,6,93.3,6.2,94v0c0.3,1.2-1,1.6-1.4,1.7
	c-0.5,0.1-1,0.1-1.4-0.1c-0.3-0.2-0.5-0.4-0.6-0.8C2.7,94.3,2.8,94,3,93.8z"/>
<path class="st0" d="M60.9,120.4c-0.2-0.4-0.5-0.7-0.9-0.8l-9.3-3.6c-0.8-0.3-1.7,0.1-2,0.9l-4,10.4c-0.4-0.4-0.9-0.7-1.5-0.9
	c-0.9-0.3-1.7-0.4-2.5-0.2c-0.9,0.2-1.6,0.9-1.9,1.7c-0.3,0.9-0.3,1.8,0.2,2.6c0.4,0.7,1.1,1.2,2,1.6c0.5,0.2,1,0.3,1.5,0.3
	c1.3,0,2.4-0.7,2.8-1.9l3.8-9.7l8.9,3.5l-2.8,7.2c-0.4-0.4-0.9-0.7-1.5-0.9c-2-0.8-3.7-0.1-4.4,1.5c-0.3,0.9-0.3,1.8,0.2,2.6
	c0.4,0.7,1.1,1.2,2,1.6c0.5,0.2,1,0.3,1.5,0.3c1.3,0,2.4-0.7,2.8-1.9l5-12.9C61,121.2,61,120.8,60.9,120.4z M41.6,130.4
	c-0.5-0.2-0.9-0.5-1.1-0.8c-0.2-0.3-0.2-0.7-0.1-1c0.1-0.4,0.4-0.6,0.7-0.7c0.1,0,0.3,0,0.4,0c0.3,0,0.6,0.1,1,0.2
	c0.5,0.2,0.9,0.5,1.1,0.8c0.2,0.3,0.2,0.6,0,1C43.3,130.9,42,130.5,41.6,130.4z M49.7,119.1l0.5-1.4l8.9,3.5l-0.5,1.4L49.7,119.1z
	 M52.1,134.5c-0.5-0.2-0.9-0.5-1.1-0.8c-0.2-0.3-0.2-0.7-0.1-1c0.2-0.6,0.7-0.7,1.1-0.7c0.4,0,0.7,0.1,1,0.2
	c0.5,0.2,0.9,0.5,1.1,0.8c0.2,0.3,0.2,0.6,0,1C53.8,135,52.5,134.6,52.1,134.5z"/>
<path class="st0" d="M26.8,132.4c-5.4,3.9-13.6,2.6-19.1-3c-3.2-3.3-5-7.6-4.9-11.8c0.1-3.4,1.3-6.4,3.6-8.6c1.6-1.5,3.7-2.6,5.9-3
	c3.1-0.6,5.8-2.1,7.9-4.3c0.3-0.4,0.3-0.9,0-1.2c-0.4-0.3-0.9-0.3-1.2,0c-1.8,2-4.2,3.3-7,3.8c-2.6,0.5-5,1.7-6.8,3.4
	c-2.6,2.5-4.1,6-4.2,9.8c-0.1,4.7,1.9,9.5,5.4,13.1c3.7,3.8,8.5,5.8,13.1,5.8c3,0,5.9-0.8,8.3-2.6c0.4-0.3,0.5-0.8,0.2-1.2
	C27.8,132.2,27.2,132.1,26.8,132.4z"/>
<path class="st0" d="M42,114.7c1.8-1.8,2.7-4.2,2.5-6.8c-0.1-2.1-0.9-4.3-2.3-6.5l5.6-5.6c0.3-0.3,0.3-0.9,0-1.2
	c-0.3-0.3-0.9-0.3-1.2,0L31,110.1c-0.3-0.8-0.8-1.6-1.5-2.2s-1.4-1.2-2.2-1.5l18.3-18.3l3.7,3.7l-0.1,0.1c-0.3,0.3-0.3,0.9,0,1.2
	c0.2,0.2,0.4,0.3,0.6,0.3c0.2,0,0.4-0.1,0.6-0.3l0.2-0.2c0.1,0,0.3,0.1,0.4,0.1c0,0,0,0,0,0c0.4,0,0.8-0.2,1-0.5l0.9-1.1l1,1
	c0.2,0.2,0.4,0.3,0.6,0.3c0.2,0,0.4-0.1,0.6-0.3c0.3-0.3,0.3-0.9,0-1.2l-1.1-1.1l1.5-1.7l1,1c0.2,0.2,0.4,0.3,0.6,0.3
	s0.4-0.1,0.6-0.3c0.3-0.3,0.3-0.9,0-1.2L57,87.1l1.5-1.7l0.8,0.8c0.2,0.2,0.4,0.3,0.6,0.3s0.4-0.1,0.6-0.3c0.3-0.3,0.3-0.9,0-1.2
	l-0.8-0.8l1.1-1.2c0.5-0.6,0.5-1.4-0.1-2l-4.1-4.1c-0.5-0.5-1.4-0.6-2-0.1l-1.2,1.1L52.4,77c-0.3-0.3-0.9-0.3-1.2,0
	c-0.3,0.3-0.3,0.9,0,1.2L52,79l-1.7,1.5l-1.1-1.1c-0.3-0.3-0.9-0.3-1.2,0c-0.3,0.3-0.3,0.9,0,1.2l1.1,1.1l-1.7,1.5L46.2,82
	c-0.3-0.3-0.9-0.3-1.2,0c-0.3,0.3-0.3,0.9,0,1.2l1,1l-1.1,0.9c-0.3,0.3-0.5,0.6-0.5,1c0,0.2,0,0.3,0.1,0.5L36,95.2
	c-4.9-3.2-9.9-3.2-13.1,0c-0.8,0.8-1.5,1.6-1.9,2.4c-0.2,0.4-0.1,1,0.3,1.2c0.1,0.1,0.3,0.1,0.4,0.1c0.3,0,0.6-0.2,0.8-0.4
	c0.4-0.7,0.9-1.4,1.6-2.1c3.5-3.5,8.3-1.4,10.6,0l-9.5,9.5c-0.2,0-0.3,0-0.5,0c-1.8,0-3.5,0.7-4.8,2c-1.3,1.3-2,3-2,4.8
	s0.7,3.5,2,4.8c1.3,1.3,3,2,4.8,2c1.8,0,3.5-0.7,4.8-2c1.3-1.3,2-3,2-4.8c0-0.2,0-0.3,0-0.5l9.4-9.4c1.4,2.3,3.5,7.1-0.2,10.8
	c-0.6,0.6-1.2,1.1-2,1.5c-4,2.2-6.6,5.8-7.4,10.1c-0.3,1.8-1,3.5-2.1,4.9c-0.3,0.4-0.2,0.9,0.2,1.2c0.2,0.1,0.3,0.2,0.5,0.2
	c0.3,0,0.5-0.1,0.7-0.4c1.2-1.6,2-3.5,2.4-5.6c0.7-3.8,3-7,6.6-8.9C40.5,116,41.3,115.4,42,114.7z M55.4,78.3l3.7,3.7l-8,9.1
	l-4.8-4.8L55.4,78.3z M28.3,116.2c-0.9,0.9-2.2,1.5-3.5,1.5c-1.3,0-2.6-0.5-3.5-1.5s-1.5-2.2-1.5-3.5c0-1.3,0.5-2.6,1.5-3.5
	c0.9-0.9,2.2-1.5,3.5-1.5c1.3,0,2.6,0.5,3.5,1.5c0.9,0.9,1.5,2.2,1.5,3.5C29.8,114,29.2,115.2,28.3,116.2z"/>
<path class="st0" d="M8.5,115.7c-1.2,1.2-1.2,3.1,0,4.3l9,9c0.6,0.6,1.4,0.9,2.2,0.9c0.8,0,1.6-0.3,2.2-0.9c1.2-1.2,1.2-3.1,0-4.3
	l-9-9c-0.6-0.6-1.3-0.9-2.2-0.9S9.1,115.1,8.5,115.7z M20.5,125.9c0.5,0.5,0.5,1.3,0,1.8c-0.5,0.5-1.3,0.5-1.8,0l-9-9
	c-0.5-0.5-0.5-1.3,0-1.8c0.2-0.2,0.6-0.4,0.9-0.4c0.3,0,0.7,0.1,0.9,0.4L20.5,125.9z"/>
<path class="st0" d="M45.2,95c0.2,0,0.4-0.1,0.6-0.3c0.3-0.3,0.3-0.9,0-1.2l-1.9-1.9c-0.3-0.3-0.9-0.3-1.2,0c-0.3,0.3-0.3,0.9,0,1.2
	l1.9,1.9C44.7,94.9,45,95,45.2,95z"/>
<path class="st0" d="M42.6,97.6c0.2,0,0.4-0.1,0.6-0.3c0.3-0.3,0.3-0.9,0-1.2l-1.9-1.9c-0.3-0.3-0.9-0.3-1.2,0
	c-0.3,0.3-0.3,0.9,0,1.2l1.9,1.9C42.1,97.5,42.4,97.6,42.6,97.6z"/>
<path class="st0" d="M40,100.2c0.2,0,0.4-0.1,0.6-0.3c0.3-0.3,0.3-0.9,0-1.2l-1.9-1.9c-0.3-0.3-0.9-0.3-1.2,0
	c-0.3,0.3-0.3,0.9,0,1.2l1.9,1.9C39.5,100.1,39.8,100.2,40,100.2z"/>
<path class="st0" d="M37.4,102.8c0.2,0,0.4-0.1,0.6-0.3c0.3-0.3,0.3-0.9,0-1.2l-1.9-1.9c-0.3-0.3-0.9-0.3-1.2,0
	c-0.3,0.3-0.3,0.9,0,1.2l1.9,1.9C36.9,102.7,37.2,102.8,37.4,102.8z"/>
<path class="st0" d="M32.3,102c-0.3,0.3-0.3,0.9,0,1.2l1.9,1.9c0.2,0.2,0.4,0.3,0.6,0.3c0.2,0,0.4-0.1,0.6-0.3
	c0.3-0.3,0.3-0.9,0-1.2l-1.9-1.9C33.2,101.7,32.6,101.7,32.3,102z"/>
<path class="st0" d="M49.9,85.4c-0.3-0.3-0.9-0.3-1.2,0c-0.3,0.3-0.3,0.9,0,1.2c0.3,0.3,0.9,0.3,1.2,0S50.3,85.7,49.9,85.4z"/>
<path class="st0" d="M52,87.5c-0.3-0.3-0.9-0.3-1.2,0c-0.3,0.3-0.3,0.9,0,1.2c0.3,0.3,0.9,0.3,1.2,0C52.4,88.4,52.4,87.8,52,87.5z"
	/>
<path class="st0" d="M52.6,82.8c-0.3-0.3-0.9-0.3-1.2,0c-0.3,0.3-0.3,0.9,0,1.2c0.3,0.3,0.9,0.3,1.2,0
	C52.9,83.7,52.9,83.1,52.6,82.8z"/>
<path class="st0" d="M54.7,84.9c-0.3-0.3-0.9-0.3-1.2,0c-0.3,0.3-0.3,0.9,0,1.2c0.3,0.3,0.9,0.3,1.2,0C55,85.8,55,85.2,54.7,84.9z"
	/>
<path class="st0" d="M55.2,80.1c-0.3-0.3-0.9-0.3-1.2,0c-0.3,0.3-0.3,0.9,0,1.2c0.3,0.3,0.9,0.3,1.2,0C55.6,81,55.6,80.5,55.2,80.1z
	"/>
<path class="st0" d="M57.3,82.2c-0.3-0.3-0.9-0.3-1.2,0c-0.3,0.3-0.3,0.9,0,1.2c0.3,0.3,0.9,0.3,1.2,0
	C57.7,83.1,57.7,82.6,57.3,82.2z"/>
<path class="st0" d="M112.5,117h-29c-0.6,0-1,0.4-1,1v16c0,0.6,0.5,1,1,1h29c0.6,0,1-0.4,1-1v-16C113.5,117.4,113.1,117,112.5,117z
	 M111.4,119c-0.5,4.6-4.5,8-9.3,8H99v-1c0-0.6-0.5-1-1-1s-1,0.4-1,1v1h-3.1c-4.7,0-8.7-3.4-9.3-8H111.4z M111.4,133H84.6v-8.7
	c2.1,2.9,5.6,4.7,9.3,4.7H97v1c0,0.6,0.5,1,1,1s1-0.4,1-1v-1h3.1c3.7,0,7.2-1.8,9.3-4.7V133z"/>
<path class="st0" d="M122.8,115h-3.1V98.9c2.4-0.5,4.1-2.5,4.1-4.9v-6c0-2.8-2.3-5-5.2-5h-12.5c-0.5-2.3-2.6-4-5.1-4h-6.2
	c-2.5,0-4.6,1.7-5.1,4H77.3c-2.9,0-5.2,2.2-5.2,5v6c0,2.4,1.7,4.4,4.1,4.9V115h-3.1c-2.9,0-5.2,2.2-5.2,5v8c0,2.8,2.3,5,5.2,5h3.1v1
	c0,2.8,2.3,5,5.2,5h33.1c2.9,0,5.2-2.2,5.2-5v-1h3.1c2.9,0,5.2-2.2,5.2-5v-8C128,117.2,125.7,115,122.8,115z M121.8,88v6
	c0,1.7-1.4,3-3.1,3h-5.2V85h5.2C120.4,85,121.8,86.3,121.8,88z M111.4,85v12h-2.1V85H111.4z M109.4,107h2.1v1c0,0.6-0.5,1-1,1
	s-1-0.4-1-1V107z M109.4,105v-6h2.1v6H109.4z M107.3,85v12H88.7V85H107.3z M94.9,81h6.2c1.3,0,2.5,0.8,2.9,2H92
	C92.4,81.8,93.6,81,94.9,81z M86.6,85v12h-2.1V85H86.6z M84.6,107h2.1v1c0,0.6-0.5,1-1,1s-1-0.4-1-1V107z M84.6,105v-6h2.1v6H84.6z
	 M74.2,94v-6c0-1.7,1.4-3,3.1-3h5.2v12h-5.2C75.6,97,74.2,95.7,74.2,94z M73.2,131c-1.7,0-3.1-1.3-3.1-3v-8c0-1.7,1.4-3,3.1-3h3.1
	v14H73.2z M117.7,134c0,1.7-1.4,3-3.1,3H81.4c-1.7,0-3.1-1.3-3.1-3V99h4.1v6h-1c-0.6,0-1,0.4-1,1s0.5,1,1,1h1v1c0,1.7,1.4,3,3.1,3
	s3.1-1.3,3.1-3v-1h1c0.6,0,1-0.4,1-1s-0.5-1-1-1h-1v-6h18.6v6h-1c-0.6,0-1,0.4-1,1s0.5,1,1,1h1v1c0,1.7,1.4,3,3.1,3s3.1-1.3,3.1-3
	v-1h1c0.6,0,1-0.4,1-1s-0.5-1-1-1h-1v-6h4.1V134z M125.9,128c0,1.7-1.4,3-3.1,3h-3.1v-14h3.1c1.7,0,3.1,1.3,3.1,3V128z"/>
<g>
	<path class="st0" d="M132.9,19c0,1.5,0.5,3,1.5,4.1c0.2,0.2,0.5,0.4,0.8,0.4s0.6-0.1,0.8-0.4c0.4-0.5,0.4-1.3,0-1.8
		c-0.6-0.6-0.9-1.4-0.9-2.3c0-0.9,0.3-1.7,0.9-2.3c1-1.1,1.5-2.5,1.5-4.1s-0.5-3-1.5-4.1c-0.4-0.5-1.2-0.5-1.6,0
		c-0.4,0.5-0.4,1.3,0,1.8c0.6,0.6,0.9,1.4,0.9,2.3c0,0.9-0.3,1.7-0.9,2.3C133.4,16,132.9,17.4,132.9,19z"/>
	<path class="st0" d="M157.8,19c0,1.5,0.5,3,1.5,4.1c0.2,0.2,0.5,0.4,0.8,0.4s0.6-0.1,0.8-0.4c0.4-0.5,0.4-1.3,0-1.8
		c-0.6-0.6-0.9-1.4-0.9-2.3c0-0.9,0.3-1.7,0.9-2.3c1-1.1,1.5-2.5,1.5-4.1s-0.5-3-1.5-4.1c-0.4-0.5-1.2-0.5-1.6,0
		c-0.4,0.5-0.4,1.3,0,1.8c0.6,0.6,0.9,1.4,0.9,2.3c0,0.9-0.3,1.7-0.9,2.3C158.3,16,157.8,17.4,157.8,19z"/>
	<path class="st0" d="M144.9,14.1c0,2,0.7,3.8,1.9,5.2c0.2,0.2,0.5,0.4,0.8,0.4s0.6-0.1,0.8-0.4c0.4-0.5,0.4-1.3,0-1.8
		c-0.8-0.9-1.3-2.1-1.3-3.4s0.5-2.5,1.3-3.4c1.3-1.4,1.9-3.2,1.9-5.2s-0.7-3.8-1.9-5.2c-0.4-0.5-1.2-0.5-1.6,0s-0.4,1.3,0,1.8
		c0.8,0.9,1.3,2.1,1.3,3.4c0,1.3-0.5,2.5-1.3,3.4C145.5,10.3,144.9,12.2,144.9,14.1z"/>
	<path class="st0" d="M169.2,48.7C169.2,48.7,169.2,48.7,169.2,48.7c8.5,0,14.8-6.4,14.8-15c0-0.7-0.5-1.2-1.1-1.2h-10.2
		c0-0.8,0-1.7,0-2.5c0-0.7-0.5-1.2-1.1-1.2h-30.6v-1.2c0-0.7-0.5-1.2-1.1-1.2c-0.6,0-1.1,0.6-1.1,1.2v1.2h-14.7
		c-0.6,0-1.1,0.6-1.1,1.2c0,12.1,3.3,21.7,9.5,27.5h-15.1c-0.6,0-1.1,0.6-1.1,1.2c0,1.9,8.1,5.2,8.2,5.2c4.7,1.8,12.5,4.1,23.5,4.1
		c21.1,0,30.9-7.9,31.3-8.3c0.4-0.3,0.5-0.9,0.4-1.4c-0.2-0.5-0.6-0.9-1.1-0.9h-15.1C165.7,55.1,167.7,52.2,169.2,48.7z M181.7,35
		c-0.5,6.3-5.2,10.8-11.5,11.2c1.2-3.3,1.9-7.1,2.3-11.2C172.5,35,181.7,35,181.7,35z M147.7,65.5c-13.4,0-22-3.3-26.4-5.5h14.4
		h23.9H174C169.5,62.3,160.8,65.5,147.7,65.5z M136.1,57.5c-6.9-4.7-10.8-14-11-26.2h13.6v2.5h-2.3c-0.6,0-1.1,0.6-1.1,1.2v9.4
		c0,0.7,0.5,1.2,1.1,1.2h6.8c0.6,0,1.1-0.6,1.1-1.2V35c0-0.7-0.5-1.2-1.1-1.2h-2.3v-2.5h29.5c-0.2,12.2-4.1,21.5-11,26.2H136.1z
		 M142.1,36.2v6.9h-4.5v-6.9H142.1z"/>
</g>
<g>
	<g>
		<path class="st0" d="M140.5,115.4c2.6,0.1,4.9-1.1,6.3-3c0.2,0,0.3,0,0.5-0.1c0.6-0.2,1.3-0.4,1.9-0.7c-0.1,0.5-0.2,1.1-0.4,1.6
			c-0.3,1.1-0.3,2.1-0.1,3.1c-1.7,8.1-3.8,16.2-6.1,24.1c-1.5,5.2,6.7,7.4,8.2,2.2c2-6.8,3.7-13.7,5.3-20.6c0.1,0,0.2,0,0.4,0
			c4,5.6,6,12,4.9,19c-0.8,5.3,7.4,7.5,8.2,2.2c1.6-10-1-18.8-6.8-26.7c0.9-4.1,1.6-8.1,2-12.2c3.4,2.4,7.2,4.3,11.5,5.7
			c5.2,1.7,7.5-6.4,2.3-8c-5.2-1.7-9.9-4.5-13.6-8.5c-1.7-6.1-11.4-6.3-13.7-0.5c-0.2,0-0.3-0.1-0.5-0.1c-1.8-0.4-3.6-0.3-5.3,0.1
			c-1-0.7-2.3-1.1-3.5-1.2c-4-0.2-7.3,2.8-7.6,6.7c-0.3,3.2-0.5,6.3-0.8,9.5C133.3,111.7,136.6,115.1,140.5,115.4z M148.2,107.4
			c0.2-2.7,0.4-5.5,0.7-8.2c0.1-0.8,0-1.7-0.3-2.4c0.8,0,1.5,0.2,2.2,0.5c-0.1,3-0.3,5.9-0.7,8.8C149.6,106.6,148.9,107,148.2,107.4
			z"/>
		<ellipse class="st0" cx="161.9" cy="80.2" rx="7.2" ry="7.1"/>
	</g>
</g>
<g>
	<g>
		<g>
			<path class="st0" d="M199,32c-2.2,0-4,1.8-4,4c0,2.2,1.8,4,4,4c2.2,0,4-1.8,4-4C203,33.8,201.2,32,199,32z M199,38
				c-1.1,0-2-0.9-2-2c0-1.1,0.9-2,2-2c1.1,0,2,0.9,2,2C201,37.1,200.1,38,199,38z"/>
			<path class="st0" d="M229.6,48c-1.7,0-3.2,1.1-3.8,2.6c-0.8,2.1,0.3,4.4,2.4,5.1c0.4,0.2,0.9,0.2,1.4,0.2c1.7,0,3.2-1.1,3.8-2.6
				c0.8-2.1-0.3-4.4-2.4-5.1C230.5,48.1,230,48,229.6,48z M231.4,52.7c-0.4,1-1.5,1.6-2.6,1.2c-1-0.4-1.6-1.5-1.2-2.6
				c0.3-0.8,1-1.3,1.9-1.3c0.2,0,0.5,0,0.7,0.1C231.3,50.5,231.8,51.7,231.4,52.7z"/>
			<path class="st0" d="M235,41c1.7,0,3.2-1.1,3.8-2.6c0.8-2.1-0.3-4.4-2.4-5.1c-0.4-0.2-0.9-0.2-1.4-0.2c-1.7,0-3.2,1.1-3.8,2.6
				c-0.8,2.1,0.3,4.4,2.4,5.1C234.1,40.9,234.6,41,235,41z M233.1,36.3c0.3-0.8,1-1.3,1.9-1.3c0.2,0,0.5,0,0.7,0.1
				c1,0.4,1.6,1.5,1.2,2.6c-0.4,1-1.5,1.6-2.6,1.2C233.3,38.5,232.8,37.3,233.1,36.3z"/>
			<path class="st0" d="M229,41V11c0-2.8-2.2-5-5-5h-30c-2.8,0-5,2.2-5,5v30c0,2.8,2.2,5,5,5h30C226.8,46,229,43.8,229,41z M191,41
				V11c0-1.7,1.3-3,3-3h30c1.7,0,3,1.3,3,3v30c0,1.7-1.3,3-3,3h-30C192.3,44,191,42.7,191,41z"/>
			<path class="st0" d="M199,12c-2.2,0-4,1.8-4,4c0,2.2,1.8,4,4,4c2.2,0,4-1.8,4-4C203,13.8,201.2,12,199,12z M199,18
				c-1.1,0-2-0.9-2-2c0-1.1,0.9-2,2-2c1.1,0,2,0.9,2,2C201,17.1,200.1,18,199,18z"/>
			<path class="st0" d="M245.7,28.1l-14.4-5.2c-0.5-0.2-1.1,0.1-1.3,0.6c-0.2,0.5,0.1,1.1,0.6,1.3L245,30c1.6,0.6,2.4,2.3,1.8,3.8
				L236.6,62c-0.6,1.6-2.3,2.4-3.8,1.8l-28.2-10.3c-1.6-0.6-2.4-2.3-1.8-3.8l0.5-1.3c0.2-0.5-0.1-1.1-0.6-1.3
				c-0.5-0.2-1.1,0.1-1.3,0.6l-0.5,1.3c-0.9,2.6,0.4,5.5,3,6.4L232,65.7c0.6,0.2,1.1,0.3,1.7,0.3c2,0,4-1.3,4.7-3.3l10.3-28.2
				C249.6,31.9,248.3,29.1,245.7,28.1z"/>
			<path class="st0" d="M216.3,47.5c-0.5,0.9-1.5,1.3-2.4,0.9c-0.6-0.2-0.9-0.6-1.1-0.9c-0.3-0.5-0.9-0.7-1.4-0.4
				c-0.5,0.3-0.7,0.9-0.4,1.4c0.5,0.9,1.2,1.5,2.1,1.8c0.5,0.2,0.9,0.2,1.4,0.2c1.4,0,2.8-0.8,3.5-2.1c0.3-0.5,0.1-1.1-0.4-1.4
				C217.1,46.9,216.5,47,216.3,47.5z"/>
			<path class="st0" d="M209,22c-2.2,0-4,1.8-4,4c0,2.2,1.8,4,4,4s4-1.8,4-4C213,23.8,211.2,22,209,22z M209,28c-1.1,0-2-0.9-2-2
				c0-1.1,0.9-2,2-2c1.1,0,2,0.9,2,2C211,27.1,210.1,28,209,28z"/>
			<path class="st0" d="M219,32c-2.2,0-4,1.8-4,4c0,2.2,1.8,4,4,4c2.2,0,4-1.8,4-4C223,33.8,221.2,32,219,32z M219,38
				c-1.1,0-2-0.9-2-2c0-1.1,0.9-2,2-2c1.1,0,2,0.9,2,2C221,37.1,220.1,38,219,38z"/>
			<path class="st0" d="M219,12c-2.2,0-4,1.8-4,4c0,2.2,1.8,4,4,4c2.2,0,4-1.8,4-4C223,13.8,221.2,12,219,12z M219,18
				c-1.1,0-2-0.9-2-2c0-1.1,0.9-2,2-2c1.1,0,2,0.9,2,2C221,17.1,220.1,18,219,18z"/>
		</g>
	</g>
</g>
<path class="st0" d="M237,85.5H202c-6.9,0-12.5,5.5-12.5,12.3v17.3c0,6.8,5.6,12.3,12.5,12.3H237c6.9,0,12.5-5.5,12.5-12.3V97.8
	C249.5,91,243.9,85.5,237,85.5z M228.6,107.3l-16.4,7.7c-0.4,0.2-0.9-0.1-0.9-0.6v-16c0-0.5,0.5-0.8,1-0.6l16.4,8.2
	C229.1,106.4,229.1,107.1,228.6,107.3z"/>
</svg>
