<?xml version="1.0" encoding="utf-8"?>
<!-- Generator: Adobe Illustrator 22.0.1, SVG Export Plug-In . SVG Version: 6.00 Build 0)  -->
<svg version="1.1" id="Capa_1" xmlns="http://www.w3.org/2000/svg" xmlns:xlink="http://www.w3.org/1999/xlink" x="0px" y="0px"
	 viewBox="0 0 68 68" style="enable-background:new 0 0 68 68;" xml:space="preserve">
<style type="text/css">
	.st0{fill:#407471;}
</style>
<g>
	<path class="st0" d="M16.9,19c0,1.5,0.5,3,1.5,4.1c0.2,0.2,0.5,0.4,0.8,0.4c0.3,0,0.6-0.1,0.8-0.4c0.4-0.5,0.4-1.3,0-1.8
		c-0.6-0.6-0.9-1.4-0.9-2.3c0-0.9,0.3-1.7,0.9-2.3c1-1.1,1.5-2.5,1.5-4.1S21,9.6,20,8.5c-0.4-0.5-1.2-0.5-1.6,0
		C18,9,18,9.8,18.4,10.3c0.6,0.6,0.9,1.4,0.9,2.3c0,0.9-0.3,1.7-0.9,2.3C17.4,16,16.9,17.4,16.9,19z"/>
	<path class="st0" d="M41.8,19c0,1.5,0.5,3,1.5,4.1c0.2,0.2,0.5,0.4,0.8,0.4c0.3,0,0.6-0.1,0.8-0.4c0.4-0.5,0.4-1.3,0-1.8
		c-0.6-0.6-0.9-1.4-0.9-2.3c0-0.9,0.3-1.7,0.9-2.3c1-1.1,1.5-2.5,1.5-4.1s-0.5-3-1.5-4.1c-0.4-0.5-1.2-0.5-1.6,0
		c-0.4,0.5-0.4,1.3,0,1.8c0.6,0.6,0.9,1.4,0.9,2.3c0,0.9-0.3,1.7-0.9,2.3C42.3,16,41.8,17.4,41.8,19z"/>
	<path class="st0" d="M28.9,14.1c0,2,0.7,3.8,1.9,5.2c0.2,0.2,0.5,0.4,0.8,0.4s0.6-0.1,0.8-0.4c0.4-0.5,0.4-1.3,0-1.8
		c-0.8-0.9-1.3-2.1-1.3-3.4s0.5-2.5,1.3-3.4c1.3-1.4,1.9-3.2,1.9-5.2s-0.7-3.8-1.9-5.2c-0.4-0.5-1.2-0.5-1.6,0s-0.4,1.3,0,1.8
		c0.8,0.9,1.3,2.1,1.3,3.4c0,1.3-0.5,2.5-1.3,3.4C29.5,10.3,28.9,12.2,28.9,14.1z"/>
	<path class="st0" d="M53.2,48.7C53.2,48.7,53.2,48.7,53.2,48.7c8.5,0,14.8-6.4,14.8-15c0-0.7-0.5-1.2-1.1-1.2H56.6
		c0-0.8,0-1.7,0-2.5c0-0.7-0.5-1.2-1.1-1.2H24.9v-1.2c0-0.7-0.5-1.2-1.1-1.2c-0.6,0-1.1,0.6-1.1,1.2v1.2H7.9c-0.6,0-1.1,0.6-1.1,1.2
		c0,12.1,3.3,21.7,9.5,27.5H1.1C0.5,57.5,0,58,0,58.7c0,1.9,8.1,5.2,8.2,5.2c4.7,1.8,12.5,4.1,23.5,4.1c21.1,0,30.9-7.9,31.3-8.3
		c0.4-0.3,0.5-0.9,0.4-1.4c-0.2-0.5-0.6-0.9-1.1-0.9H47.2C49.7,55.1,51.7,52.2,53.2,48.7z M65.7,35c-0.5,6.3-5.2,10.8-11.5,11.2
		c1.2-3.3,1.9-7.1,2.3-11.2C56.5,35,65.7,35,65.7,35z M31.7,65.5c-13.4,0-22-3.3-26.4-5.5h14.4h23.9H58
		C53.5,62.3,44.8,65.5,31.7,65.5z M20.1,57.5c-6.9-4.7-10.8-14-11-26.2h13.6v2.5h-2.3c-0.6,0-1.1,0.6-1.1,1.2v9.4
		c0,0.7,0.5,1.2,1.1,1.2h6.8c0.6,0,1.1-0.6,1.1-1.2V35c0-0.7-0.5-1.2-1.1-1.2h-2.3v-2.5h29.5c-0.2,12.2-4.1,21.5-11,26.2H20.1z
		 M26.1,36.2v6.9h-4.5v-6.9H26.1z"/>
</g>
</svg>
