<?xml version="1.0" encoding="utf-8"?>
<!-- Generator: Adobe Illustrator 22.0.1, SVG Export Plug-In . SVG Version: 6.00 Build 0)  -->
<svg version="1.1" id="Слой_1" xmlns="http://www.w3.org/2000/svg" xmlns:xlink="http://www.w3.org/1999/xlink" x="0px" y="0px"
	 viewBox="0 0 32 32" style="enable-background:new 0 0 32 32;" xml:space="preserve">
<style type="text/css">
	.st0{fill:#07568C;}
</style>
<g>
	<g>
		<path class="st0" d="M16,1.6c7.9,0,14.4,6.5,14.4,14.4S23.9,30.4,16,30.4S1.6,23.9,1.6,16S8.1,1.6,16,1.6 M16,0C7.1,0,0,7.1,0,16
			s7.1,16,16,16s16-7.1,16-16S24.9,0,16,0L16,0z"/>
	</g>
	<path class="st0" d="M10,8.5H22c1.2,0,2,1,2,2v11.9c0,1.2-1,2-2,2H10c-1.2,0-2-1-2-2V10.6C8,9.5,8.9,8.5,10,8.5L10,8.5z M19.6,10.3
		c-0.4,0-0.7,0.3-0.7,0.7v1.7c0,0.4,0.3,0.7,0.7,0.7h1.8c0.4,0,0.7-0.3,0.7-0.7v-1.7c0-0.4-0.3-0.7-0.7-0.7H19.6L19.6,10.3z
		 M22.2,15.3h-1.4c0.1,0.4,0.2,0.9,0.2,1.4c0,2.7-2.2,4.8-5,4.8s-5-2.1-5-4.8c0-0.5,0.1-1,0.2-1.4H9.7v6.8c0,0.3,0.3,0.6,0.6,0.6
		h11.2c0.3,0,0.6-0.3,0.6-0.6L22.2,15.3L22.2,15.3z M16,13.3c-1.8,0-3.2,1.4-3.2,3.1s1.5,3.1,3.2,3.1c1.8,0,3.2-1.4,3.2-3.1
		C19.2,14.8,17.8,13.3,16,13.3z"/>
</g>
</svg>
