<?xml version="1.0" encoding="utf-8"?>
<!-- Generator: Adobe Illustrator 22.0.1, SVG Export Plug-In . SVG Version: 6.00 Build 0)  -->
<svg version="1.1" id="Слой_1" xmlns="http://www.w3.org/2000/svg" xmlns:xlink="http://www.w3.org/1999/xlink" x="0px" y="0px"
	 viewBox="0 0 98 100" style="enable-background:new 0 0 98 100;" xml:space="preserve">
<style type="text/css">
	.st0{fill:#FFFFFF;}
</style>
<path class="st0" d="M19.2,23.1h-8.9c-0.9,0-1.6,0.7-1.6,1.6c0,0.9,0.7,1.6,1.6,1.6h8.9c0.9,0,1.6-0.7,1.6-1.6
	C20.9,23.8,20.1,23.1,19.2,23.1z"/>
<path class="st0" d="M39.2,26.3h8.9c0.9,0,1.6-0.7,1.6-1.6c0-0.9-0.7-1.6-1.6-1.6h-8.9c-0.9,0-1.6,0.7-1.6,1.6
	C37.5,25.6,38.3,26.3,39.2,26.3z"/>
<path class="st0" d="M33.7,23.1h-8.9c-0.9,0-1.6,0.7-1.6,1.6c0,0.9,0.7,1.6,1.6,1.6h8.9c0.9,0,1.6-0.7,1.6-1.6
	C35.3,23.8,34.6,23.1,33.7,23.1z"/>
<path class="st0" d="M19.2,35.4h-8.9c-0.9,0-1.6,0.7-1.6,1.6c0,0.9,0.7,1.6,1.6,1.6h8.9c0.9,0,1.6-0.7,1.6-1.6
	C20.9,36.2,20.1,35.4,19.2,35.4z"/>
<path class="st0" d="M39.2,38.7h8.9c0.9,0,1.6-0.7,1.6-1.6c0-0.9-0.7-1.6-1.6-1.6h-8.9c-0.9,0-1.6,0.7-1.6,1.6
	C37.5,38,38.3,38.7,39.2,38.7z"/>
<path class="st0" d="M33.7,35.4h-8.9c-0.9,0-1.6,0.7-1.6,1.6c0,0.9,0.7,1.6,1.6,1.6h8.9c0.9,0,1.6-0.7,1.6-1.6
	C35.3,36.2,34.6,35.4,33.7,35.4z"/>
<path class="st0" d="M19.2,47.8h-8.9c-0.9,0-1.6,0.7-1.6,1.6c0,0.9,0.7,1.6,1.6,1.6h8.9c0.9,0,1.6-0.7,1.6-1.6
	C20.9,48.5,20.1,47.8,19.2,47.8z"/>
<path class="st0" d="M39.2,51h8.9c0.9,0,1.6-0.7,1.6-1.6c0-0.9-0.7-1.6-1.6-1.6h-8.9c-0.9,0-1.6,0.7-1.6,1.6
	C37.5,50.3,38.3,51,39.2,51z"/>
<path class="st0" d="M33.7,47.8h-8.9c-0.9,0-1.6,0.7-1.6,1.6c0,0.9,0.7,1.6,1.6,1.6h8.9c0.9,0,1.6-0.7,1.6-1.6
	C35.3,48.5,34.6,47.8,33.7,47.8z"/>
<path class="st0" d="M19.2,60.1h-8.9c-0.9,0-1.6,0.7-1.6,1.6s0.7,1.6,1.6,1.6h8.9c0.9,0,1.6-0.7,1.6-1.6S20.1,60.1,19.2,60.1z"/>
<path class="st0" d="M33.7,60.1h-8.9c-0.9,0-1.6,0.7-1.6,1.6s0.7,1.6,1.6,1.6h8.9c0.9,0,1.6-0.7,1.6-1.6S34.6,60.1,33.7,60.1z"/>
<path class="st0" d="M71,46.1c-3.6,0-7.2,0.7-10.5,2.1V13.1c0-0.9-0.8-1.5-1.7-1.5h-6.1V1.7C52.7,0.8,51.9,0,51,0H9.4
	C8.5,0,7.8,0.8,7.8,1.7v9.9H1.7c-0.4,0-0.8,0.1-1.1,0.4c-0.3,0.3-0.5,0.7-0.4,1.1v81.1c0,0.4,0.1,0.8,0.4,1.1
	c0.3,0.3,0.7,0.5,1.1,0.5h54.8c4.3,2.7,9.4,4.2,14.5,4.2c15,0,27.1-12.1,27.1-26.9S85.9,46.1,71,46.1z M11.1,3.2h38.4v8.3H11.1V3.2z
	 M39.5,92.6H20.1V72.1h19.4V92.6z M42.7,92.6v-22c0-0.9-0.7-1.6-1.6-1.7H18.4c-0.4,0-0.8,0.2-1.1,0.5c-0.3,0.3-0.5,0.7-0.4,1.2v22
	H3.4V14.8h53.9v35.1c-4.2,2.4-7.7,6-10,10.3h-8c-0.9,0-1.6,0.7-1.6,1.6s0.7,1.6,1.6,1.6h6.5c-4,10.1-1.4,21.7,6.6,29.2H42.7z
	 M70.9,96.8c-13.2,0-23.9-10.6-23.9-23.7s10.7-23.7,23.9-23.7S94.8,60,94.8,73.1C94.8,86.2,84.1,96.8,70.9,96.8z"/>
<path class="st0" d="M86.2,61.6L71.7,57c-0.3-0.1-0.7-0.1-1,0l-14.5,4.6c-0.7,0.2-1.1,0.8-1.1,1.5v19.6c0,0.7,0.4,1.3,1.1,1.5
	L70.7,89c0.2,0.1,0.3,0.1,0.5,0.1c0.2,0,0.3,0,0.5-0.1l14.5-4.6c0.7-0.2,1.1-0.8,1.2-1.5V63.2C87.4,62.5,86.9,61.8,86.2,61.6z
	 M71.2,60.2l9.2,2.9l-9.2,2.9L62,63.2L71.2,60.2z M58.4,65.4l11,3.6v16.2l-11-3.6V65.4z M72.7,85.3V69l11.4-3.6v16.2L72.7,85.3z"/>
</svg>
