<?xml version="1.0" encoding="utf-8"?>
<!-- Generator: Adobe Illustrator 22.0.1, SVG Export Plug-In . SVG Version: 6.00 Build 0)  -->
<svg version="1.1" id="Layer_1" xmlns="http://www.w3.org/2000/svg" xmlns:xlink="http://www.w3.org/1999/xlink" x="0px" y="0px"
	 viewBox="0 0 100 82" style="enable-background:new 0 0 100 82;" xml:space="preserve">
<style type="text/css">
	.st0{fill:#2D81B7;}
</style>
<g transform="translate(1 1)">
	<g>
		<g>
			<path class="st0" d="M52.3,55.9H79c1,0,1.7-0.7,1.7-1.7v-15c0-1-0.7-1.7-1.7-1.7H52.3c-1,0-1.7,0.7-1.7,1.7v15.1
				C50.7,55.2,51.3,55.9,52.3,55.9z M54,40.8h23.3v11.7H54V40.8z"/>
			<path class="st0" d="M7.3,34.1h13.3c1,0,1.7-0.7,1.7-1.7s-0.7-1.7-1.7-1.7H7.3c-1,0-1.7,0.7-1.7,1.7S6.3,34.1,7.3,34.1z"/>
			<path class="st0" d="M27.3,34.1h13.3c1,0,1.7-0.7,1.7-1.7s-0.7-1.7-1.7-1.7H27.3c-1,0-1.7,0.7-1.7,1.7S26.3,34.1,27.3,34.1z"/>
			<path class="st0" d="M7.3,40.8H29c1,0,1.7-0.7,1.7-1.7S30,37.5,29,37.5H7.3c-1,0-1.7,0.7-1.7,1.7S6.3,40.8,7.3,40.8z"/>
			<path class="st0" d="M40.7,37.5h-5c-1,0-1.7,0.7-1.7,1.7s0.7,1.7,1.7,1.7h5c1,0,1.7-0.7,1.7-1.7C42.3,38.2,41.7,37.5,40.7,37.5z"
				/>
			<path class="st0" d="M97.5,16.7c-1.2-1.5-2.7-2.3-4.5-2.5l-4-0.5V9V5.7C89,2,86-1,82.3-1H5.7C2-1-1,2-1,5.7V9v13.4v36.8
				c0,3,2,5.6,4.8,6.4C3.7,69,6.2,72,9.7,72.3l77,8.7c0.2,0,0.5,0,0.7,0c3.3,0,6.3-2.5,6.7-5.7l5-53.7
				C99.1,19.9,98.6,18.1,97.5,16.7z M2.3,10.7h83.3v4.4v5.7H2.3V10.7z M5.7,2.3h76.6c1.8,0,3.3,1.5,3.3,3.3v1.7H2.3V5.7
				C2.3,3.9,3.8,2.3,5.7,2.3z M2.3,59.2V24.1h83.3v35.1c0,1.8-1.5,3.3-3.3,3.3H5.8H5.7C3.8,62.6,2.3,61.1,2.3,59.2z M95.6,20.9
				l-5,53.7c-0.2,1.8-1.8,3.2-3.7,3L10.2,69c-1.7-0.2-2.8-1.5-3-3h75.1c3.7,0,6.7-3,6.7-6.7V22.4v-5.5l3.8,0.3
				c0.8,0,1.7,0.5,2.2,1.2C95.5,19.1,95.8,20.1,95.6,20.9z"/>
		</g>
	</g>
</g>
</svg>
