<?xml version="1.0" encoding="utf-8"?>
<!-- Generator: Adobe Illustrator 22.0.1, SVG Export Plug-In . SVG Version: 6.00 Build 0)  -->
<svg version="1.1" id="Слой_1" xmlns="http://www.w3.org/2000/svg" xmlns:xlink="http://www.w3.org/1999/xlink" x="0px" y="0px"
	 viewBox="0 0 100 66" style="enable-background:new 0 0 100 66;" xml:space="preserve">
<style type="text/css">
	.st0{fill:#04345B;}
</style>
<path class="st0" d="M63.9,27.8H1.6c-0.9,0-1.6,0.7-1.6,1.7v35.1c0,0.9,0.7,1.7,1.6,1.7h62.3c0.9,0,1.6-0.7,1.6-1.7V29.4
	C65.6,28.5,64.8,27.8,63.9,27.8z M62.3,62.8h-59V31.1h59V62.8z"/>
<path class="st0" d="M13.1,46.1c3.6,0,6.6-3,6.6-6.7c0-3.7-2.9-6.7-6.6-6.7s-6.6,3-6.6,6.7C6.6,43.1,9.5,46.1,13.1,46.1z M13.1,36.1
	c1.8,0,3.3,1.5,3.3,3.3c0,1.8-1.5,3.3-3.3,3.3s-3.3-1.5-3.3-3.3C9.8,37.6,11.3,36.1,13.1,36.1z"/>
<path class="st0" d="M13.1,61.2c3.6,0,6.6-3,6.6-6.7c0-3.7-2.9-6.7-6.6-6.7s-6.6,3-6.6,6.7C6.6,58.2,9.5,61.2,13.1,61.2z M13.1,51.1
	c1.8,0,3.3,1.5,3.3,3.3c0,1.8-1.5,3.3-3.3,3.3s-3.3-1.5-3.3-3.3C9.8,52.6,11.3,51.1,13.1,51.1z"/>
<path class="st0" d="M32.8,46.1c3.6,0,6.6-3,6.6-6.7c0-3.7-2.9-6.7-6.6-6.7s-6.6,3-6.6,6.7C26.2,43.1,29.2,46.1,32.8,46.1z
	 M32.8,36.1c1.8,0,3.3,1.5,3.3,3.3c0,1.8-1.5,3.3-3.3,3.3s-3.3-1.5-3.3-3.3C29.5,37.6,31,36.1,32.8,36.1z"/>
<path class="st0" d="M32.8,61.2c3.6,0,6.6-3,6.6-6.7c0-3.7-2.9-6.7-6.6-6.7s-6.6,3-6.6,6.7C26.2,58.2,29.2,61.2,32.8,61.2z
	 M32.8,51.1c1.8,0,3.3,1.5,3.3,3.3c0,1.8-1.5,3.3-3.3,3.3s-3.3-1.5-3.3-3.3C29.5,52.6,31,51.1,32.8,51.1z"/>
<path class="st0" d="M52.4,46.1c3.6,0,6.6-3,6.6-6.7c0-3.7-2.9-6.7-6.6-6.7c-3.6,0-6.6,3-6.6,6.7C45.9,43.1,48.8,46.1,52.4,46.1z
	 M52.4,36.1c1.8,0,3.3,1.5,3.3,3.3c0,1.8-1.5,3.3-3.3,3.3s-3.3-1.5-3.3-3.3C49.2,37.6,50.6,36.1,52.4,36.1z"/>
<path class="st0" d="M52.4,61.2c3.6,0,6.6-3,6.6-6.7c0-3.7-2.9-6.7-6.6-6.7c-3.6,0-6.6,3-6.6,6.7C45.9,58.2,48.8,61.2,52.4,61.2z
	 M52.4,51.1c1.8,0,3.3,1.5,3.3,3.3c0,1.8-1.5,3.3-3.3,3.3s-3.3-1.5-3.3-3.3C49.2,52.6,50.6,51.1,52.4,51.1z"/>
<path class="st0" d="M99.8,49.5l-4.4-8.9c-0.4-0.8-1.4-1.2-2.2-0.7l-2.9,1.5l-2.9-6l2.9-1.5c0.8-0.4,1.1-1.4,0.7-2.2l-4.4-8.9
	c-0.4-0.8-1.4-1.2-2.2-0.7l-2.9,1.5l-3-6l2.9-1.5c0.8-0.4,1.1-1.4,0.7-2.2l-4.4-8.9C77.3,4,76.3,3.6,75.5,4l-2.9,1.5l-2.2-4.5
	c-0.4-0.8-1.4-1.2-2.2-0.7l-11.7,6c-0.8,0.4-1.1,1.4-0.7,2.2l28.1,56.6c0.4,0.8,1.4,1.2,2.2,0.7l11.7-6c0.8-0.4,1.1-1.4,0.7-2.2
	l-2.2-4.5l2.9-1.5c0.4-0.2,0.7-0.5,0.8-1C100.1,50.3,100,49.9,99.8,49.5z M84.3,25.7l2.9,6l-1.5,0.8l-2.9-6L84.3,25.7z M75.5,7.8
	l2.9,6l-1.5,0.8l-3-6L75.5,7.8z M85.9,62.2L59.3,8.6l8.8-4.5l26.6,53.6L85.9,62.2z M91.7,44.3l1.5-0.8l2.9,6l-1.5,0.8L91.7,44.3z"/>
</svg>
