<?xml version="1.0" encoding="utf-8"?>
<!-- Generator: Adobe Illustrator 22.0.1, SVG Export Plug-In . SVG Version: 6.00 Build 0)  -->
<svg version="1.1" id="Capa_1" xmlns="http://www.w3.org/2000/svg" xmlns:xlink="http://www.w3.org/1999/xlink" x="0px" y="0px"
	 viewBox="0 0 75 75" style="enable-background:new 0 0 75 75;" xml:space="preserve">
<style type="text/css">
	.st0{fill:#04345B;}
</style>
<g>
	<path class="st0" d="M19.6,49.9c-1.1-0.9-2.4-1.5-3.8-1.5c-1.9,0-3.6,0.9-4.7,2.5c-1,1.4-1.5,3.2-1.3,4.9c0.2,1.8,1,3.4,2.3,4.5
		c1.1,0.9,2.4,1.5,3.8,1.5c1.9,0,3.6-0.9,4.7-2.5c1-1.4,1.5-3.2,1.3-4.9C21.6,52.7,20.8,51.1,19.6,49.9z M18.4,57.5
		c-0.6,0.9-1.6,1.4-2.6,1.4c-0.8,0-1.5-0.3-2.1-0.8c-0.7-0.6-1.1-1.5-1.2-2.4c-0.1-1,0.2-1.9,0.7-2.7c0.6-0.9,1.6-1.4,2.6-1.4
		c0.8,0,1.5,0.3,2.1,0.8c0.7,0.6,1.1,1.5,1.2,2.4C19.2,55.8,18.9,56.7,18.4,57.5z"/>
	<path class="st0" d="M43.9,34.2c0.9,0,1.8-0.2,2.6-0.7c1.5-0.8,2.6-2.1,3.1-3.9c0.5-1.7,0.4-3.5-0.3-5.1c-1-2.3-3.2-3.8-5.5-3.8
		c-0.9,0-1.8,0.2-2.6,0.7c-1.5,0.8-2.6,2.1-3.1,3.8c-0.5,1.7-0.4,3.5,0.3,5.1C39.4,32.7,41.6,34.2,43.9,34.2z M40.8,26.2
		c0.3-0.9,0.9-1.7,1.7-2.1c0.5-0.2,0.9-0.4,1.4-0.4c1.3,0,2.4,0.8,3,2.1c0.4,0.9,0.4,1.8,0.1,2.8c-0.3,0.9-0.9,1.7-1.7,2.1
		c-0.5,0.2-0.9,0.4-1.4,0.4c-1.3,0-2.4-0.8-3-2.1C40.5,28.1,40.5,27.2,40.8,26.2z"/>
	<path class="st0" d="M28.9,23.3c0.4,0.1,0.9,0.2,1.4,0.2c2.9,0,5.3-2.1,5.9-5.2c0.4-1.7,0.1-3.5-0.8-5.1c-0.9-1.5-2.2-2.6-3.8-3
		c-0.4-0.1-0.9-0.2-1.4-0.2c-2.8,0-5.3,2.1-5.9,5.2c-0.4,1.7-0.1,3.5,0.8,5.1C25.9,21.8,27.3,22.9,28.9,23.3z M27,15.9
		c0.3-1.7,1.7-2.8,3.2-2.8c0.2,0,0.5,0,0.7,0.1c0.9,0.2,1.6,0.8,2.1,1.6c0.5,0.8,0.6,1.8,0.4,2.7c-0.3,1.6-1.7,2.8-3.2,2.8
		c-0.2,0-0.5,0-0.7-0.1c-0.9-0.2-1.6-0.8-2.1-1.6C26.9,17.8,26.8,16.8,27,15.9z"/>
	<path class="st0" d="M17.8,27.1c1.3-1.1,2.1-2.7,2.3-4.5c0.2-1.8-0.3-3.5-1.3-4.9c-1.2-1.6-2.9-2.5-4.8-2.5c-1.4,0-2.7,0.5-3.8,1.5
		C9,17.7,8.2,19.3,8,21.1c-0.2,1.8,0.3,3.5,1.3,4.9c1.2,1.6,2.9,2.5,4.8,2.5C15.4,28.6,16.8,28,17.8,27.1z M11.5,24.1
		c-0.5-0.8-0.8-1.7-0.7-2.7c0.1-1,0.5-1.8,1.2-2.4c0.6-0.5,1.3-0.8,2.1-0.8c1,0,2,0.5,2.6,1.4c0.5,0.8,0.8,1.7,0.7,2.7
		c-0.1,1-0.5,1.8-1.2,2.4c-0.6,0.5-1.3,0.8-2.1,0.8C13.1,25.5,12.1,25,11.5,24.1z"/>
	<path class="st0" d="M74.5,12c-0.2-0.3-0.7-0.6-1.3-0.6c-0.8,0-2.9,0-15.6,12.1c-0.3,0.2-0.5,0.5-0.8,0.7
		c-2.3-6.6-6.3-12.5-11.4-16.8C39.4,2.6,32.3,0,24.9,0c0,0,0,0,0,0c-5,0-11.1,1.9-15.9,5.1C3.2,8.9,0,14,0,19.5
		c0,6.6,3.4,9.4,6,11.6c2.2,1.8,3.9,3.2,3.9,6.4c0,3.1-1.7,4.6-3.9,6.4c-2.7,2.2-6,5-6,11.6C0,61,3.2,66.1,9.1,69.9
		C13.9,73.1,20,75,25,75c0,0,0,0,0,0c9.1,0,17.6-3.9,24-11c6.3-7,9.9-16.2,9.9-26.1c2.1-2.7,4.2-5.4,6.1-8c3.3-4.4,5.8-8,7.4-10.7
		C74.7,15.6,75.7,13.4,74.5,12z M47,61.8C41.1,68.3,33.3,71.9,25,71.9c0,0,0,0,0,0C16,71.9,2.8,65,2.8,55.5c0-5.1,2.4-7,4.9-9.1
		c2.4-2,5-4.2,5-8.9c0-4.7-2.7-6.9-5-8.9c-2.5-2.1-4.9-4.1-4.9-9.1c0-5.9,4.8-9.9,7.7-11.8c4.3-2.8,10-4.6,14.4-4.6c0,0,0,0,0,0
		c6.8,0,13.3,2.4,18.7,6.9c5,4.1,8.8,10,10.8,16.4c-6,5.8-12.5,12.6-17.4,18c-8,1.2-9.1,7.1-9.9,11.5c-0.7,3.7-1.1,5.5-3.7,5.8
		c-0.6,0.1-1.2,0.6-1.3,1.3c-0.1,0.7,0.2,1.4,0.8,1.7c0.2,0.1,4.1,1.9,8.7,1.9c0,0,0,0,0,0c3.2,0,6-0.9,8.2-2.6
		c2.7-2.1,4.6-5.5,5.5-10c3.2-3.6,6.8-7.9,10.4-12.3C55.1,49.3,52,56.3,47,61.8z M42.8,53.7c-1.5,6.5-5.2,9.8-11,9.8c0,0,0,0,0,0
		c-1.5,0-3-0.2-4.2-0.5c1.5-1.7,1.9-4.2,2.3-6.4c0.8-4.2,1.5-8.1,7.4-9L42.8,53.7z M61.9,29.3C56.4,36.6,49.8,44.8,44.3,51L43.5,50
		l-3.7-4.2c5-5.5,11.3-12,17.3-17.8l0,0c0.7-0.7,1.4-1.3,2.1-2c6.9-6.5,10.5-9.4,12.3-10.6C70.3,17.5,67.7,21.6,61.9,29.3z"/>
</g>
</svg>
