<?xml version="1.0" encoding="utf-8"?>
<!-- Generator: Adobe Illustrator 22.0.1, SVG Export Plug-In . SVG Version: 6.00 Build 0)  -->
<svg version="1.1" id="Слой_1" xmlns="http://www.w3.org/2000/svg" xmlns:xlink="http://www.w3.org/1999/xlink" x="0px" y="0px"
	 viewBox="0 0 400 100" style="enable-background:new 0 0 400 100;" xml:space="preserve">
<style type="text/css">
	.st0{fill:#2D81B7;}
	.st1{fill:#FFFFFF;}
</style>
<g transform="translate(1 1)">
	<g>
		<g>
			<path class="st0" d="M52.3,67.9H79c1,0,1.7-0.7,1.7-1.7v-15c0-1-0.7-1.7-1.7-1.7H52.3c-1,0-1.7,0.7-1.7,1.7v15.1
				C50.7,67.2,51.3,67.9,52.3,67.9z M54,52.8h23.3v11.7H54V52.8z"/>
			<path class="st0" d="M7.3,46.1h13.3c1,0,1.7-0.7,1.7-1.7s-0.7-1.7-1.7-1.7H7.3c-1,0-1.7,0.7-1.7,1.7S6.3,46.1,7.3,46.1z"/>
			<path class="st0" d="M27.3,46.1h13.3c1,0,1.7-0.7,1.7-1.7s-0.7-1.7-1.7-1.7H27.3c-1,0-1.7,0.7-1.7,1.7S26.3,46.1,27.3,46.1z"/>
			<path class="st0" d="M7.3,52.8H29c1,0,1.7-0.7,1.7-1.7S30,49.5,29,49.5H7.3c-1,0-1.7,0.7-1.7,1.7S6.3,52.8,7.3,52.8z"/>
			<path class="st0" d="M40.7,49.5h-5c-1,0-1.7,0.7-1.7,1.7s0.7,1.7,1.7,1.7h5c1,0,1.7-0.7,1.7-1.7C42.3,50.2,41.7,49.5,40.7,49.5z"
				/>
			<path class="st0" d="M97.5,28.7c-1.2-1.5-2.7-2.3-4.5-2.5l-4-0.5V21v-3.3c0-3.7-3-6.7-6.7-6.7H5.7C2,11-1,14-1,17.7V21v13.4v36.8
				c0,3,2,5.6,4.8,6.4C3.7,81,6.2,84,9.7,84.3l77,8.7c0.2,0,0.5,0,0.7,0c3.3,0,6.3-2.5,6.7-5.7l5-53.7
				C99.1,31.9,98.6,30.1,97.5,28.7z M2.3,22.7h83.3v4.4v5.7H2.3V22.7z M5.7,14.3h76.6c1.8,0,3.3,1.5,3.3,3.3v1.7H2.3v-1.7
				C2.3,15.9,3.8,14.3,5.7,14.3z M2.3,71.2V36.1h83.3v35.1c0,1.8-1.5,3.3-3.3,3.3H5.8H5.7C3.8,74.6,2.3,73.1,2.3,71.2z M95.6,32.9
				l-5,53.7c-0.2,1.8-1.8,3.2-3.7,3L10.2,81c-1.7-0.2-2.8-1.5-3-3h75.1c3.7,0,6.7-3,6.7-6.7V34.4v-5.5l3.8,0.3
				c0.8,0,1.7,0.5,2.2,1.2C95.5,31.1,95.8,32.1,95.6,32.9z"/>
		</g>
	</g>
</g>
<g>
	<g>
		<path class="st1" d="M169.1,3.1L169.1,3.1c-0.4,0-0.8,0.3-0.8,0.8s0.4,0.8,0.8,0.8c0.4,0,0.8-0.3,0.8-0.8
			C169.9,3.5,169.6,3.1,169.1,3.1z"/>
	</g>
</g>
<g>
	<g>
		<path class="st1" d="M166,3.1L166,3.1c-0.4,0-0.8,0.3-0.8,0.8s0.4,0.8,0.8,0.8c0.4,0,0.8-0.3,0.8-0.8C166.8,3.5,166.4,3.1,166,3.1
			z"/>
	</g>
</g>
<g>
	<g>
		<path class="st1" d="M162.9,3.1L162.9,3.1c-0.4,0-0.8,0.3-0.8,0.8s0.4,0.8,0.8,0.8c0.4,0,0.8-0.3,0.8-0.8
			C163.7,3.5,163.3,3.1,162.9,3.1z"/>
	</g>
</g>
<g>
	<g>
		<path class="st1" d="M114.2,0c-0.4,0-0.8,0.3-0.8,0.8v21.9c0,0.4,0.4,0.8,0.8,0.8s0.8-0.3,0.8-0.8V0.8C115,0.3,114.6,0,114.2,0z"
			/>
	</g>
</g>
<g>
	<g>
		<path class="st1" d="M173.8,0h-59.6c-0.4,0-0.8,0.3-0.8,0.8s0.4,0.8,0.8,0.8h59.6c0.4,0,0.8-0.3,0.8-0.8S174.2,0,173.8,0z"/>
	</g>
</g>
<g>
	<g>
		<path class="st1" d="M173.8,0c-0.4,0-0.8,0.3-0.8,0.8v21.9c0,0.4,0.4,0.8,0.8,0.8c0.4,0,0.8-0.3,0.8-0.8V0.8
			C174.6,0.3,174.2,0,173.8,0z"/>
	</g>
</g>
<g>
	<g>
		<path class="st1" d="M173.8,76.6c-0.4,0-0.8,0.3-0.8,0.8v21.9c0,0.4,0.4,0.8,0.8,0.8c0.4,0,0.8-0.3,0.8-0.8v-22
			C174.6,76.9,174.2,76.6,173.8,76.6z"/>
	</g>
</g>
<g>
	<g>
		<path class="st1" d="M173.8,98.4h-59.6c-0.4,0-0.8,0.3-0.8,0.8s0.4,0.8,0.8,0.8h59.6c0.4,0,0.8-0.3,0.8-0.8
			C174.6,98.8,174.2,98.4,173.8,98.4z"/>
	</g>
</g>
<g>
	<g>
		<path class="st1" d="M114.2,76.6c-0.4,0-0.8,0.3-0.8,0.8v21.9c0,0.4,0.4,0.8,0.8,0.8s0.8-0.3,0.8-0.8v-22
			C115,76.9,114.6,76.6,114.2,76.6z"/>
	</g>
</g>
<g>
	<g>
		<path class="st1" d="M144,26.6L144,26.6c-0.4,0-0.8,0.3-0.8,0.8c0,0.4,0.4,0.8,0.8,0.8c0.4,0,0.8-0.3,0.8-0.8S144.5,26.6,144,26.6
			z"/>
	</g>
</g>
<g>
	<g>
		<path class="st1" d="M175.4,25h-62.7c-1.3,0-2.4,1.1-2.4,2.3v42.2c0,0.4,0.4,0.8,0.8,0.8H177c0.4,0,0.8-0.3,0.8-0.8V27.3
			C177.7,26.1,176.7,25,175.4,25z M176.2,68.8h-64.3V27.3c0-0.4,0.4-0.8,0.8-0.8h62.7c0.4,0,0.8,0.4,0.8,0.8V68.8L176.2,68.8z"/>
	</g>
</g>
<g>
	<g>
		<path class="st1" d="M183.2,68.8h-78.4c-0.4,0-0.8,0.3-0.8,0.8v3.1c0,1.3,1.1,2.3,2.4,2.3h75.3c1.3,0,2.4-1.1,2.4-2.3v-3.1
			C184,69.1,183.6,68.8,183.2,68.8z M182.4,72.7c0,0.4-0.4,0.8-0.8,0.8h-75.3c-0.4,0-0.8-0.4-0.8-0.8v-2.3h76.9V72.7z"/>
	</g>
</g>
<g>
	<g>
		<path class="st1" d="M173.8,28.1h-59.6c-0.4,0-0.8,0.3-0.8,0.8v37.5c0,0.4,0.4,0.8,0.8,0.8h59.6c0.4,0,0.8-0.3,0.8-0.8V28.9
			C174.6,28.5,174.2,28.1,173.8,28.1z M173,65.6h-58V29.7h58V65.6z"/>
	</g>
</g>
<g>
	<g>
		<path class="st1" d="M151.1,70.3H137c-0.4,0-0.8,0.3-0.8,0.8c0,0.4,0.4,0.8,0.8,0.8h14.1c0.4,0,0.8-0.3,0.8-0.8
			C151.8,70.7,151.5,70.3,151.1,70.3z"/>
	</g>
</g>
<g>
	<g>
		<path class="st1" d="M169.1,39.1c-1.3,0-2.4,1.1-2.4,2.3c0,1.3,1.1,2.3,2.4,2.3s2.4-1.1,2.4-2.3C171.5,40.1,170.4,39.1,169.1,39.1
			z M169.1,42.2c-0.4,0-0.8-0.4-0.8-0.8c0-0.4,0.4-0.8,0.8-0.8c0.4,0,0.8,0.4,0.8,0.8C169.9,41.8,169.5,42.2,169.1,42.2z"/>
	</g>
</g>
<g>
	<g>
		<path class="st1" d="M169.1,36.7c-0.4,0-0.8,0.3-0.8,0.8v2.3c0,0.4,0.4,0.8,0.8,0.8c0.4,0,0.8-0.3,0.8-0.8v-2.3
			C169.9,37.1,169.5,36.7,169.1,36.7z"/>
	</g>
</g>
<g>
	<g>
		<path class="st1" d="M169.1,54.7c-0.4,0-0.8,0.3-0.8,0.8v2.3c0,0.4,0.4,0.8,0.8,0.8c0.4,0,0.8-0.3,0.8-0.8v-2.3
			C169.9,55,169.5,54.7,169.1,54.7z"/>
	</g>
</g>
<g>
	<g>
		<path class="st1" d="M169.1,45.3c-1.3,0-2.4,1.1-2.4,2.3c0,1.3,1.1,2.3,2.4,2.3s2.4-1.1,2.4-2.3C171.5,46.4,170.4,45.3,169.1,45.3
			z M169.1,48.4c-0.4,0-0.8-0.4-0.8-0.8c0-0.4,0.4-0.8,0.8-0.8c0.4,0,0.8,0.4,0.8,0.8C169.9,48.1,169.5,48.4,169.1,48.4z"/>
	</g>
</g>
<g>
	<g>
		<path class="st1" d="M169.1,42.2c-0.4,0-0.8,0.3-0.8,0.8v3.1c0,0.4,0.4,0.8,0.8,0.8c0.4,0,0.8-0.3,0.8-0.8V43
			C169.9,42.5,169.5,42.2,169.1,42.2z"/>
	</g>
</g>
<g>
	<g>
		<path class="st1" d="M169.1,51.6c-1.3,0-2.4,1.1-2.4,2.3c0,1.3,1.1,2.3,2.4,2.3s2.4-1.1,2.4-2.3C171.5,52.6,170.4,51.6,169.1,51.6
			z M169.1,54.7c-0.4,0-0.8-0.4-0.8-0.8c0-0.4,0.4-0.8,0.8-0.8c0.4,0,0.8,0.4,0.8,0.8C169.9,54.3,169.5,54.7,169.1,54.7z"/>
	</g>
</g>
<g>
	<g>
		<path class="st1" d="M169.1,48.4c-0.4,0-0.8,0.3-0.8,0.8v3.1c0,0.4,0.4,0.8,0.8,0.8c0.4,0,0.8-0.3,0.8-0.8v-3.1
			C169.9,48.8,169.5,48.4,169.1,48.4z"/>
	</g>
</g>
<g>
	<g>
		<path class="st1" d="M166.6,66l-14.1-25c-0.1-0.2-0.4-0.4-0.7-0.4s-0.5,0.1-0.7,0.4l-15.7,25c-0.2,0.4-0.1,0.8,0.2,1.1
			c0.4,0.2,0.9,0.1,1.1-0.2l15-23.9l13.5,23.9c0.1,0.3,0.4,0.4,0.7,0.4c0.1,0,0.3,0,0.4-0.1C166.7,66.9,166.9,66.4,166.6,66z"/>
	</g>
</g>
<g>
	<g>
		<path class="st1" d="M141.8,58l-4.2-7.6c-0.1-0.2-0.4-0.4-0.7-0.4s-0.5,0.1-0.7,0.4L126.1,66c-0.2,0.4-0.1,0.8,0.2,1.1
			c0.1,0.1,0.3,0.1,0.4,0.1c0.3,0,0.5-0.1,0.7-0.4l9.5-14.5l3.6,6.5c0.2,0.4,0.7,0.5,1.1,0.3C141.9,58.9,142.1,58.4,141.8,58z"/>
	</g>
</g>
<g>
	<g>
		<path class="st1" d="M136.2,32.8h-17.3c-0.4,0-0.8,0.3-0.8,0.8c0,0.4,0.4,0.8,0.8,0.8h17.3c0.4,0,0.8-0.3,0.8-0.8
			C136.9,33.2,136.6,32.8,136.2,32.8z"/>
	</g>
</g>
<g>
	<g>
		<path class="st1" d="M136.2,35.9h-17.3c-0.4,0-0.8,0.3-0.8,0.8c0,0.4,0.4,0.8,0.8,0.8h17.3c0.4,0,0.8-0.3,0.8-0.8
			S136.6,35.9,136.2,35.9z"/>
	</g>
</g>
<g>
	<g>
		<path class="st1" d="M126.7,39.1h-7.8c-0.4,0-0.8,0.3-0.8,0.8c0,0.4,0.4,0.8,0.8,0.8h7.8c0.4,0,0.8-0.3,0.8-0.8
			C127.5,39.4,127.2,39.1,126.7,39.1z"/>
	</g>
</g>
<g>
	<g>
		<path class="st1" d="M121.3,43.8c-1.7,0-3.1,1.4-3.1,3.1s1.4,3.1,3.1,3.1s3.1-1.4,3.1-3.1S123,43.8,121.3,43.8z M121.3,48.4
			c-0.9,0-1.6-0.7-1.6-1.6c0-0.9,0.7-1.6,1.6-1.6s1.6,0.7,1.6,1.6C122.8,47.7,122.1,48.4,121.3,48.4z"/>
	</g>
</g>
<g>
	<g>
		<path class="st1" d="M125.2,81.2c-1.8,0-3.1,1.4-3.1,3.3s1.8,3.7,3.1,3.7c1.4,0,3.1-1.8,3.1-3.7C128.3,82.7,127,81.2,125.2,81.2z
			 M125.2,86.7c-0.4,0-1.6-1-1.6-2.2c0-1,0.6-1.8,1.6-1.8c0.9,0,1.6,0.7,1.6,1.8C126.7,85.7,125.6,86.7,125.2,86.7z"/>
	</g>
</g>
<g>
	<g>
		<path class="st1" d="M129.8,88.4c-0.9-0.2-2.1-0.5-2.5-0.7c-0.1-0.2-0.4-0.3-0.6-0.3c-0.4,0-0.8,0.3-0.8,0.8c0,0.6,0.2,1,3.5,1.7
			c0.1,0,0.1,0,0.2,0c0.4,0,0.7-0.3,0.8-0.6C130.5,88.9,130.2,88.5,129.8,88.4z"/>
	</g>
</g>
<g>
	<g>
		<path class="st1" d="M126.7,85.8c-0.4,0-0.8,0.3-0.8,0.8v1.7c0,0.4,0.4,0.8,0.8,0.8s0.8-0.3,0.8-0.8v-1.7
			C127.5,86.1,127.2,85.8,126.7,85.8z"/>
	</g>
</g>
<g>
	<g>
		<path class="st1" d="M123.6,87.5c-0.2,0-0.4,0.1-0.6,0.3c-0.4,0.2-1.5,0.5-2.5,0.7c-0.4,0.1-0.7,0.5-0.6,0.9s0.4,0.6,0.8,0.6
			c0.1,0,0.1,0,0.2,0c3.4-0.7,3.5-1.1,3.5-1.7C124.4,87.8,124,87.5,123.6,87.5z"/>
	</g>
</g>
<g>
	<g>
		<path class="st1" d="M123.6,85.8c-0.4,0-0.8,0.3-0.8,0.8v1.7c0,0.4,0.4,0.8,0.8,0.8s0.8-0.3,0.8-0.8v-1.7
			C124.4,86.1,124,85.8,123.6,85.8z"/>
	</g>
</g>
<g>
	<g>
		<path class="st1" d="M125.2,78.1c-3.9,0-7.1,3.2-7.1,7c0,3.9,3.2,7,7.1,7c3.9,0,7.1-3.2,7.1-7C132.2,81.3,129.1,78.1,125.2,78.1z
			 M125.2,90.6c-3,0-5.5-2.5-5.5-5.5s2.5-5.5,5.5-5.5s5.5,2.5,5.5,5.5C130.7,88.2,128.2,90.6,125.2,90.6z"/>
	</g>
</g>
<g>
	<g>
		<path class="st1" d="M144,81.2c-1.8,0-3.1,1.4-3.1,3.3s1.8,3.7,3.1,3.7c1.4,0,3.1-1.8,3.1-3.7C147.1,82.7,145.8,81.2,144,81.2z
			 M144,86.7c-0.4,0-1.6-1-1.6-2.2c0-1,0.6-1.8,1.6-1.8c0.9,0,1.6,0.7,1.6,1.8C145.6,85.7,144.4,86.7,144,86.7z"/>
	</g>
</g>
<g>
	<g>
		<path class="st1" d="M148.6,88.4c-1-0.2-2.1-0.5-2.5-0.7c-0.1-0.2-0.4-0.3-0.6-0.3c-0.4,0-0.8,0.3-0.8,0.8c0,0.6,0.2,1,3.5,1.7
			c0.1,0,0.1,0,0.2,0c0.4,0,0.7-0.3,0.8-0.6C149.3,88.9,149.1,88.5,148.6,88.4z"/>
	</g>
</g>
<g>
	<g>
		<path class="st1" d="M145.6,85.8c-0.4,0-0.8,0.3-0.8,0.8v1.7c0,0.4,0.4,0.8,0.8,0.8s0.8-0.3,0.8-0.8v-1.7
			C146.4,86.1,146,85.8,145.6,85.8z"/>
	</g>
</g>
<g>
	<g>
		<path class="st1" d="M142.4,87.5c-0.2,0-0.4,0.1-0.6,0.3c-0.4,0.2-1.5,0.5-2.5,0.7c-0.4,0.1-0.7,0.5-0.6,0.9
			c0.1,0.4,0.4,0.6,0.8,0.6c0.1,0,0.1,0,0.2,0c3.4-0.7,3.5-1.1,3.5-1.7C143.2,87.8,142.9,87.5,142.4,87.5z"/>
	</g>
</g>
<g>
	<g>
		<path class="st1" d="M142.4,85.8c-0.4,0-0.8,0.3-0.8,0.8v1.7c0,0.4,0.4,0.8,0.8,0.8s0.8-0.3,0.8-0.8v-1.7
			C143.2,86.1,142.9,85.8,142.4,85.8z"/>
	</g>
</g>
<g>
	<g>
		<path class="st1" d="M144,78.1c-3.9,0-7.1,3.2-7.1,7c0,3.9,3.2,7,7.1,7c3.9,0,7.1-3.2,7.1-7C151.1,81.3,147.9,78.1,144,78.1z
			 M144,90.6c-3,0-5.5-2.5-5.5-5.5s2.5-5.5,5.5-5.5s5.5,2.5,5.5,5.5C149.5,88.2,147,90.6,144,90.6z"/>
	</g>
</g>
<g>
	<g>
		<path class="st1" d="M162.8,81.2c-1.8,0-3.1,1.4-3.1,3.3s1.8,3.7,3.1,3.7c1.4,0,3.1-1.8,3.1-3.7C166,82.7,164.6,81.2,162.8,81.2z
			 M162.8,86.7c-0.4,0-1.6-1-1.6-2.2c0-1,0.6-1.8,1.6-1.8c0.9,0,1.6,0.7,1.6,1.8C164.4,85.7,163.2,86.7,162.8,86.7z"/>
	</g>
</g>
<g>
	<g>
		<path class="st1" d="M167.5,88.4c-1-0.2-2.1-0.5-2.5-0.7c-0.1-0.2-0.4-0.3-0.6-0.3c-0.4,0-0.8,0.3-0.8,0.8c0,0.6,0.2,1,3.5,1.7
			c0.1,0,0.1,0,0.2,0c0.4,0,0.7-0.3,0.8-0.6C168.2,88.9,167.9,88.5,167.5,88.4z"/>
	</g>
</g>
<g>
	<g>
		<path class="st1" d="M164.4,85.8c-0.4,0-0.8,0.3-0.8,0.8v1.7c0,0.4,0.4,0.8,0.8,0.8c0.4,0,0.8-0.3,0.8-0.8v-1.7
			C165.2,86.1,164.8,85.8,164.4,85.8z"/>
	</g>
</g>
<g>
	<g>
		<path class="st1" d="M161.3,87.5c-0.2,0-0.4,0.1-0.6,0.3c-0.4,0.2-1.5,0.5-2.5,0.7c-0.4,0.1-0.7,0.5-0.6,0.9
			c0.1,0.4,0.4,0.6,0.8,0.6c0.1,0,0.1,0,0.2,0c3.4-0.7,3.5-1.1,3.5-1.7C162,87.8,161.7,87.5,161.3,87.5z"/>
	</g>
</g>
<g>
	<g>
		<path class="st1" d="M161.3,85.8c-0.4,0-0.8,0.3-0.8,0.8v1.7c0,0.4,0.4,0.8,0.8,0.8c0.4,0,0.8-0.3,0.8-0.8v-1.7
			C162,86.1,161.7,85.8,161.3,85.8z"/>
	</g>
</g>
<g>
	<g>
		<path class="st1" d="M162.8,78.1c-3.9,0-7.1,3.2-7.1,7c0,3.9,3.2,7,7.1,7c3.9,0,7.1-3.2,7.1-7C169.9,81.3,166.7,78.1,162.8,78.1z
			 M162.8,90.6c-3,0-5.5-2.5-5.5-5.5s2.5-5.5,5.5-5.5s5.5,2.5,5.5,5.5C168.3,88.2,165.9,90.6,162.8,90.6z"/>
	</g>
</g>
<g>
	<g>
		<path class="st1" d="M173.8,6.2h-59.6c-0.4,0-0.8,0.3-0.8,0.8c0,0.4,0.4,0.8,0.8,0.8h59.6c0.4,0,0.8-0.3,0.8-0.8
			C174.6,6.6,174.2,6.2,173.8,6.2z"/>
	</g>
</g>
<g>
	<g>
		<path class="st1" d="M144,1.6c-1.3,0-2.4,1.1-2.4,2.3s1.1,2.3,2.4,2.3c1.3,0,2.4-1.1,2.4-2.3S145.3,1.6,144,1.6z M144,4.7
			c-0.4,0-0.8-0.4-0.8-0.8s0.4-0.8,0.8-0.8c0.4,0,0.8,0.4,0.8,0.8S144.4,4.7,144,4.7z"/>
	</g>
</g>
<g>
	<g>
		<path class="st1" d="M123.6,3.1h-4.7c-0.4,0-0.8,0.3-0.8,0.8s0.4,0.8,0.8,0.8h4.7c0.4,0,0.8-0.3,0.8-0.8
			C124.4,3.5,124,3.1,123.6,3.1z"/>
	</g>
</g>
<g>
	<g>
		<path class="st1" d="M131.5,3.1h-4.7c-0.4,0-0.8,0.3-0.8,0.8s0.4,0.8,0.8,0.8h4.7c0.4,0,0.8-0.3,0.8-0.8
			C132.2,3.5,131.9,3.1,131.5,3.1z"/>
	</g>
</g>
<g>
	<g>
		<path class="st1" d="M166,12.5h-44c-0.4,0-0.8,0.3-0.8,0.8c0,0.4,0.4,0.8,0.8,0.8h44c0.4,0,0.8-0.3,0.8-0.8
			C166.7,12.8,166.4,12.5,166,12.5z"/>
	</g>
</g>
<g>
	<g>
		<path class="st1" d="M159.7,15.6h-31.4c-0.4,0-0.8,0.3-0.8,0.8c0,0.4,0.4,0.8,0.8,0.8h31.4c0.4,0,0.8-0.3,0.8-0.8
			C160.5,16,160.1,15.6,159.7,15.6z"/>
	</g>
</g>
<g>
	<g>
		<path class="st1" d="M151.8,18.8h-15.7c-0.4,0-0.8,0.3-0.8,0.8s0.4,0.8,0.8,0.8h15.7c0.4,0,0.8-0.3,0.8-0.8S152.3,18.8,151.8,18.8
			z"/>
	</g>
</g>
<g>
	<g>
		<path class="st1" d="M128.3,93.8H122c-0.4,0-0.8,0.3-0.8,0.8c0,0.4,0.4,0.8,0.8,0.8h6.3c0.4,0,0.8-0.3,0.8-0.8
			C129.1,94.1,128.7,93.8,128.3,93.8z"/>
	</g>
</g>
<g>
	<g>
		<path class="st1" d="M147.1,93.8h-6.3c-0.4,0-0.8,0.3-0.8,0.8c0,0.4,0.4,0.8,0.8,0.8h6.3c0.4,0,0.8-0.3,0.8-0.8
			C147.9,94.1,147.6,93.8,147.1,93.8z"/>
	</g>
</g>
<g>
	<g>
		<path class="st1" d="M166,93.8h-6.3c-0.4,0-0.8,0.3-0.8,0.8c0,0.4,0.4,0.8,0.8,0.8h6.3c0.4,0,0.8-0.3,0.8-0.8
			C166.7,94.1,166.4,93.8,166,93.8z"/>
	</g>
</g>
<g>
	<g>
		<path class="st0" d="M284.9,17.7h-12.3L266.7,0h-47.5l-5.9,17.7H201c-4.4,0-8.1,3.6-8.1,8.1v56.5c0,4.4,3.6,8.1,8.1,8.1h19.4v6.5
			H214v3.2h58v-3.2h-6.5v-6.5h19.4c4.4,0,8.1-3.6,8.1-8.1V25.8C293,21.4,289.4,17.7,284.9,17.7z M264.4,3.2l6,18
			c-0.1,1.7-1.5,3-3.2,3c-1.8,0-3.2-1.4-3.2-3.2l-3-17.8H264.4z M257.8,3.2l3,17.8c0,1.7-1.5,3.1-3.2,3.1c-1.8,0-3.2-1.4-3.2-3.2
			l0,0v-0.1l-1.5-17.6C252.9,3.2,257.8,3.2,257.8,3.2z M244.6,3.2h5l1.5,17.7c0,1.8-1.4,3.2-3.2,3.2s-3.2-1.4-3.2-3.2V3.2H244.6z
			 M236.4,3.2h5V21c0,1.8-1.4,3.2-3.2,3.2S235,22.8,235,21L236.4,3.2z M238.2,27.4c1.9,0,3.7-0.8,4.8-2.2c1.2,1.3,2.9,2.2,4.8,2.2
			s3.7-0.8,4.8-2.2c1.2,1.3,2.9,2.2,4.8,2.2s3.7-0.8,4.8-2.2c1.2,1.3,2.9,2.2,4.8,2.2V50h-7l-2.9-19.4H227L225.1,50h-6.3V27.4
			c1.9,0,3.7-0.8,4.8-2.2c1.2,1.3,2.9,2.2,4.8,2.2s3.7-0.8,4.8-2.2C234.5,26.6,236.2,27.4,238.2,27.4z M258.9,62.9h-4.5l1.1-22.5
			L258.9,62.9z M252.6,33.9l-1.5,29H227l2.9-29H252.6z M228.2,3.2h4.9L231.7,21c0,1.8-1.4,3.2-3.2,3.2c-1.7,0-3.2-1.4-3.2-3.1
			L228.2,3.2z M221.6,3.2h3.4l-2.9,17.5V21l0,0c0,1.8-1.4,3.2-3.2,3.2c-1.7,0-3.1-1.3-3.2-3L221.6,3.2z M262.4,96.8h-38.7v-6.5h38.7
			V96.8z M289.8,82.3c0,2.7-2.2,4.8-4.8,4.8h-83.9c-2.7,0-4.8-2.2-4.8-4.8v-4.8h93.5V82.3z M289.8,74.2h-93.5V25.8
			c0-2.7,2.2-4.8,4.8-4.8h11.3c0,2.4,1.3,4.4,3.2,5.6v26.7h9.2l-1.3,12.9h39.1l-1.9-12.9h9.7V26.5c1.9-1.1,3.2-3.2,3.2-5.6h11.3
			c2.7,0,4.8,2.2,4.8,4.8v48.5H289.8z"/>
	</g>
</g>
<g>
	<g>
		<rect x="229.1" y="80.6" class="st1" width="25.8" height="3.2"/>
	</g>
</g>
<g>
	<g>
		<path class="st1" d="M245.2,38.7v1.6c0,2.7-2.2,4.8-4.8,4.8s-4.8-2.2-4.8-4.8v-1.6h-3.2v1.6c0,4.4,3.6,8.1,8.1,8.1
			s8.1-3.6,8.1-8.1v-1.6C248.6,38.7,245.2,38.7,245.2,38.7z"/>
	</g>
</g>
<path class="st1" d="M321.2,22.1h-8.9c-0.9,0-1.6,0.7-1.6,1.6s0.7,1.6,1.6,1.6h8.9c0.9,0,1.6-0.7,1.6-1.6
	C322.9,22.8,322.1,22.1,321.2,22.1z"/>
<path class="st1" d="M341.2,25.3h8.9c0.9,0,1.6-0.7,1.6-1.6s-0.7-1.6-1.6-1.6h-8.9c-0.9,0-1.6,0.7-1.6,1.6
	C339.5,24.6,340.3,25.3,341.2,25.3z"/>
<path class="st1" d="M335.7,22.1h-8.9c-0.9,0-1.6,0.7-1.6,1.6s0.7,1.6,1.6,1.6h8.9c0.9,0,1.6-0.7,1.6-1.6
	C337.3,22.8,336.6,22.1,335.7,22.1z"/>
<path class="st1" d="M321.2,34.4h-8.9c-0.9,0-1.6,0.7-1.6,1.6c0,0.9,0.7,1.6,1.6,1.6h8.9c0.9,0,1.6-0.7,1.6-1.6
	C322.9,35.2,322.1,34.4,321.2,34.4z"/>
<path class="st1" d="M341.2,37.7h8.9c0.9,0,1.6-0.7,1.6-1.6c0-0.9-0.7-1.6-1.6-1.6h-8.9c-0.9,0-1.6,0.7-1.6,1.6
	C339.5,37,340.3,37.7,341.2,37.7z"/>
<path class="st1" d="M335.7,34.4h-8.9c-0.9,0-1.6,0.7-1.6,1.6c0,0.9,0.7,1.6,1.6,1.6h8.9c0.9,0,1.6-0.7,1.6-1.6
	C337.3,35.2,336.6,34.4,335.7,34.4z"/>
<path class="st1" d="M321.2,46.8h-8.9c-0.9,0-1.6,0.7-1.6,1.6c0,0.9,0.7,1.6,1.6,1.6h8.9c0.9,0,1.6-0.7,1.6-1.6
	C322.9,47.5,322.1,46.8,321.2,46.8z"/>
<path class="st1" d="M341.2,50h8.9c0.9,0,1.6-0.7,1.6-1.6c0-0.9-0.7-1.6-1.6-1.6h-8.9c-0.9,0-1.6,0.7-1.6,1.6
	C339.5,49.3,340.3,50,341.2,50z"/>
<path class="st1" d="M335.7,46.8h-8.9c-0.9,0-1.6,0.7-1.6,1.6c0,0.9,0.7,1.6,1.6,1.6h8.9c0.9,0,1.6-0.7,1.6-1.6
	C337.3,47.5,336.6,46.8,335.7,46.8z"/>
<path class="st1" d="M321.2,59.1h-8.9c-0.9,0-1.6,0.7-1.6,1.6s0.7,1.6,1.6,1.6h8.9c0.9,0,1.6-0.7,1.6-1.6S322.1,59.1,321.2,59.1z"/>
<path class="st1" d="M335.7,59.1h-8.9c-0.9,0-1.6,0.7-1.6,1.6s0.7,1.6,1.6,1.6h8.9c0.9,0,1.6-0.7,1.6-1.6S336.6,59.1,335.7,59.1z"/>
<path class="st1" d="M373,46.1c-3.6,0-7.2,0.7-10.5,2.1V13.1c0-0.9-0.8-1.5-1.7-1.5h-6.1V1.7c0-0.9-0.8-1.7-1.7-1.7h-41.5
	c-0.9,0-1.6,0.8-1.6,1.7v9.9h-6.2c-0.4,0-0.8,0.1-1.1,0.4c-0.3,0.3-0.5,0.7-0.4,1.1v81.1c0,0.4,0.1,0.8,0.4,1.1
	c0.3,0.3,0.7,0.5,1.1,0.5h54.8c4.3,2.7,9.4,4.2,14.5,4.2c15,0,27.1-12.1,27.1-26.9S387.9,46.1,373,46.1z M313.1,3.2h38.4v8.3h-38.4
	V3.2z M341.5,92.6h-19.4V72.1h19.4V92.6z M344.7,92.6v-22c0-0.9-0.7-1.6-1.6-1.7h-22.7c-0.4,0-0.8,0.2-1.1,0.5
	c-0.3,0.3-0.5,0.7-0.4,1.2v22h-13.5V14.8h53.9v35.1c-4.2,2.4-7.7,6-10,10.3h-8c-0.9,0-1.6,0.7-1.6,1.6s0.7,1.6,1.6,1.6h6.5
	c-4,10.1-1.4,21.7,6.6,29.2C354.4,92.6,344.7,92.6,344.7,92.6z M372.9,96.8c-13.2,0-23.9-10.6-23.9-23.7s10.7-23.7,23.9-23.7
	c13.2,0,23.9,10.6,23.9,23.7S386.1,96.8,372.9,96.8z"/>
<path class="st1" d="M388.2,60.6L373.7,56c-0.3-0.1-0.7-0.1-1,0l-14.5,4.6c-0.7,0.2-1.1,0.8-1.1,1.5v19.6c0,0.7,0.4,1.3,1.1,1.5
	l14.5,4.6c0.2,0.1,0.3,0.1,0.5,0.1s0.3,0,0.5-0.1l14.5-4.6c0.7-0.2,1.1-0.8,1.2-1.5V62.2C389.4,61.5,388.9,60.8,388.2,60.6z
	 M373.2,59.2l9.2,2.9l-9.2,2.9l-9.2-2.9L373.2,59.2z M360.4,64.4l11,3.6v16.2l-11-3.6V64.4z M374.7,84.3V68l11.4-3.6v16.2
	L374.7,84.3z"/>
</svg>
