<?xml version="1.0" encoding="utf-8"?>
<!-- Generator: Adobe Illustrator 22.0.1, SVG Export Plug-In . SVG Version: 6.00 Build 0)  -->
<svg version="1.1" id="Capa_1" xmlns="http://www.w3.org/2000/svg" xmlns:xlink="http://www.w3.org/1999/xlink" x="0px" y="0px"
	 viewBox="0 0 75 75" style="enable-background:new 0 0 75 75;" xml:space="preserve">
<style type="text/css">
	.st0{fill:#04345B;}
</style>
<g>
	<g>
		<path class="st0" d="M23.8,29.2c-0.2-0.4-0.6-0.6-1-0.7l-10.5-0.7c-0.5-0.1-1,0.3-1.2,0.8L3.5,48c-0.2,0.5,0,1.1,0.4,1.4
			c0.2,0.2,0.5,0.3,0.8,0.3c0.3,0,0.5-0.1,0.7-0.2l6.3-4.7l3.7,0.7c0.6,0.1,1.2-0.2,1.4-0.8c2-5.2,4.3-9.9,7-14.2
			C24,30.1,24,29.6,23.8,29.2z M14.8,42.8l-3.2-0.6c-0.3-0.1-0.7,0-1,0.2l-3.2,2.4L13,30.4l7.5,0.5C18.4,34.6,16.5,38.6,14.8,42.8z"
			/>
	</g>
</g>
<g>
	<g>
		<path class="st0" d="M47.1,62.7l-0.7-10.5c0-0.4-0.3-0.8-0.7-1c-0.4-0.2-0.9-0.2-1.2,0.1c-4.3,2.7-9.1,5.1-14.2,7
			c-0.6,0.2-0.9,0.8-0.8,1.4l0.7,3.7l-4.7,6.3c-0.3,0.4-0.3,1.1,0,1.5c0.2,0.3,0.6,0.5,1,0.5c0.2,0,0.3,0,0.5-0.1L46.4,64
			C46.9,63.8,47.2,63.3,47.1,62.7z M30.2,67.6l2.4-3.2c0.2-0.3,0.3-0.6,0.2-1l-0.6-3.2c4.2-1.7,8.2-3.6,11.9-5.8l0.5,7.5L30.2,67.6z
			"/>
	</g>
</g>
<g>
	<g>
		<path class="st0" d="M36.2,37.5h-8.4c-0.5,0-0.9,0.2-1.1,0.6l-10.6,19c-0.3,0.5-0.2,1.1,0.2,1.5c0.2,0.2,0.6,0.3,0.9,0.3
			c0.2,0,0.4-0.1,0.6-0.2l19-11.5c0.4-0.2,0.6-0.6,0.6-1.1v-7.5C37.5,38.1,36.9,37.5,36.2,37.5z M35,45.5l-14.4,8.7L28.6,40v0H35
			V45.5z"/>
	</g>
</g>
<g>
	<g>
		<path class="st0" d="M74.9,1.2c-0.1-0.6-0.5-1.1-1.1-1.1c-0.4,0-41.6-2.9-59.4,43.8c-0.2,0.5-0.1,1,0.3,1.3l5.9,5.9
			c0.3,0.3,0.7,0.4,1.1,0.4c0.4-0.1,0.7-0.3,0.9-0.6l6-10.8H35v5.6l-10.9,6.9c-0.3,0.2-0.5,0.5-0.6,0.9s0.1,0.8,0.4,1l5.9,5.9
			c0.2,0.2,0.6,0.4,0.9,0.4c0.1,0,0.3,0,0.4-0.1C77.8,42.8,75,1.6,74.9,1.2z M68.4,23.4C64,34.2,54,49,31,58l-4.3-4.3l10.1-6.4
			c0.4-0.2,0.6-0.6,0.6-1.1v-7.5c0-0.7-0.6-1.2-1.2-1.2h-8.4c-0.5,0-0.9,0.2-1.1,0.6l-5.5,10L17,44C32.7,4.1,66,2.4,72.5,2.5
			C72.5,5.4,72.3,13.8,68.4,23.4z"/>
	</g>
</g>
<g>
	<g>
		<path class="st0" d="M21.4,55.2c-0.3-0.4-0.7-0.5-1.1-0.5c0-0.4-0.1-0.9-0.5-1.1c-1.9-1.4-4.3-1.9-6.7-1.3
			c-2.5,0.6-4.6,2.3-5.6,4.7L0.1,73.2c-0.2,0.5-0.1,1,0.3,1.4C0.6,74.9,0.9,75,1.3,75c0.2,0,0.4,0,0.5-0.1L18,67.5
			c2.3-1.1,4-3.1,4.7-5.6C23.3,59.5,22.8,57.1,21.4,55.2z M20.3,61.3c-0.4,1.8-1.6,3.2-3.3,4l-13.2,6l6-13.2c0.7-1.6,2.2-2.8,4-3.3
			c0.5-0.1,0.9-0.2,1.4-0.2c0.8,0,1.5,0.2,2.2,0.5l-1.2,2.1c-0.3,0.5-0.2,1.1,0.2,1.5c0.4,0.4,1,0.5,1.5,0.2l2.1-1.2
			C20.5,58.7,20.6,60,20.3,61.3z"/>
	</g>
</g>
<g>
	<g>
		<path class="st0" d="M74.9,1.2c-0.1-0.6-0.5-1.1-1.1-1.1c-0.5,0-12.1-0.9-25.7,5.4c-0.4,0.2-0.6,0.5-0.7,0.9
			c-0.1,0.4,0.1,0.8,0.3,1.1l19.8,19.8c0.2,0.2,0.6,0.4,0.9,0.4c0.1,0,0.1,0,0.2,0c0.4-0.1,0.7-0.3,0.9-0.7
			C75.9,13.3,75,1.7,74.9,1.2z M68,24.2L50.8,7c10-4.2,18.7-4.5,21.7-4.5C72.5,5.5,72.3,14.2,68,24.2z"/>
	</g>
</g>
<g>
	<g>
		<path class="st0" d="M55.2,19.8c-4.2-4.2-11-4.2-15.2,0s-4.2,11,0,15.2c2.1,2.1,4.9,3.2,7.6,3.2c2.8,0,5.5-1.1,7.6-3.2
			C59.4,30.8,59.4,24,55.2,19.8z M53.4,33.3c-3.2,3.2-8.5,3.2-11.7,0c-3.2-3.2-3.2-8.5,0-11.7c1.6-1.6,3.7-2.4,5.9-2.4
			c2.1,0,4.2,0.8,5.9,2.4C56.7,24.8,56.7,30,53.4,33.3z"/>
	</g>
</g>
<g>
	<g>
		<path class="st0" d="M50.1,29.9c-1.4,1.4-3.6,1.4-5,0c-1.4-1.4-1.4-3.6,0-5c1.4-1.4,3.6-1.4,5,0c0.5,0.5,1.3,0.5,1.8,0
			c0.5-0.5,0.5-1.3,0-1.8c-2.3-2.3-6.2-2.3-8.5,0c-2.3,2.3-2.3,6.2,0,8.5c1.2,1.2,2.7,1.8,4.3,1.8c1.5,0,3.1-0.6,4.3-1.8
			c0.5-0.5,0.5-1.3,0-1.8C51.3,29.4,50.6,29.4,50.1,29.9z"/>
	</g>
</g>
</svg>
