<?xml version="1.0" encoding="utf-8"?>
<!-- Generator: Adobe Illustrator 22.0.1, SVG Export Plug-In . SVG Version: 6.00 Build 0)  -->
<svg version="1.1" id="Слой_1" xmlns="http://www.w3.org/2000/svg" xmlns:xlink="http://www.w3.org/1999/xlink" x="0px" y="0px"
	 viewBox="0 0 350 75" style="enable-background:new 0 0 350 75;" xml:space="preserve">
<style type="text/css">
	.st0{fill:#04345B;}
</style>
<path class="st0" d="M65.1,45.9c-1,0-1.7,0.8-1.7,1.8v15.6c0,2.9-2.3,5.3-5.2,5.3H9.2c-2.9,0-5.2-2.4-5.2-5.3V17.6
	c0-2.9,2.3-5.3,5.2-5.3h15.5c1,0,1.7-0.8,1.7-1.8c0-1-0.8-1.8-1.7-1.8H9.2c-4.8,0-8.7,3.9-8.7,8.8v45.7c0,4.8,3.9,8.8,8.7,8.8h48.9
	c4.8,0,8.7-3.9,8.7-8.8V47.7C66.9,46.7,66.1,45.9,65.1,45.9z"/>
<path class="st0" d="M66.2,4.3c-3.1-3.1-8-3.1-11.1,0L24,35.6c-0.2,0.2-0.4,0.5-0.4,0.8l-4.1,14.8c-0.2,0.6,0,1.3,0.4,1.7
	c0.4,0.4,1.1,0.6,1.7,0.4l14.8-4.1c0.3-0.1,0.6-0.2,0.8-0.4l31.1-31.3c3.1-3.1,3.1-8.1,0-11.2L66.2,4.3z M27.8,36.7l25.5-25.6
	l8.2,8.3L36,45L27.8,36.7z M26.1,40l6.6,6.6l-9.1,2.5L26.1,40z M65.7,15.1l-1.8,1.9l-8.2-8.3l1.8-1.9c1.7-1.7,4.5-1.7,6.2,0l2,2.1
	C67.4,10.6,67.4,13.3,65.7,15.1z"/>
<g>
	<path class="st0" d="M103.6,50c-1.1-0.9-2.4-1.5-3.8-1.5c-1.9,0-3.6,0.9-4.7,2.5c-1,1.4-1.5,3.2-1.3,4.9c0.2,1.8,1,3.4,2.3,4.5
		c1.1,0.9,2.4,1.5,3.8,1.5c1.9,0,3.6-0.9,4.7-2.5c1-1.4,1.5-3.2,1.3-4.9C105.7,52.7,104.9,51.1,103.6,50z M102.4,57.5
		c-0.6,0.9-1.6,1.4-2.6,1.4c-0.8,0-1.5-0.3-2.1-0.8c-0.7-0.6-1.1-1.5-1.2-2.4c-0.1-1,0.2-1.9,0.7-2.7c0.6-0.9,1.6-1.4,2.6-1.4
		c0.8,0,1.5,0.3,2.1,0.8c0.7,0.6,1.1,1.5,1.2,2.4C103.2,55.8,102.9,56.7,102.4,57.5z"/>
	<path class="st0" d="M127.9,34.2c0.9,0,1.8-0.2,2.6-0.7c1.5-0.8,2.6-2.1,3.1-3.9c0.5-1.7,0.4-3.5-0.3-5.1c-1-2.3-3.2-3.8-5.5-3.8
		c-0.9,0-1.8,0.2-2.6,0.7c-1.5,0.8-2.6,2.1-3.1,3.8c-0.5,1.7-0.4,3.5,0.3,5.1C123.5,32.7,125.6,34.2,127.9,34.2z M124.8,26.3
		c0.3-0.9,0.9-1.7,1.7-2.1c0.5-0.2,0.9-0.4,1.4-0.4c1.3,0,2.4,0.8,3,2.1c0.4,0.9,0.4,1.8,0.1,2.8c-0.3,0.9-0.9,1.7-1.7,2.1
		c-0.5,0.2-0.9,0.4-1.4,0.4c-1.3,0-2.4-0.8-3-2.1C124.6,28.2,124.5,27.2,124.8,26.3z"/>
	<path class="st0" d="M112.9,23.3c0.4,0.1,0.9,0.2,1.4,0.2c2.9,0,5.3-2.1,5.9-5.2c0.4-1.7,0.1-3.5-0.8-5.1c-0.9-1.5-2.2-2.6-3.8-3
		c-0.4-0.1-0.9-0.2-1.4-0.2c-2.8,0-5.3,2.1-5.9,5.2c-0.4,1.7-0.1,3.5,0.8,5.1C109.9,21.8,111.3,22.9,112.9,23.3z M111,15.9
		c0.3-1.7,1.7-2.8,3.2-2.8c0.2,0,0.5,0,0.7,0.1c0.9,0.2,1.6,0.8,2.1,1.6c0.5,0.8,0.6,1.8,0.4,2.7c-0.3,1.6-1.7,2.8-3.2,2.8
		c-0.2,0-0.5,0-0.7-0.1c-0.9-0.2-1.6-0.8-2.1-1.6C110.9,17.8,110.8,16.9,111,15.9z"/>
	<path class="st0" d="M101.9,27.1c1.3-1.1,2.1-2.7,2.3-4.5c0.2-1.8-0.3-3.5-1.3-4.9c-1.2-1.6-2.9-2.5-4.8-2.5
		c-1.4,0-2.7,0.5-3.8,1.5c-1.3,1.1-2.1,2.7-2.3,4.5c-0.2,1.8,0.3,3.5,1.3,4.9c1.2,1.6,2.9,2.5,4.8,2.5
		C99.5,28.6,100.8,28.1,101.9,27.1z M95.5,24.1c-0.5-0.8-0.8-1.7-0.7-2.7c0.1-1,0.5-1.8,1.2-2.4c0.6-0.5,1.3-0.8,2.1-0.8
		c1,0,2,0.5,2.6,1.4c0.5,0.8,0.8,1.7,0.7,2.7c-0.1,1-0.5,1.8-1.2,2.4c-0.6,0.5-1.3,0.8-2.1,0.8C97.1,25.5,96.1,25,95.5,24.1z"/>
	<path class="st0" d="M158.5,12c-0.2-0.3-0.7-0.6-1.3-0.6c-0.8,0-2.9,0-15.6,12.1c-0.3,0.2-0.5,0.5-0.8,0.7
		c-2.3-6.6-6.3-12.5-11.4-16.8C123.4,2.6,116.4,0,109,0c0,0,0,0,0,0C104,0,97.9,2,93.1,5.1c-5.9,3.8-9.1,9-9.1,14.4
		c0,6.6,3.4,9.4,6,11.6c2.2,1.8,3.9,3.2,3.9,6.4c0,3.1-1.7,4.6-3.9,6.4c-2.7,2.2-6,5-6,11.6c0,5.5,3.2,10.6,9.1,14.4
		C97.9,73.1,104,75,109,75c0,0,0,0,0,0c9.1,0,17.6-3.9,24-11c6.3-7,9.9-16.2,9.9-26.1c2.1-2.7,4.2-5.4,6.1-8c3.3-4.4,5.8-8,7.4-10.7
		C158.7,15.6,159.7,13.4,158.5,12z M131,61.9c-5.9,6.5-13.7,10.1-22.1,10.1c0,0,0,0,0,0c-8.9,0-22.2-6.9-22.2-16.4
		c0-5.1,2.4-7,4.9-9.1c2.4-2,5-4.2,5-8.9c0-4.7-2.7-6.9-5-8.9c-2.5-2.1-4.9-4.1-4.9-9.1c0-5.9,4.8-9.9,7.7-11.8
		c4.3-2.8,10-4.6,14.4-4.6c0,0,0,0,0,0c6.8,0,13.3,2.4,18.7,6.9c5,4.1,8.8,10,10.8,16.4c-6,5.8-12.5,12.6-17.4,18
		c-8,1.2-9.1,7.1-9.9,11.5c-0.7,3.7-1.1,5.5-3.7,5.8c-0.6,0.1-1.2,0.6-1.3,1.3c-0.1,0.7,0.2,1.4,0.8,1.7c0.2,0.1,4.1,1.9,8.7,1.9
		c0,0,0,0,0,0c3.2,0,6-0.9,8.2-2.6c2.7-2.1,4.6-5.5,5.5-10c3.2-3.6,6.8-7.9,10.4-12.3C139.1,49.3,136,56.3,131,61.9z M126.8,53.7
		c-1.5,6.5-5.2,9.8-11,9.8c0,0,0,0,0,0c-1.5,0-3-0.2-4.2-0.5c1.5-1.7,1.9-4.2,2.3-6.4c0.8-4.2,1.5-8.1,7.4-9L126.8,53.7z
		 M145.9,29.3c-5.5,7.3-12.1,15.5-17.6,21.7l-0.8-0.9l-3.7-4.2c5-5.5,11.3-12,17.3-17.8l0,0c0.7-0.7,1.4-1.3,2.1-2
		c6.9-6.5,10.5-9.4,12.3-10.6C154.3,17.6,151.8,21.6,145.9,29.3z"/>
</g>
<path class="st0" d="M230.9,31.8h-62.3c-0.9,0-1.6,0.7-1.6,1.7v35.1c0,0.9,0.7,1.7,1.6,1.7h62.3c0.9,0,1.6-0.7,1.6-1.7V33.4
	C232.6,32.5,231.8,31.8,230.9,31.8z M229.3,66.8h-59V35.1h59V66.8z"/>
<path class="st0" d="M180.1,50.1c3.6,0,6.6-3,6.6-6.7c0-3.7-2.9-6.7-6.6-6.7c-3.6,0-6.6,3-6.6,6.7C173.6,47.1,176.5,50.1,180.1,50.1
	z M180.1,40.1c1.8,0,3.3,1.5,3.3,3.3c0,1.8-1.5,3.3-3.3,3.3c-1.8,0-3.3-1.5-3.3-3.3C176.8,41.6,178.3,40.1,180.1,40.1z"/>
<path class="st0" d="M180.1,65.2c3.6,0,6.6-3,6.6-6.7c0-3.7-2.9-6.7-6.6-6.7c-3.6,0-6.6,3-6.6,6.7C173.6,62.2,176.5,65.2,180.1,65.2
	z M180.1,55.1c1.8,0,3.3,1.5,3.3,3.3c0,1.8-1.5,3.3-3.3,3.3c-1.8,0-3.3-1.5-3.3-3.3C176.8,56.6,178.3,55.1,180.1,55.1z"/>
<path class="st0" d="M199.8,50.1c3.6,0,6.6-3,6.6-6.7c0-3.7-2.9-6.7-6.6-6.7s-6.6,3-6.6,6.7C193.2,47.1,196.2,50.1,199.8,50.1z
	 M199.8,40.1c1.8,0,3.3,1.5,3.3,3.3c0,1.8-1.5,3.3-3.3,3.3c-1.8,0-3.3-1.5-3.3-3.3C196.5,41.6,198,40.1,199.8,40.1z"/>
<path class="st0" d="M199.8,65.2c3.6,0,6.6-3,6.6-6.7c0-3.7-2.9-6.7-6.6-6.7s-6.6,3-6.6,6.7C193.2,62.2,196.2,65.2,199.8,65.2z
	 M199.8,55.1c1.8,0,3.3,1.5,3.3,3.3c0,1.8-1.5,3.3-3.3,3.3c-1.8,0-3.3-1.5-3.3-3.3C196.5,56.6,198,55.1,199.8,55.1z"/>
<path class="st0" d="M219.4,50.1c3.6,0,6.6-3,6.6-6.7c0-3.7-2.9-6.7-6.6-6.7s-6.6,3-6.6,6.7C212.9,47.1,215.8,50.1,219.4,50.1z
	 M219.4,40.1c1.8,0,3.3,1.5,3.3,3.3c0,1.8-1.5,3.3-3.3,3.3c-1.8,0-3.3-1.5-3.3-3.3C216.2,41.6,217.6,40.1,219.4,40.1z"/>
<path class="st0" d="M219.4,65.2c3.6,0,6.6-3,6.6-6.7c0-3.7-2.9-6.7-6.6-6.7s-6.6,3-6.6,6.7C212.9,62.2,215.8,65.2,219.4,65.2z
	 M219.4,55.1c1.8,0,3.3,1.5,3.3,3.3c0,1.8-1.5,3.3-3.3,3.3c-1.8,0-3.3-1.5-3.3-3.3C216.2,56.6,217.6,55.1,219.4,55.1z"/>
<path class="st0" d="M266.8,53.5l-4.4-8.9c-0.4-0.8-1.4-1.2-2.2-0.7l-2.9,1.5l-2.9-6l2.9-1.5c0.8-0.4,1.1-1.4,0.7-2.2l-4.4-8.9
	c-0.4-0.8-1.4-1.2-2.2-0.7l-2.9,1.5l-3-6l2.9-1.5c0.8-0.4,1.1-1.4,0.7-2.2l-4.4-8.9c-0.4-0.8-1.4-1.2-2.2-0.7l-2.9,1.5l-2.2-4.5
	c-0.4-0.8-1.4-1.2-2.2-0.7l-11.7,6c-0.8,0.4-1.1,1.4-0.7,2.2l28.1,56.6c0.4,0.8,1.4,1.2,2.2,0.7l11.7-6c0.8-0.4,1.1-1.4,0.7-2.2
	l-2.2-4.5l2.9-1.5c0.4-0.2,0.7-0.5,0.8-1C267.1,54.3,267,53.9,266.8,53.5z M251.3,29.7l2.9,6l-1.5,0.8l-2.9-6L251.3,29.7z
	 M242.5,11.8l2.9,6l-1.5,0.8l-3-6L242.5,11.8z M252.9,66.2l-26.6-53.6l8.8-4.5l26.6,53.6L252.9,66.2z M258.7,48.3l1.5-0.8l2.9,6
	l-1.5,0.8L258.7,48.3z"/>
<g>
	<g>
		<path class="st0" d="M298.3,29.7c-0.2-0.4-0.6-0.6-1-0.7l-10.5-0.7c-0.5-0.1-1,0.3-1.2,0.8L278,48.5c-0.2,0.5,0,1.1,0.4,1.4
			c0.2,0.2,0.5,0.3,0.8,0.3c0.3,0,0.5-0.1,0.7-0.2l6.3-4.7l3.7,0.7c0.6,0.1,1.2-0.2,1.4-0.8c2-5.2,4.3-9.9,7-14.2
			C298.5,30.6,298.5,30.1,298.3,29.7z M289.3,43.3l-3.2-0.6c-0.3-0.1-0.7,0-1,0.2l-3.2,2.4l5.6-14.4l7.5,0.5
			C292.9,35.1,291,39.1,289.3,43.3z"/>
	</g>
</g>
<g>
	<g>
		<path class="st0" d="M321.6,63.2l-0.7-10.5c0-0.4-0.3-0.8-0.7-1c-0.4-0.2-0.9-0.2-1.2,0.1c-4.3,2.7-9.1,5.1-14.2,7
			c-0.6,0.2-0.9,0.8-0.8,1.4l0.7,3.7l-4.7,6.3c-0.3,0.4-0.3,1.1,0,1.5c0.2,0.3,0.6,0.5,1,0.5c0.2,0,0.3,0,0.5-0.1l19.4-7.6
			C321.4,64.3,321.7,63.8,321.6,63.2z M304.7,68.1l2.4-3.2c0.2-0.3,0.3-0.6,0.2-1l-0.6-3.2c4.2-1.7,8.2-3.6,11.9-5.8l0.5,7.5
			L304.7,68.1z"/>
	</g>
</g>
<g>
	<g>
		<path class="st0" d="M310.8,38h-8.4c-0.5,0-0.9,0.2-1.1,0.6l-10.6,19c-0.3,0.5-0.2,1.1,0.2,1.5c0.2,0.2,0.6,0.3,0.9,0.3
			c0.2,0,0.4-0.1,0.6-0.2l19-11.5c0.4-0.2,0.6-0.6,0.6-1.1v-7.5C312,38.6,311.4,38,310.8,38z M309.5,46l-14.4,8.7l7.9-14.2v0h6.4V46
			z"/>
	</g>
</g>
<g>
	<g>
		<path class="st0" d="M349.4,1.7c-0.1-0.6-0.5-1.1-1.1-1.1c-0.4,0-41.6-2.9-59.4,43.8c-0.2,0.5-0.1,1,0.3,1.3l5.9,5.9
			c0.3,0.3,0.7,0.4,1.1,0.4c0.4-0.1,0.7-0.3,0.9-0.6l6-10.8h6.4v5.6l-10.9,6.9c-0.3,0.2-0.5,0.5-0.6,0.9s0.1,0.8,0.4,1l5.9,5.9
			c0.2,0.2,0.6,0.4,0.9,0.4c0.1,0,0.3,0,0.4-0.1C352.3,43.3,349.5,2.1,349.4,1.7z M342.9,23.9c-4.4,10.9-14.4,25.6-37.3,34.6
			l-4.3-4.3l10.1-6.4c0.4-0.2,0.6-0.6,0.6-1.1v-7.5c0-0.7-0.6-1.2-1.2-1.2h-8.4c-0.5,0-0.9,0.2-1.1,0.6l-5.5,10l-4.2-4.2
			C307.2,4.6,340.5,2.9,347,3C347,5.9,346.8,14.3,342.9,23.9z"/>
	</g>
</g>
<g>
	<g>
		<path class="st0" d="M295.9,55.7c-0.3-0.4-0.7-0.5-1.1-0.5c0-0.4-0.1-0.9-0.5-1.1c-1.9-1.4-4.3-1.9-6.7-1.3
			c-2.5,0.6-4.6,2.3-5.6,4.7l-7.4,16.3c-0.2,0.5-0.1,1,0.3,1.4c0.2,0.2,0.6,0.4,0.9,0.4c0.2,0,0.4,0,0.5-0.1l16.3-7.4
			c2.3-1.1,4-3.1,4.7-5.6C297.8,60,297.3,57.6,295.9,55.7z M294.8,61.8c-0.4,1.8-1.6,3.2-3.3,4l-13.2,6l6-13.2
			c0.7-1.6,2.2-2.8,4-3.3c0.5-0.1,0.9-0.2,1.4-0.2c0.8,0,1.5,0.2,2.2,0.5l-1.2,2.1c-0.3,0.5-0.2,1.1,0.2,1.5c0.4,0.4,1,0.5,1.5,0.2
			l2.1-1.2C295,59.2,295.1,60.5,294.8,61.8z"/>
	</g>
</g>
<g>
	<g>
		<path class="st0" d="M349.4,1.7c-0.1-0.6-0.5-1.1-1.1-1.1c-0.5,0-12.1-0.9-25.7,5.4c-0.4,0.2-0.6,0.5-0.7,0.9
			c-0.1,0.4,0.1,0.8,0.3,1.1l19.8,19.8c0.2,0.2,0.6,0.4,0.9,0.4c0.1,0,0.1,0,0.2,0c0.4-0.1,0.7-0.3,0.9-0.7
			C350.4,13.8,349.5,2.2,349.4,1.7z M342.5,24.7L325.3,7.5C335.3,3.3,344,3,347,3C347,6,346.8,14.7,342.5,24.7z"/>
	</g>
</g>
<g>
	<g>
		<path class="st0" d="M329.7,20.3c-4.2-4.2-11-4.2-15.2,0c-4.2,4.2-4.2,11,0,15.2c2.1,2.1,4.9,3.2,7.6,3.2c2.8,0,5.5-1.1,7.6-3.2
			C333.9,31.3,333.9,24.5,329.7,20.3z M327.9,33.8c-3.2,3.2-8.5,3.2-11.7,0c-3.2-3.2-3.2-8.5,0-11.7c1.6-1.6,3.7-2.4,5.9-2.4
			s4.2,0.8,5.9,2.4C331.2,25.3,331.2,30.5,327.9,33.8z"/>
	</g>
</g>
<g>
	<g>
		<path class="st0" d="M324.6,30.4c-1.4,1.4-3.6,1.4-5,0c-1.4-1.4-1.4-3.6,0-5c1.4-1.4,3.6-1.4,5,0c0.5,0.5,1.3,0.5,1.8,0
			c0.5-0.5,0.5-1.3,0-1.8c-2.3-2.3-6.2-2.3-8.5,0c-2.3,2.3-2.3,6.2,0,8.5c1.2,1.2,2.7,1.8,4.3,1.8c1.5,0,3.1-0.6,4.3-1.8
			c0.5-0.5,0.5-1.3,0-1.8C325.8,29.9,325.1,29.9,324.6,30.4z"/>
	</g>
</g>
</svg>
