<?xml version="1.0" encoding="utf-8"?>
<!-- Generator: Adobe Illustrator 22.0.1, SVG Export Plug-In . SVG Version: 6.00 Build 0)  -->
<svg version="1.1" id="Layer_1" xmlns="http://www.w3.org/2000/svg" xmlns:xlink="http://www.w3.org/1999/xlink" x="0px" y="0px"
	 viewBox="0 0 60 60" style="enable-background:new 0 0 60 60;" xml:space="preserve">
<style type="text/css">
	.st0{fill:#04345B;}
</style>
<g>
	<path class="st0" d="M30,0C13.5,0,0,13.5,0,30s13.5,30,30,30s30-13.5,30-30S46.5,0,30,0z M30,55C16.3,55,5,43.8,5,30S16.3,5,30,5
		s25,11.3,25,25S43.8,55,30,55z"/>
	<path class="st0" d="M30,17.5c2.8,0,5,2.3,5,5h5c0-4.8-3.3-8.5-7.5-9.8V10h-5v2.8c-4.3,1.3-7.5,5-7.5,9.8c0,5.5,4.5,10,10,10
		c2.8,0,5,2.3,5,5s-2.3,5-5,5s-5-2.3-5-5h-5c0,4.8,3.3,8.5,7.5,9.8V50h5v-2.8c4.3-1,7.5-5,7.5-9.8c0-5.5-4.5-10-10-10
		c-2.8,0-5-2.3-5-5S27.3,17.5,30,17.5z"/>
</g>
</svg>
