<?xml version="1.0" encoding="utf-8"?>
<!-- Generator: Adobe Illustrator 22.0.1, SVG Export Plug-In . SVG Version: 6.00 Build 0)  -->
<svg version="1.1" id="Слой_1" xmlns="http://www.w3.org/2000/svg" xmlns:xlink="http://www.w3.org/1999/xlink" x="0px" y="0px"
	 viewBox="0 0 32 32" style="enable-background:new 0 0 32 32;" xml:space="preserve">
<style type="text/css">
	.st0{fill:#07568C;}
</style>
<g>
	<path class="st0" d="M18.6,22.2c3.1-0.3,6.4-1.5,6.4-6.9c0-1.5-0.5-2.8-1.4-3.7c0.1-0.3,0.6-1.7-0.2-3.7c0,0-1.2-0.3-3.8,1.4
		c-1.2-0.3-2.3-0.5-3.5-0.5c-1.2,0-2.5,0.2-3.5,0.5C9.8,7.4,8.6,7.8,8.6,7.8c-0.7,1.9-0.3,3.3-0.2,3.7c-0.9,1-1.4,2.2-1.4,3.7
		c0,5.3,3.3,6.5,6.4,6.9c-0.4,0.3-0.7,1-1,1.9c-0.7,0.3-2.9,1-4.2-1.2c0,0-0.7-1.3-2.1-1.4c0,0-1.4,0-0.1,0.9c0,0,1,0.4,1.6,2
		c0,0,0.9,2.7,4.8,1.8v2.5c0,0.3-0.3,0.7-1,0.6C6,27.5,1.9,22.2,1.9,16c0-7.8,6.3-14,14-14s14,6.3,14,14c0,6.2-3.9,11.4-9.6,13.3
		c-0.7,0.1-1-0.3-1-0.6v-3.8C19.4,23.4,19,22.6,18.6,22.2L18.6,22.2z M32,16c0-8.9-7.1-16-16-16S0,7.1,0,16s7.1,16,16,16
		S32,24.9,32,16L32,16z"/>
</g>
</svg>
