<?xml version="1.0" encoding="utf-8"?>
<!-- Generator: Adobe Illustrator 22.0.1, SVG Export Plug-In . SVG Version: 6.00 Build 0)  -->
<svg version="1.1" id="Слой_1" xmlns="http://www.w3.org/2000/svg" xmlns:xlink="http://www.w3.org/1999/xlink" x="0px" y="0px"
	 viewBox="0 0 32 32" style="enable-background:new 0 0 32 32;" xml:space="preserve">
<style type="text/css">
	.st0{fill:#07568C;}
</style>
<g id="OUTLINE_copy_2">
	<g>
		<path class="st0" d="M16,0C7.1,0,0,7.1,0,16s7.1,16,16,16s16-7.1,16-16S24.9,0,16,0z M11.8,22.3H8.5v-9.8h3.3V22.3z M10.2,11.1
			L10.2,11.1c-1.1,0-1.8-0.7-1.8-1.7s0.7-1.7,1.8-1.7s1.8,0.7,1.8,1.7S11.3,11.1,10.2,11.1z M23.6,22.3L23.6,22.3h-3.3v-5.2
			c0-1.3-0.4-2.2-1.7-2.2c-0.9,0-1.4,0.6-1.7,1.2c-0.1,0.2-0.1,0.5-0.1,0.7v5.4h-3.3c0,0,0-8.9,0-9.8h3.3v1.5c0.4-0.6,1.2-1.6,3-1.6
			c2.1,0,3.7,1.4,3.7,4.4C23.6,16.6,23.6,22.3,23.6,22.3z"/>
	</g>
</g>
</svg>
