<?xml version="1.0" encoding="utf-8"?>
<!-- Generator: Adobe Illustrator 22.0.1, SVG Export Plug-In . SVG Version: 6.00 Build 0)  -->
<svg version="1.1" id="Слой_1" xmlns="http://www.w3.org/2000/svg" xmlns:xlink="http://www.w3.org/1999/xlink" x="0px" y="0px"
	 viewBox="0 0 150 150" style="enable-background:new 0 0 150 150;" xml:space="preserve">
<style type="text/css">
	.st0{fill:#FFFFFF;}
	.st1{fill:none;stroke:#FFFFFF;stroke-width:4;stroke-miterlimit:10;}
</style>
<g id="SvgjsG1169" transform="translate(47.4237327188414,-14.249335425757693) scale(1.7757346915893255)" xmlns:name="symbol_mainfill">
	<title>Artboard 11</title>
	<path class="st0" d="M24.2,13.5c-0.4-0.5-1.2-0.3-1.6-0.2c-1.2,0.4-1.5,1.4-1.8,2.2l-0.1,0.2c-0.3,1.1-0.6,2.3-0.7,3.4
		c-0.1,0.6-0.2,1.2-0.3,1.8c-0.1,0.6-0.2,1.2-0.2,1.8c0,0.8-0.2,1.6-0.4,2.3c-0.1-0.2-0.3-0.4-0.4-0.5c-0.3-0.7-0.6-1.3-1-1.9
		c-0.3-0.5-0.6-1-0.9-1.6c-0.4-0.9-0.8-1.7-1.3-2.5c-0.5-1-1-1.9-1.5-3c0-0.1-0.1-0.2-0.1-0.3c-0.3-0.7-0.7-1.7-1.4-2.1
		c-0.5-0.3-1.1-0.3-1.6,0c-0.6,0.3-1,0.8-1.1,1.4c0,0.7,0.1,1.5,0.4,2.1c0.1,0.2,0.2,0.4,0.2,0.6l0.2,0.5c0.2,0.7,0.4,1.3,0.7,2
		c0.2,0.5,0.5,1.1,0.7,1.6c0.1,0.3,0.3,0.6,0.4,0.9c0.1,0.3,0.3,0.5,0.4,0.8c0.3,0.4,0.6,1,0.6,1.3c0,0.1,0,0.1,0,0.2
		c0,0.4,0,0.8,0.1,1.2c-0.8,0-2.1,0-2.8,0.4c-0.5,0.3-0.8,0.7-0.9,1.3c-0.3,0-0.7,0.1-1,0.2c-0.5,0.1-1,0.4-1.5,0.7
		C7.2,28.5,7,28.9,7,29.4v0.1c-0.1,0.4-0.1,0.8,0,1.2c0,0.8,0,1.7-0.1,2.6c0,0.9-0.1,1.9-0.1,3s0.1,2.2,0.2,3.3v0.2
		c0.1,0.7,0.3,1.4,0.6,2.1c0.6,1.2,0.6,2.5,0.5,3.9c0,0.4,0,0.7,0,1.1c0,0.9,0,1.7-0.1,2.6c0,0.2,0,0.4,0,0.7c0,0.2,0,0.4,0,0.6
		c0,0.4,0,1.1,0,1.2c0,0.2,0.2,0.4,0.5,0.4l0,0c0.3,0,0.5-0.2,0.4-0.5l0,0c0-0.2-0.1-0.8,0-1.1c0-0.2,0-0.4,0-0.7c0-0.2,0-0.4,0-0.6
		c0-0.8,0.1-1.7,0.1-2.6c0-0.3,0-0.7,0-1c0-1.5,0.1-3-0.6-4.4C8.2,40.8,8,40.2,8,39.6v-0.2c-0.1-1.1-0.2-2.1-0.2-3.2
		c0-0.9,0-1.8,0.1-2.6c0.2,0.4,0.5,0.9,0.8,1.3c0.4,0.5,0.8,0.9,1.3,1.3c0.3,0.2,0.6,0.4,1,0.3h0.1c0.1,0,0.1,0,0.2,0
		c0.1,0,0.2,0,0.2,0l0,0c0,0,0,0,0.1,0c-0.8,1.6-1.1,3.8-0.3,5.4c0.1,0.2,0.3,0.4,0.4,0.6c-0.1,0-0.2,0-0.2,0
		c-0.4,0.1-0.9,0.2-1.3,0.2c-0.3,0-0.5,0.2-0.5,0.4c0,0.3,0.2,0.5,0.4,0.5l0,0c0.1,0,0.1,0,0.2,0c0.4,0,0.9-0.1,1.3-0.2
		c0.3-0.1,0.6-0.1,1-0.1c1,0.6,2.2,0.9,3.3,0.8c0.8,0,1.6-0.1,2.4-0.3c0.1,0,0.2-0.1,0.3-0.2c0,0.2,0,0.4,0,0.5
		c0.1,2.4,0.3,4.9,0.6,7.3c0,0.2,0.2,0.4,0.5,0.4c0,0,0,0,0.1,0c0.3,0,0.4-0.3,0.4-0.5c-0.4-2.4-0.6-6.5-0.6-7.1
		c0-0.7,0.2-1.4,0.4-2c0-0.2,0.1-0.3,0.1-0.5c0.5-2,1.1-3.9,1.8-5.8c0.1-0.2,0.2-0.4,0.2-0.6c0.4-0.8,0.6-1.6,0.7-2.4
		c0.1-0.5,0.1-1.1,0.2-1.6c0-0.4,0.1-0.8,0.1-1.2c0-0.3,0.1-0.6,0.1-0.9c0.1-0.6,0.2-1.2,0.2-1.8c0-0.8,0.1-1.6,0.2-2.3
		c0.2-1.7,0.2-3,0.3-4.4v-0.5c0.1-1,0.2-1.9,0.3-2.9V17c0.1-0.7,0.2-1.5,0.2-2.2c0-0.1,0-0.1,0-0.2C24.6,14.3,24.5,13.8,24.2,13.5z
		 M13.3,21.8c-0.1-0.3-0.3-0.6-0.4-0.9c-0.2-0.5-0.5-1-0.7-1.5c-0.2-0.6-0.5-1.3-0.7-1.9L11.3,17c-0.1-0.2-0.2-0.4-0.2-0.7
		c-0.3-0.5-0.4-1.1-0.4-1.7c0.1-0.3,0.3-0.6,0.6-0.7c0.2-0.1,0.5-0.1,0.7,0c0.5,0.3,0.8,1.1,1.1,1.7c0,0.1,0.1,0.2,0.1,0.3
		c0.4,1,1,2,1.5,3c0.4,0.8,0.9,1.6,1.2,2.5c0.1,0.3,0.3,0.6,0.4,0.8c-0.4-0.5-1-0.6-1.5-0.3c-0.4,0.2-0.7,0.5-0.9,0.9
		c-0.1-0.1-0.2-0.3-0.3-0.4C13.5,22.2,13.4,22,13.3,21.8z M10.8,29.1c0-0.3,0-0.5,0-0.7c0-1,0-1.3,0.5-1.6c0.4-0.2,1.8-0.3,2.6-0.2
		l0,0c0.3,0.7,0.8,1.3,1.2,1.8c0.1,0.1,0.2,0.2,0.3,0.3c0.2,0.2,0.4,0.4,0.5,0.6h-0.1c-0.1-0.1-0.3-0.3-0.4-0.4
		c-0.2-0.2-0.5-0.2-0.7-0.1c-0.2,0.2-0.2,0.4-0.1,0.6c-0.1,0-0.1,0-0.2,0c-0.1,0-0.2,0-0.3-0.1c0,0,0,0-0.1,0c0-0.2,0-0.4,0-0.5
		c0-0.3-0.2-0.5-0.5-0.5l0,0c-0.3,0-0.5,0.2-0.5,0.5l0,0c0,0.2,0,0.5,0,0.7c0.1,0.4,0.1,0.9,0,1.3V31c-0.1,0.3-0.1,0.6-0.2,1
		c0,0.3,0.1,0.5,0.2,0.8c0,0.1,0.1,0.2,0.1,0.3c0,0.2,0.1,0.4,0.1,0.6c-0.5,0.6-0.9,1.2-1.3,1.9c-0.1,0-0.1,0-0.2,0
		c-0.1-0.1-0.2-0.2-0.3-0.3c-0.1-0.3-0.2-0.5-0.3-0.8s-0.2-0.6-0.3-0.9c-0.1-0.3-0.2-0.7-0.2-1c0-0.2,0-0.4-0.1-0.7
		c-0.1-0.7-0.1-1.4,0-2.1C10.8,29.6,10.8,29.4,10.8,29.1z M14.2,32.9c0-0.1-0.1-0.2-0.1-0.3C14,32.4,14,32.2,14,32.1
		c0-0.2,0-0.5,0.1-0.7l0.1-0.2c0.1-0.2,0.1-0.5,0.1-0.8c0.1,0,0.2,0,0.3,0h0.1c0.3,0,0.6-0.1,0.8-0.3c0.2,0.1,0.4,0.1,0.7,0.1v0.1
		c0,0.3-0.1,0.6-0.1,0.8C15.3,31.7,14.7,32.3,14.2,32.9z M9.4,34.3c-0.4-0.6-0.8-1.2-1.1-1.8c-0.1-0.3-0.2-0.6-0.2-0.9l0,0
		c0-0.1,0-0.2-0.1-0.3c0-0.3-0.1-0.5-0.2-0.8s-0.1-0.5,0-0.8v-0.1c0-0.2,0.1-0.5,0.3-0.7c0.3-0.2,0.7-0.4,1.1-0.5
		c0.2-0.1,0.4-0.1,0.6-0.2c0,0.1,0,0.1,0,0.2c0,0.2,0,0.4,0,0.7c0,0.3,0,0.5,0,0.8c-0.1,0.8-0.1,1.5,0,2.3c0,0.2,0.1,0.4,0.1,0.6
		c0,0.4,0.1,0.9,0.2,1.3c0.1,0.3,0.2,0.6,0.3,0.8s0.1,0.5,0.2,0.7c-0.1,0-0.1-0.1-0.1-0.1C10.1,35.1,9.7,34.7,9.4,34.3z M23.6,14.6
		c0,0.1,0,0.2,0,0.3c0,0.7-0.1,1.4-0.2,2.1v0.3c-0.2,1-0.3,2-0.3,3v0.5c-0.1,1.4-0.1,2.7-0.3,4.4c-0.1,0.8-0.2,1.6-0.2,2.4
		c0,0.6-0.1,1.1-0.2,1.7c0,0.3-0.1,0.6-0.1,0.9c0,0.4-0.1,0.8-0.1,1.2c-0.1,0.5-0.1,1.1-0.2,1.6c-0.1,0.7-0.3,1.5-0.7,2.1
		c-0.1,0.2-0.2,0.4-0.2,0.6c-0.8,1.9-1.4,3.9-1.9,5.9c0,0.2-0.1,0.3-0.1,0.5c-0.1,0.4-0.2,0.8-0.3,1.2c-0.1-0.2-0.3-0.3-0.5-0.3
		c-0.8,0.2-4.8,1-6.1-1.5c-0.7-1.4-0.3-3.5,0.5-4.9c0.8-1.5,1.9-2.8,3.2-3.9c0,0.3,0,0.6,0.2,0.9c0.1,0.2,0.4,0.3,0.6,0.2
		s0.3-0.4,0.2-0.6c-0.2-0.4,0-0.9,0.1-1.5c0.1-0.4,0.2-0.9,0.2-1.3s-0.1-0.9-0.2-1.3s-0.4-0.8-0.7-1.1c-0.1-0.1-0.2-0.2-0.3-0.3
		c-0.6-0.6-1-1.4-1.4-2.2c-0.2-0.6-0.2-1.3,0-2c0.1-0.3,0.4-0.6,0.7-0.8c0.2-0.1,0.2-0.1,0.6,0.2l0.2,0.2c1.2,1.2,3,2.9,3.2,4
		c0.1,0.9,0.4,1.8,0.7,2.7c0.1,0.2,0.2,0.5,0.3,0.7c0.1,0.2,0.1,0.4,0.2,0.6c0,0.1,0.1,0.2,0.1,0.3c0.1,0.2,0.2,0.4,0.3,0.6
		c0,0.3,0.2,0.5,0.4,0.5c0.2,0,0.4-0.1,0.5-0.3c0.1-0.3,0-0.6-0.3-1.2c0-0.1-0.1-0.2-0.1-0.3c-0.1-0.2-0.1-0.3-0.2-0.5
		c-0.1-0.3-0.2-0.5-0.3-0.8c-0.3-0.8-0.6-1.6-0.7-2.4c-0.1-0.4-0.2-0.8-0.4-1.1c0.4-1,0.6-2.1,0.7-3.1c0.1-0.6,0.1-1.2,0.2-1.7
		c0.1-0.6,0.2-1.2,0.3-1.9c0.1-1.1,0.3-2.2,0.7-3.3l0.1-0.2c0.3-0.8,0.5-1.4,1.2-1.6c0.2-0.1,0.5-0.1,0.7-0.1
		C23.6,14.2,23.6,14.5,23.6,14.6L23.6,14.6z"/>
</g>
<g id="SvgjsG1168" transform="translate(0.6115879416465759,4.7132047681662925)" xmlns:name="main_text">
	<path class="st0" d="M81.2,80.6c-1,1.7-2.2,3.4-3.6,5.1s-2.8,3.3-4.4,4.8c-1.5,1.5-3.1,2.9-4.8,4.2c-1.6,1.3-3.3,2.5-4.8,3.5
		c-1.6,1-3.1,1.9-4.5,2.6s-2.7,1.2-3.8,1.5c-0.1-0.1-0.2,0.2-0.1,0.8c0.1,0.6,0.2,1.3,0.4,2.2c0.2,0.9,0.5,1.9,0.8,3.1
		c0.3,1.1,0.8,2.3,1.3,3.4c0.8,1.9,1.8,3.4,2.9,4.4c1.1,1.1,2.5,1.6,4,1.6c0.7,0,1.5-0.1,2.3-0.3c0.8-0.2,1.6-0.4,2.3-0.7
		c0.7-0.3,1.4-0.7,2-1.3c0.6-0.5,1.1-1.1,1.4-1.8c0.1-0.2,0.2-0.3,0.3-0.4c0.1-0.1,0.2-0.1,0.3-0.1c0.1,0,0.1,0.1,0.1,0.3
		c0,0.1-0.1,0.3-0.2,0.6c-0.4,0.7-0.9,1.4-1.5,2c-0.6,0.7-1.4,1.2-2.2,1.7c-0.8,0.5-1.6,0.9-2.5,1.2c-0.9,0.3-1.7,0.4-2.6,0.4
		c-1.1,0-2.1-0.2-3-0.6s-1.8-0.9-2.6-1.5s-1.5-1.4-2.2-2.3c-0.6-0.9-1.2-1.8-1.7-2.9c-0.5-1.2-1-2.4-1.3-3.6s-0.6-2.4-0.7-3.4
		c-0.1-1-0.2-1.9-0.2-2.6s0.1-1,0.3-1.1c0.5,0,1.3-0.2,2.4-0.6c1.1-0.5,2.5-1.1,4.1-2s3.3-2,5.1-3.3c1.9-1.3,3.7-2.7,5.5-4.3
		c1.9-1.6,3.6-3.3,5.4-5.2c1.7-1.8,3.3-3.8,4.6-5.9c0.2-0.3,0.4-0.6,0.6-0.6c0.2-0.1,0.3-0.1,0.4,0s0.2,0.2,0.2,0.4
		C81.5,80.2,81.4,80.4,81.2,80.6 M61.4,81.3c0.7-0.2,1.3-0.2,1.7,0.2s0.6,0.7,0.5,1.2s-0.5,1-1.2,1.5s-1.9,0.9-3.4,1
		c-1,1.8-1.9,3.7-2.6,6c-0.8,2.2-1.6,4.5-2.4,6.8c-0.8,2.3-1.8,4.7-2.8,6.9c-1,2.3-2.3,4.4-3.8,6.3s-3.3,3.5-5.4,4.8
		c-2.1,1.3-4.6,2.2-7.5,2.7c-1.5,0.2-2.9,0.2-4.4,0.1s-2.9-0.4-4.2-0.9s-2.5-1.1-3.6-1.9s-2-1.7-2.7-2.8c-0.7-1.1-1.1-2.3-1.4-3.7
		c-0.2-1.4-0.1-2.9,0.3-4.5c0.2-0.7,0.5-1.3,0.9-1.9s0.8-1,1.3-1.4c0.4-0.4,0.9-0.7,1.3-0.9c0.4-0.2,0.8-0.4,1-0.4
		c0.3-0.1,0.5,0,0.5,0.2s-0.1,0.3-0.2,0.4c-0.2,0.1-0.5,0.3-0.8,0.6c-0.4,0.3-0.8,0.7-1.2,1.2c-0.4,0.5-0.8,1.1-1.2,1.8
		c-0.4,0.7-0.6,1.5-0.7,2.3c-0.2,1.4-0.1,2.6,0.3,3.7s0.9,2,1.6,2.8s1.6,1.4,2.5,1.9s2,0.9,3.1,1.1c1.1,0.3,2.1,0.4,3.2,0.4
		s2.1-0.1,3-0.3c2.8-0.6,5.2-1.6,7.2-3s3.8-2.9,5.3-4.7c1.5-1.7,2.8-3.5,3.8-5.4s1.9-3.7,2.7-5.3c0.1-0.3,0.3-0.7,0.6-1.4
		c0.3-0.6,0.6-1.3,0.9-2.1s0.7-1.7,1.2-2.6c0.4-0.9,0.8-1.8,1.2-2.7c0.4-0.9,0.8-1.7,1.1-2.4c0.3-0.7,0.6-1.3,0.9-1.7
		c-0.9,0.1-1.8,0.2-2.7,0.3c-0.9,0.1-1.9,0.2-2.9,0.3c-1,0.1-1.9,0.2-2.9,0.4c-1,0.2-1.9,0.4-2.8,0.6c-1.9,0.5-3.5,1.3-4.7,2.3
		s-2.2,2.1-2.8,3.3c-0.6,1.2-1,2.3-1.1,3.5s0.1,2.2,0.5,3s1,1.5,1.8,1.8c0.8,0.4,1.8,0.3,3.1-0.1c0.6-0.2,1.2-0.6,1.7-1.2
		s0.8-1.2,1.1-1.9c0.3-0.7,0.4-1.4,0.5-2.2c0.1-0.7,0-1.4-0.1-2c-0.1-0.2,0-0.3,0.2-0.2c0.2,0.1,0.4,0.2,0.5,0.5
		c0.3,0.7,0.3,1.4,0.3,2.2c-0.1,0.8-0.3,1.5-0.6,2.3c-0.3,0.7-0.8,1.4-1.4,2c-0.6,0.6-1.2,1-1.9,1.2c-1.4,0.5-2.8,0.6-3.9,0.2
		c-1.2-0.4-2.1-1.1-2.8-2.1S36,97.3,35.9,96s0.2-2.7,0.8-4c0.7-1.3,1.8-2.6,3.3-3.7c1.6-1.2,3.6-2,6.3-2.6c1.1-0.2,2.1-0.4,3.2-0.6
		c1.1-0.1,2.2-0.2,3.2-0.3c1.1-0.1,2.1-0.2,3.1-0.2c1-0.1,1.9-0.1,2.8-0.2c0.1-0.1,0.2-0.3,0.4-0.6c0.2-0.3,0.4-0.6,0.7-1
		c0.3-0.3,0.6-0.6,0.9-0.9C60.7,81.6,61.1,81.4,61.4,81.3 M61.4,83.8c0.4-0.2,0.7-0.4,0.9-0.7c0.2-0.2,0.2-0.4,0.2-0.6
		c-0.1-0.2-0.2-0.2-0.4-0.3c-0.2,0-0.5,0.1-0.8,0.4c-0.3,0.2-0.5,0.5-0.8,0.8S60,84,59.8,84.2C60.4,84.2,61,84,61.4,83.8z
		 M126.1,116.1c0.4,0,0.6,0,0.7,0.1s0.2,0.2,0.1,0.3c-0.1,0.1-0.2,0.2-0.5,0.2c-0.2,0.1-0.6,0.1-0.9,0c-0.4,0-1-0.1-1.7-0.3
		c-0.7-0.2-1.5-0.5-2.2-1s-1.3-1.2-1.7-2.2c-0.5-1-0.6-2.2-0.5-3.9c0.1-1.2,0.4-2.4,0.8-3.7c0.4-1.3,0.9-2.7,1.5-4.1
		s1.2-2.8,1.9-4.3c0.7-1.4,1.3-2.9,1.9-4.3c0.8-1.8,1.1-3.1,1-3.9s-0.5-1.2-1.3-1s-1.8,0.8-3.2,2c-1.4,1.1-2.9,2.8-4.7,5
		c-0.4,0.5-0.9,1.2-1.5,2c-0.6,0.9-1.3,1.8-2,2.9c-0.7,1-1.4,2.1-2.1,3.3c-0.7,1.1-1.4,2.2-2,3.3c-0.6,1.1-1.2,2-1.7,2.9
		s-0.9,1.6-1.1,2.2c-0.4,0.9-0.8,1.4-1.3,1.7c-0.5,0.3-0.9,0.4-1.3,0.4c-0.4-0.1-0.7-0.2-0.9-0.5c-0.2-0.3-0.2-0.6,0-0.8
		c0.2-0.3,0.6-1.1,1.2-2.2c0.7-1.2,1.4-2.8,2.3-4.7c0.8-1.9,1.7-4.2,2.4-6.8c0.8-2.6,1.4-5.5,1.8-8.7c0.2-1.2,0.1-2.2-0.2-2.8
		c-0.3-0.6-0.7-1-1.3-1c-0.6,0-1.2,0.2-2,0.7c-0.7,0.5-1.5,1.2-2.3,2.2c-1.1,1.4-2.1,2.7-3,3.9c-0.9,1.2-1.7,2.4-2.4,3.6
		c-0.7,1.2-1.4,2.4-2.1,3.6s-1.3,2.5-2,3.9s-1.3,2.9-2.1,4.5c-0.7,1.6-1.5,3.4-2.4,5.4c-0.2,0.4-0.4,0.6-0.8,0.8
		c-0.4,0.2-0.8,0.3-1.2,0.3c-0.4,0-0.7,0-1-0.2s-0.3-0.4-0.2-0.7c0.5-0.9,1.1-1.9,1.8-3.2c0.6-1.3,1.3-2.6,1.9-4.1s1.3-3,1.9-4.6
		s1.2-3.2,1.7-4.7s1-3,1.3-4.4c0.4-1.4,0.6-2.6,0.8-3.7c0.3-1.9,0.2-3.5-0.1-4.6c-0.4-1.1-0.9-2-1.7-2.4c-0.8-0.5-1.7-0.7-2.9-0.6
		c-1.1,0.1-2.3,0.4-3.6,0.9c-1.3,0.5-2.6,1.2-3.9,2.1s-2.5,1.9-3.7,3c-1.1,1.1-2.2,2.3-3.1,3.6c-0.9,1.3-1.6,2.5-2.1,3.8
		c-0.8,2.2-1.2,4.2-1,5.9s0.6,3,1.4,4s1.8,1.6,3,1.9s2.5,0.2,3.7-0.3c0.8-0.3,1.6-0.8,2.3-1.5c0.7-0.7,1.4-1.4,1.9-2.3
		c0.5-0.8,0.9-1.7,1.2-2.6c0.3-0.9,0.4-1.7,0.3-2.3c-0.1-0.7-0.4-1.2-0.9-1.6S87,96,86,96.1c-0.2,0-0.4,0-0.5-0.1
		c-0.2-0.1-0.3-0.1-0.3-0.2c-0.1-0.1,0-0.2,0.1-0.3c0.1-0.1,0.4-0.2,0.9-0.2c1.1-0.2,2,0,2.6,0.4c0.7,0.4,1.1,0.9,1.4,1.6
		s0.3,1.5,0.2,2.5c-0.1,0.9-0.5,1.9-1,2.9c-0.6,1-1.3,1.9-2.3,2.8s-2.2,1.6-3.6,2.2c-1,0.4-1.9,0.6-2.9,0.5c-1,0-2-0.3-2.9-0.7
		c-0.9-0.4-1.7-1-2.4-1.8c-0.7-0.8-1.2-1.7-1.6-2.8c-0.4-1.1-0.5-2.2-0.4-3.6c0.1-1.3,0.4-2.8,1.1-4.3c0.7-1.6,1.6-3.2,2.8-4.6
		c1.1-1.4,2.4-2.7,3.8-3.9c1.4-1.2,2.8-2.2,4.3-3s3-1.4,4.5-1.8s2.8-0.6,4.1-0.5c1.3,0.1,2.4,0.4,3.3,1s1.6,1.5,2.1,2.8
		c0.5,1.2,0.6,2.8,0.4,4.8c-0.1,1.2-0.4,2.5-0.7,3.8c-0.4,1.3-0.8,2.6-1.3,3.9c-0.3,0.7-0.3,1.2-0.2,1.2c0.1,0.1,0.4-0.2,0.7-0.8
		c0.6-1,1.1-1.9,1.5-2.7c0.5-0.8,0.9-1.6,1.4-2.3s1-1.4,1.5-2.1s1.1-1.5,1.8-2.3c0.7-0.9,1.7-1.6,2.7-2.2c1.1-0.6,2.1-0.9,3-0.9
		c1,0,1.7,0.3,2.3,1c0.6,0.7,0.8,1.9,0.7,3.5c-0.2,2.5-0.7,4.9-1.5,7.3c-0.7,2.4-1.5,4.8-2.3,7.2c0.4-0.6,0.9-1.3,1.4-2.1
		c0.6-0.8,1.2-1.7,1.8-2.6c0.7-0.9,1.4-1.9,2.1-2.9s1.5-2,2.3-3c1.5-1.9,2.9-3.4,4.2-4.5c1.3-1.1,2.4-1.9,3.5-2.4
		c1-0.5,1.9-0.6,2.5-0.5c0.7,0.1,1.2,0.5,1.4,1.1c0.3,0.6,0.3,1.5,0.1,2.6s-0.7,2.4-1.4,3.9c-0.6,1.1-1.2,2.4-1.9,4
		c-0.7,1.6-1.4,3.2-2,4.8c-0.6,1.7-1.1,3.3-1.5,5c-0.4,1.6-0.6,3.1-0.5,4.4s0.4,2.3,1.1,3.1C123.5,115.8,124.6,116.2,126.1,116.1z"
		/>
</g>
<circle class="st1" cx="75" cy="75" r="73"/>
</svg>
