<?xml version="1.0" encoding="utf-8"?>
<!-- Generator: Adobe Illustrator 22.0.1, SVG Export Plug-In . SVG Version: 6.00 Build 0)  -->
<svg version="1.1" id="Слой_1" xmlns="http://www.w3.org/2000/svg" xmlns:xlink="http://www.w3.org/1999/xlink" x="0px" y="0px"
	 viewBox="0 0 120 30" style="enable-background:new 0 0 120 30;" xml:space="preserve">
<style type="text/css">
	.st0{fill:#FFFFFF;}
</style>
<g id="OUTLINE_copy_2">
	<g>
		<path class="st0" d="M15,0C6.7,0,0,6.7,0,15s6.7,15,15,15s15-6.7,15-15S23.3,0,15,0z M11.1,20.9H8v-9.2h3.1V20.9z M9.6,10.4
			L9.6,10.4c-1,0-1.7-0.7-1.7-1.6s0.7-1.6,1.7-1.6s1.7,0.7,1.7,1.6S10.6,10.4,9.6,10.4z M22.1,20.9L22.1,20.9H19V16
			c0-1.2-0.4-2.1-1.6-2.1c-0.8,0-1.3,0.6-1.6,1.1c-0.1,0.2-0.1,0.5-0.1,0.7v5.1h-3.1c0,0,0-8.3,0-9.2h3.1V13
			c0.4-0.6,1.1-1.5,2.8-1.5c2,0,3.5,1.3,3.5,4.1C22.1,15.6,22.1,20.9,22.1,20.9z"/>
	</g>
</g>
<g id="OUTLINE_copy_2_1_">
	<g>
		<path class="st0" d="M45,0c-8.3,0-15,6.7-15,15s6.7,15,15,15s15-6.7,15-15S53.3,0,45,0z M48.3,15h-2.1v7.6H43V15h-1.6v-2.6H43
			v-1.6c0-2.1,0.9-3.4,3.4-3.4h2.1V10h-1.3c-1,0-1,0.4-1,1.1v1.3h2.4L48.3,15z"/>
	</g>
</g>
<g>
	<path class="st0" d="M77.4,20.8c2.9-0.3,6-1.4,6-6.5c0-1.4-0.5-2.6-1.3-3.5c0.1-0.3,0.6-1.6-0.2-3.5c0,0-1.1-0.3-3.6,1.3
		c-1.1-0.3-2.2-0.5-3.3-0.5c-1.1,0-2.3,0.2-3.3,0.5c-2.5-1.7-3.6-1.3-3.6-1.3c-0.7,1.8-0.3,3.1-0.2,3.5c-0.8,0.9-1.3,2.1-1.3,3.5
		c0,5,3.1,6.1,6,6.5c-0.4,0.3-0.7,0.9-0.9,1.8c-0.7,0.3-2.7,0.9-3.9-1.1c0,0-0.7-1.2-2-1.3c0,0-1.3,0-0.1,0.8c0,0,0.9,0.4,1.5,1.9
		c0,0,0.8,2.5,4.5,1.7v2.3c0,0.3-0.3,0.7-0.9,0.6c-5.2-1.7-9-6.7-9-12.5c0-7.3,5.9-13.1,13.1-13.1S88,7.8,88,15
		c0,5.8-3.7,10.7-9,12.5c-0.7,0.1-0.9-0.3-0.9-0.6v-3.6C78.2,21.9,77.8,21.2,77.4,20.8L77.4,20.8z M90,15c0-8.3-6.7-15-15-15
		S60,6.7,60,15s6.7,15,15,15S90,23.3,90,15L90,15z"/>
</g>
<g>
	<g>
		<path class="st0" d="M105,1.5c7.4,0,13.5,6.1,13.5,13.5s-6.1,13.5-13.5,13.5S91.5,22.4,91.5,15S97.6,1.5,105,1.5 M105,0
			c-8.3,0-15,6.7-15,15s6.7,15,15,15s15-6.7,15-15S113.3,0,105,0L105,0z"/>
	</g>
	<path class="st0" d="M99.4,8h11.2c1.1,0,1.9,0.9,1.9,1.9v11.2c0,1.1-0.9,1.9-1.9,1.9H99.4c-1.1,0-1.9-0.9-1.9-1.9V9.9
		C97.5,8.9,98.3,8,99.4,8L99.4,8z M108.4,9.7c-0.4,0-0.7,0.3-0.7,0.7V12c0,0.4,0.3,0.7,0.7,0.7h1.7c0.4,0,0.7-0.3,0.7-0.7v-1.6
		c0-0.4-0.3-0.7-0.7-0.7H108.4L108.4,9.7z M110.8,14.3h-1.3c0.1,0.4,0.2,0.8,0.2,1.3c0,2.5-2.1,4.5-4.7,4.5s-4.7-2-4.7-4.5
		c0-0.5,0.1-0.9,0.2-1.3h-1.4v6.4c0,0.3,0.3,0.6,0.6,0.6h10.5c0.3,0,0.6-0.3,0.6-0.6L110.8,14.3L110.8,14.3z M105,12.5
		c-1.7,0-3,1.3-3,2.9s1.4,2.9,3,2.9c1.7,0,3-1.3,3-2.9C108,13.9,106.7,12.5,105,12.5z"/>
</g>
</svg>
