<?xml version="1.0" encoding="utf-8"?>
<!-- Generator: Adobe Illustrator 22.0.1, SVG Export Plug-In . SVG Version: 6.00 Build 0)  -->
<svg version="1.1" id="Capa_1" xmlns="http://www.w3.org/2000/svg" xmlns:xlink="http://www.w3.org/1999/xlink" x="0px" y="0px"
	 viewBox="0 0 80 100" style="enable-background:new 0 0 80 100;" xml:space="preserve">
<style type="text/css">
	.st0{fill:#FFFFFF;}
</style>
<g>
	<g>
		<path class="st0" d="M65.1,3.1L65.1,3.1c-0.4,0-0.8,0.3-0.8,0.8s0.4,0.8,0.8,0.8c0.4,0,0.8-0.3,0.8-0.8
			C65.9,3.5,65.6,3.1,65.1,3.1z"/>
	</g>
</g>
<g>
	<g>
		<path class="st0" d="M62,3.1L62,3.1c-0.4,0-0.8,0.3-0.8,0.8s0.4,0.8,0.8,0.8c0.4,0,0.8-0.3,0.8-0.8C62.8,3.5,62.4,3.1,62,3.1z"/>
	</g>
</g>
<g>
	<g>
		<path class="st0" d="M58.9,3.1L58.9,3.1c-0.4,0-0.8,0.3-0.8,0.8s0.4,0.8,0.8,0.8c0.4,0,0.8-0.3,0.8-0.8
			C59.7,3.5,59.3,3.1,58.9,3.1z"/>
	</g>
</g>
<g>
	<g>
		<path class="st0" d="M10.2,0C9.8,0,9.4,0.3,9.4,0.8v21.9c0,0.4,0.4,0.8,0.8,0.8s0.8-0.3,0.8-0.8V0.8C11,0.3,10.6,0,10.2,0z"/>
	</g>
</g>
<g>
	<g>
		<path class="st0" d="M69.8,0H10.2C9.8,0,9.4,0.3,9.4,0.8s0.4,0.8,0.8,0.8h59.6c0.4,0,0.8-0.3,0.8-0.8C70.6,0.3,70.2,0,69.8,0z"/>
	</g>
</g>
<g>
	<g>
		<path class="st0" d="M69.8,0C69.4,0,69,0.3,69,0.8v21.9c0,0.4,0.4,0.8,0.8,0.8s0.8-0.3,0.8-0.8V0.8C70.6,0.3,70.2,0,69.8,0z"/>
	</g>
</g>
<g>
	<g>
		<path class="st0" d="M69.8,76.6c-0.4,0-0.8,0.3-0.8,0.8v21.9c0,0.4,0.4,0.8,0.8,0.8s0.8-0.3,0.8-0.8V77.3
			C70.6,76.9,70.2,76.6,69.8,76.6z"/>
	</g>
</g>
<g>
	<g>
		<path class="st0" d="M69.8,98.4H10.2c-0.4,0-0.8,0.3-0.8,0.8s0.4,0.8,0.8,0.8h59.6c0.4,0,0.8-0.3,0.8-0.8
			C70.6,98.8,70.2,98.4,69.8,98.4z"/>
	</g>
</g>
<g>
	<g>
		<path class="st0" d="M10.2,76.6c-0.4,0-0.8,0.3-0.8,0.8v21.9c0,0.4,0.4,0.8,0.8,0.8s0.8-0.3,0.8-0.8V77.3
			C11,76.9,10.6,76.6,10.2,76.6z"/>
	</g>
</g>
<g>
	<g>
		<path class="st0" d="M40,26.6L40,26.6c-0.4,0-0.8,0.3-0.8,0.8c0,0.4,0.4,0.8,0.8,0.8c0.4,0,0.8-0.3,0.8-0.8
			C40.8,26.9,40.5,26.6,40,26.6z"/>
	</g>
</g>
<g>
	<g>
		<path class="st0" d="M71.4,25H8.6c-1.3,0-2.4,1.1-2.4,2.3v42.2c0,0.4,0.4,0.8,0.8,0.8h65.9c0.4,0,0.8-0.3,0.8-0.8V27.3
			C73.7,26.1,72.7,25,71.4,25z M72.2,68.8H7.8V27.3c0-0.4,0.4-0.8,0.8-0.8h62.7c0.4,0,0.8,0.4,0.8,0.8L72.2,68.8L72.2,68.8z"/>
	</g>
</g>
<g>
	<g>
		<path class="st0" d="M79.2,68.8H0.8c-0.4,0-0.8,0.3-0.8,0.8v3.1C0,73.9,1.1,75,2.4,75h75.3c1.3,0,2.4-1.1,2.4-2.3v-3.1
			C80,69.1,79.6,68.8,79.2,68.8z M78.4,72.7c0,0.4-0.4,0.8-0.8,0.8H2.4c-0.4,0-0.8-0.4-0.8-0.8v-2.3h76.9V72.7z"/>
	</g>
</g>
<g>
	<g>
		<path class="st0" d="M69.8,28.1H10.2c-0.4,0-0.8,0.3-0.8,0.8v37.5c0,0.4,0.4,0.8,0.8,0.8h59.6c0.4,0,0.8-0.3,0.8-0.8V28.9
			C70.6,28.5,70.2,28.1,69.8,28.1z M69,65.6H11V29.7h58V65.6z"/>
	</g>
</g>
<g>
	<g>
		<path class="st0" d="M47.1,70.3H32.9c-0.4,0-0.8,0.3-0.8,0.8c0,0.4,0.4,0.8,0.8,0.8h14.1c0.4,0,0.8-0.3,0.8-0.8
			C47.8,70.7,47.5,70.3,47.1,70.3z"/>
	</g>
</g>
<g>
	<g>
		<path class="st0" d="M65.1,39.1c-1.3,0-2.4,1.1-2.4,2.3c0,1.3,1.1,2.3,2.4,2.3c1.3,0,2.4-1.1,2.4-2.3
			C67.5,40.1,66.4,39.1,65.1,39.1z M65.1,42.2c-0.4,0-0.8-0.4-0.8-0.8c0-0.4,0.4-0.8,0.8-0.8c0.4,0,0.8,0.4,0.8,0.8
			C65.9,41.8,65.5,42.2,65.1,42.2z"/>
	</g>
</g>
<g>
	<g>
		<path class="st0" d="M65.1,36.7c-0.4,0-0.8,0.3-0.8,0.8v2.3c0,0.4,0.4,0.8,0.8,0.8c0.4,0,0.8-0.3,0.8-0.8v-2.3
			C65.9,37.1,65.5,36.7,65.1,36.7z"/>
	</g>
</g>
<g>
	<g>
		<path class="st0" d="M65.1,54.7c-0.4,0-0.8,0.3-0.8,0.8v2.3c0,0.4,0.4,0.8,0.8,0.8c0.4,0,0.8-0.3,0.8-0.8v-2.3
			C65.9,55,65.5,54.7,65.1,54.7z"/>
	</g>
</g>
<g>
	<g>
		<path class="st0" d="M65.1,45.3c-1.3,0-2.4,1.1-2.4,2.3c0,1.3,1.1,2.3,2.4,2.3c1.3,0,2.4-1.1,2.4-2.3
			C67.5,46.4,66.4,45.3,65.1,45.3z M65.1,48.4c-0.4,0-0.8-0.4-0.8-0.8c0-0.4,0.4-0.8,0.8-0.8c0.4,0,0.8,0.4,0.8,0.8
			C65.9,48.1,65.5,48.4,65.1,48.4z"/>
	</g>
</g>
<g>
	<g>
		<path class="st0" d="M65.1,42.2c-0.4,0-0.8,0.3-0.8,0.8v3.1c0,0.4,0.4,0.8,0.8,0.8c0.4,0,0.8-0.3,0.8-0.8V43
			C65.9,42.5,65.5,42.2,65.1,42.2z"/>
	</g>
</g>
<g>
	<g>
		<path class="st0" d="M65.1,51.6c-1.3,0-2.4,1.1-2.4,2.3c0,1.3,1.1,2.3,2.4,2.3c1.3,0,2.4-1.1,2.4-2.3
			C67.5,52.6,66.4,51.6,65.1,51.6z M65.1,54.7c-0.4,0-0.8-0.4-0.8-0.8c0-0.4,0.4-0.8,0.8-0.8c0.4,0,0.8,0.4,0.8,0.8
			C65.9,54.3,65.5,54.7,65.1,54.7z"/>
	</g>
</g>
<g>
	<g>
		<path class="st0" d="M65.1,48.4c-0.4,0-0.8,0.3-0.8,0.8v3.1c0,0.4,0.4,0.8,0.8,0.8c0.4,0,0.8-0.3,0.8-0.8v-3.1
			C65.9,48.8,65.5,48.4,65.1,48.4z"/>
	</g>
</g>
<g>
	<g>
		<path class="st0" d="M62.6,66L48.5,41c-0.1-0.2-0.4-0.4-0.7-0.4c-0.3,0-0.5,0.1-0.7,0.4L31.5,66c-0.2,0.4-0.1,0.8,0.2,1.1
			c0.4,0.2,0.9,0.1,1.1-0.2l15-23.9l13.5,23.9c0.1,0.3,0.4,0.4,0.7,0.4c0.1,0,0.3,0,0.4-0.1C62.7,66.9,62.9,66.4,62.6,66z"/>
	</g>
</g>
<g>
	<g>
		<path class="st0" d="M37.8,58l-4.2-7.6C33.5,50.2,33.2,50,33,50c-0.3,0-0.5,0.1-0.7,0.4L22.1,66c-0.2,0.4-0.1,0.8,0.2,1.1
			c0.1,0.1,0.3,0.1,0.4,0.1c0.3,0,0.5-0.1,0.7-0.4l9.5-14.5l3.6,6.5c0.2,0.4,0.7,0.5,1.1,0.3C37.9,58.9,38.1,58.4,37.8,58z"/>
	</g>
</g>
<g>
	<g>
		<path class="st0" d="M32.2,32.8H14.9c-0.4,0-0.8,0.3-0.8,0.8c0,0.4,0.4,0.8,0.8,0.8h17.3c0.4,0,0.8-0.3,0.8-0.8
			C32.9,33.2,32.6,32.8,32.2,32.8z"/>
	</g>
</g>
<g>
	<g>
		<path class="st0" d="M32.2,35.9H14.9c-0.4,0-0.8,0.3-0.8,0.8c0,0.4,0.4,0.8,0.8,0.8h17.3c0.4,0,0.8-0.3,0.8-0.8
			S32.6,35.9,32.2,35.9z"/>
	</g>
</g>
<g>
	<g>
		<path class="st0" d="M22.7,39.1h-7.8c-0.4,0-0.8,0.3-0.8,0.8c0,0.4,0.4,0.8,0.8,0.8h7.8c0.4,0,0.8-0.3,0.8-0.8
			C23.5,39.4,23.2,39.1,22.7,39.1z"/>
	</g>
</g>
<g>
	<g>
		<path class="st0" d="M17.3,43.8c-1.7,0-3.1,1.4-3.1,3.1s1.4,3.1,3.1,3.1c1.7,0,3.1-1.4,3.1-3.1S19,43.8,17.3,43.8z M17.3,48.4
			c-0.9,0-1.6-0.7-1.6-1.6c0-0.9,0.7-1.6,1.6-1.6c0.9,0,1.6,0.7,1.6,1.6C18.8,47.7,18.1,48.4,17.3,48.4z"/>
	</g>
</g>
<g>
	<g>
		<path class="st0" d="M21.2,81.2c-1.8,0-3.1,1.4-3.1,3.3c0,1.9,1.8,3.7,3.1,3.7c1.4,0,3.1-1.8,3.1-3.7C24.3,82.7,23,81.2,21.2,81.2
			z M21.2,86.7c-0.4,0-1.6-1-1.6-2.2c0-1,0.6-1.8,1.6-1.8c0.9,0,1.6,0.7,1.6,1.8C22.7,85.7,21.6,86.7,21.2,86.7z"/>
	</g>
</g>
<g>
	<g>
		<path class="st0" d="M25.8,88.4c-0.9-0.2-2.1-0.5-2.5-0.7c-0.1-0.2-0.4-0.3-0.6-0.3c-0.4,0-0.8,0.3-0.8,0.8c0,0.6,0.2,1,3.5,1.7
			c0.1,0,0.1,0,0.2,0c0.4,0,0.7-0.3,0.8-0.6C26.5,88.9,26.2,88.5,25.8,88.4z"/>
	</g>
</g>
<g>
	<g>
		<path class="st0" d="M22.7,85.8c-0.4,0-0.8,0.3-0.8,0.8v1.7c0,0.4,0.4,0.8,0.8,0.8s0.8-0.3,0.8-0.8v-1.7
			C23.5,86.1,23.2,85.8,22.7,85.8z"/>
	</g>
</g>
<g>
	<g>
		<path class="st0" d="M19.6,87.5c-0.2,0-0.4,0.1-0.6,0.3c-0.4,0.2-1.5,0.5-2.5,0.7c-0.4,0.1-0.7,0.5-0.6,0.9
			c0.1,0.4,0.4,0.6,0.8,0.6c0.1,0,0.1,0,0.2,0c3.4-0.7,3.5-1.1,3.5-1.7C20.4,87.8,20,87.5,19.6,87.5z"/>
	</g>
</g>
<g>
	<g>
		<path class="st0" d="M19.6,85.8c-0.4,0-0.8,0.3-0.8,0.8v1.7c0,0.4,0.4,0.8,0.8,0.8c0.4,0,0.8-0.3,0.8-0.8v-1.7
			C20.4,86.1,20,85.8,19.6,85.8z"/>
	</g>
</g>
<g>
	<g>
		<path class="st0" d="M21.2,78.1c-3.9,0-7.1,3.2-7.1,7c0,3.9,3.2,7,7.1,7c3.9,0,7.1-3.2,7.1-7C28.2,81.3,25.1,78.1,21.2,78.1z
			 M21.2,90.6c-3,0-5.5-2.5-5.5-5.5s2.5-5.5,5.5-5.5c3,0,5.5,2.5,5.5,5.5C26.7,88.2,24.2,90.6,21.2,90.6z"/>
	</g>
</g>
<g>
	<g>
		<path class="st0" d="M40,81.2c-1.8,0-3.1,1.4-3.1,3.3c0,1.9,1.8,3.7,3.1,3.7c1.4,0,3.1-1.8,3.1-3.7C43.1,82.7,41.8,81.2,40,81.2z
			 M40,86.7c-0.4,0-1.6-1-1.6-2.2c0-1,0.6-1.8,1.6-1.8c0.9,0,1.6,0.7,1.6,1.8C41.6,85.7,40.4,86.7,40,86.7z"/>
	</g>
</g>
<g>
	<g>
		<path class="st0" d="M44.6,88.4c-1-0.2-2.1-0.5-2.5-0.7c-0.1-0.2-0.4-0.3-0.6-0.3c-0.4,0-0.8,0.3-0.8,0.8c0,0.6,0.2,1,3.5,1.7
			c0.1,0,0.1,0,0.2,0c0.4,0,0.7-0.3,0.8-0.6C45.3,88.9,45.1,88.5,44.6,88.4z"/>
	</g>
</g>
<g>
	<g>
		<path class="st0" d="M41.6,85.8c-0.4,0-0.8,0.3-0.8,0.8v1.7c0,0.4,0.4,0.8,0.8,0.8s0.8-0.3,0.8-0.8v-1.7
			C42.4,86.1,42,85.8,41.6,85.8z"/>
	</g>
</g>
<g>
	<g>
		<path class="st0" d="M38.4,87.5c-0.2,0-0.4,0.1-0.6,0.3c-0.4,0.2-1.5,0.5-2.5,0.7c-0.4,0.1-0.7,0.5-0.6,0.9
			c0.1,0.4,0.4,0.6,0.8,0.6c0.1,0,0.1,0,0.2,0c3.4-0.7,3.5-1.1,3.5-1.7C39.2,87.8,38.9,87.5,38.4,87.5z"/>
	</g>
</g>
<g>
	<g>
		<path class="st0" d="M38.4,85.8c-0.4,0-0.8,0.3-0.8,0.8v1.7c0,0.4,0.4,0.8,0.8,0.8c0.4,0,0.8-0.3,0.8-0.8v-1.7
			C39.2,86.1,38.9,85.8,38.4,85.8z"/>
	</g>
</g>
<g>
	<g>
		<path class="st0" d="M40,78.1c-3.9,0-7.1,3.2-7.1,7c0,3.9,3.2,7,7.1,7c3.9,0,7.1-3.2,7.1-7C47.1,81.3,43.9,78.1,40,78.1z M40,90.6
			c-3,0-5.5-2.5-5.5-5.5s2.5-5.5,5.5-5.5c3,0,5.5,2.5,5.5,5.5C45.5,88.2,43,90.6,40,90.6z"/>
	</g>
</g>
<g>
	<g>
		<path class="st0" d="M58.8,81.2c-1.8,0-3.1,1.4-3.1,3.3c0,1.9,1.8,3.7,3.1,3.7s3.1-1.8,3.1-3.7C62,82.7,60.6,81.2,58.8,81.2z
			 M58.8,86.7c-0.4,0-1.6-1-1.6-2.2c0-1,0.6-1.8,1.6-1.8c0.9,0,1.6,0.7,1.6,1.8C60.4,85.7,59.2,86.7,58.8,86.7z"/>
	</g>
</g>
<g>
	<g>
		<path class="st0" d="M63.5,88.4c-1-0.2-2.1-0.5-2.5-0.7c-0.1-0.2-0.4-0.3-0.6-0.3c-0.4,0-0.8,0.3-0.8,0.8c0,0.6,0.2,1,3.5,1.7
			c0.1,0,0.1,0,0.2,0c0.4,0,0.7-0.3,0.8-0.6C64.2,88.9,63.9,88.5,63.5,88.4z"/>
	</g>
</g>
<g>
	<g>
		<path class="st0" d="M60.4,85.8c-0.4,0-0.8,0.3-0.8,0.8v1.7c0,0.4,0.4,0.8,0.8,0.8c0.4,0,0.8-0.3,0.8-0.8v-1.7
			C61.2,86.1,60.8,85.8,60.4,85.8z"/>
	</g>
</g>
<g>
	<g>
		<path class="st0" d="M57.3,87.5c-0.2,0-0.4,0.1-0.6,0.3c-0.4,0.2-1.5,0.5-2.5,0.7c-0.4,0.1-0.7,0.5-0.6,0.9
			c0.1,0.4,0.4,0.6,0.8,0.6c0.1,0,0.1,0,0.2,0c3.4-0.7,3.5-1.1,3.5-1.7C58,87.8,57.7,87.5,57.3,87.5z"/>
	</g>
</g>
<g>
	<g>
		<path class="st0" d="M57.3,85.8c-0.4,0-0.8,0.3-0.8,0.8v1.7c0,0.4,0.4,0.8,0.8,0.8s0.8-0.3,0.8-0.8v-1.7
			C58,86.1,57.7,85.8,57.3,85.8z"/>
	</g>
</g>
<g>
	<g>
		<path class="st0" d="M58.8,78.1c-3.9,0-7.1,3.2-7.1,7c0,3.9,3.2,7,7.1,7c3.9,0,7.1-3.2,7.1-7C65.9,81.3,62.7,78.1,58.8,78.1z
			 M58.8,90.6c-3,0-5.5-2.5-5.5-5.5s2.5-5.5,5.5-5.5s5.5,2.5,5.5,5.5C64.3,88.2,61.9,90.6,58.8,90.6z"/>
	</g>
</g>
<g>
	<g>
		<path class="st0" d="M69.8,6.2H10.2C9.8,6.2,9.4,6.6,9.4,7c0,0.4,0.4,0.8,0.8,0.8h59.6c0.4,0,0.8-0.3,0.8-0.8
			C70.6,6.6,70.2,6.2,69.8,6.2z"/>
	</g>
</g>
<g>
	<g>
		<path class="st0" d="M40,1.6c-1.3,0-2.4,1.1-2.4,2.3s1.1,2.3,2.4,2.3c1.3,0,2.4-1.1,2.4-2.3S41.3,1.6,40,1.6z M40,4.7
			c-0.4,0-0.8-0.4-0.8-0.8s0.4-0.8,0.8-0.8c0.4,0,0.8,0.4,0.8,0.8S40.4,4.7,40,4.7z"/>
	</g>
</g>
<g>
	<g>
		<path class="st0" d="M19.6,3.1h-4.7c-0.4,0-0.8,0.3-0.8,0.8s0.4,0.8,0.8,0.8h4.7c0.4,0,0.8-0.3,0.8-0.8C20.4,3.5,20,3.1,19.6,3.1z
			"/>
	</g>
</g>
<g>
	<g>
		<path class="st0" d="M27.5,3.1h-4.7c-0.4,0-0.8,0.3-0.8,0.8s0.4,0.8,0.8,0.8h4.7c0.4,0,0.8-0.3,0.8-0.8
			C28.2,3.5,27.9,3.1,27.5,3.1z"/>
	</g>
</g>
<g>
	<g>
		<path class="st0" d="M62,12.5H18c-0.4,0-0.8,0.3-0.8,0.8c0,0.4,0.4,0.8,0.8,0.8H62c0.4,0,0.8-0.3,0.8-0.8
			C62.7,12.8,62.4,12.5,62,12.5z"/>
	</g>
</g>
<g>
	<g>
		<path class="st0" d="M55.7,15.6H24.3c-0.4,0-0.8,0.3-0.8,0.8c0,0.4,0.4,0.8,0.8,0.8h31.4c0.4,0,0.8-0.3,0.8-0.8
			C56.5,16,56.1,15.6,55.7,15.6z"/>
	</g>
</g>
<g>
	<g>
		<path class="st0" d="M47.8,18.8H32.2c-0.4,0-0.8,0.3-0.8,0.8s0.4,0.8,0.8,0.8h15.7c0.4,0,0.8-0.3,0.8-0.8S48.3,18.8,47.8,18.8z"/>
	</g>
</g>
<g>
	<g>
		<path class="st0" d="M24.3,93.8H18c-0.4,0-0.8,0.3-0.8,0.8c0,0.4,0.4,0.8,0.8,0.8h6.3c0.4,0,0.8-0.3,0.8-0.8
			C25.1,94.1,24.7,93.8,24.3,93.8z"/>
	</g>
</g>
<g>
	<g>
		<path class="st0" d="M43.1,93.8h-6.3c-0.4,0-0.8,0.3-0.8,0.8c0,0.4,0.4,0.8,0.8,0.8h6.3c0.4,0,0.8-0.3,0.8-0.8
			C43.9,94.1,43.6,93.8,43.1,93.8z"/>
	</g>
</g>
<g>
	<g>
		<path class="st0" d="M62,93.8h-6.3c-0.4,0-0.8,0.3-0.8,0.8c0,0.4,0.4,0.8,0.8,0.8H62c0.4,0,0.8-0.3,0.8-0.8
			C62.7,94.1,62.4,93.8,62,93.8z"/>
	</g>
</g>
</svg>
