<?xml version="1.0" encoding="utf-8"?>
<!-- Generator: Adobe Illustrator 22.0.1, SVG Export Plug-In . SVG Version: 6.00 Build 0)  -->
<svg version="1.1" id="Capa_1" xmlns="http://www.w3.org/2000/svg" xmlns:xlink="http://www.w3.org/1999/xlink" x="0px" y="0px"
	 viewBox="0 0 100 100" style="enable-background:new 0 0 100 100;" xml:space="preserve">
<style type="text/css">
	.st0{fill:#2D81B7;}
</style>
<g>
	<g>
		<path class="st0" d="M91.9,17.7H79.7L73.7,0H26.3l-5.9,17.7H8.1c-4.4,0-8.1,3.6-8.1,8.1v56.5c0,4.4,3.6,8.1,8.1,8.1h19.4v6.5H21
			v3.2h58v-3.2h-6.5v-6.5h19.4c4.4,0,8.1-3.6,8.1-8.1V25.8C100,21.4,96.4,17.7,91.9,17.7z M71.4,3.2l6,18c-0.1,1.7-1.5,3-3.2,3
			c-1.8,0-3.2-1.4-3.2-3.2L68,3.2H71.4z M64.8,3.2l3,17.8c0,1.7-1.5,3.1-3.2,3.1c-1.8,0-3.2-1.4-3.2-3.2l0,0v-0.1L59.8,3.2H64.8z
			 M51.6,3.2h5L58.1,21c0,1.8-1.4,3.2-3.2,3.2s-3.2-1.4-3.2-3.2L51.6,3.2L51.6,3.2z M43.4,3.2h5V21c0,1.8-1.4,3.2-3.2,3.2
			S42,22.8,42,21L43.4,3.2z M45.2,27.4c1.9,0,3.7-0.8,4.8-2.2c1.2,1.3,2.9,2.2,4.8,2.2s3.7-0.8,4.8-2.2c1.2,1.3,2.9,2.2,4.8,2.2
			s3.7-0.8,4.8-2.2c1.2,1.3,2.9,2.2,4.8,2.2V50h-7l-2.9-19.4H34L32.1,50h-6.3V27.4c1.9,0,3.7-0.8,4.8-2.2c1.2,1.3,2.9,2.2,4.8,2.2
			s3.7-0.8,4.8-2.2C41.5,26.6,43.2,27.4,45.2,27.4z M65.9,62.9h-4.5l1.1-22.5L65.9,62.9z M59.6,33.9l-1.5,29H34l2.9-29H59.6z
			 M35.2,3.2h4.9L38.7,21c0,1.8-1.4,3.2-3.2,3.2s-3.2-1.4-3.2-3.1L35.2,3.2z M28.6,3.2H32l-2.9,17.5V21l0,0c0,1.8-1.4,3.2-3.2,3.2
			c-1.7,0-3.1-1.3-3.2-3L28.6,3.2z M69.4,96.8H30.6v-6.5h38.7L69.4,96.8L69.4,96.8z M96.8,82.3c0,2.7-2.2,4.8-4.8,4.8H8.1
			c-2.7,0-4.8-2.2-4.8-4.8v-4.8h93.5V82.3z M96.8,74.2H3.2V25.8C3.2,23.1,5.4,21,8,21h11.3c0,2.4,1.3,4.4,3.2,5.6v26.7h9.2
			l-1.3,12.9h39.1l-1.9-12.9h9.7V26.5c1.9-1.1,3.2-3.2,3.2-5.6h11.3c2.7,0,4.8,2.2,4.8,4.8v48.5H96.8z"/>
	</g>
</g>
<g>
	<g>
		<rect x="37.1" y="80.6" class="st0" width="25.8" height="3.2"/>
	</g>
</g>
<g>
	<g>
		<path class="st0" d="M53.2,38.7v1.6c0,2.7-2.2,4.8-4.8,4.8s-4.8-2.2-4.8-4.8v-1.6h-3.2v1.6c0,4.4,3.6,8.1,8.1,8.1s8.1-3.6,8.1-8.1
			v-1.6C56.6,38.7,53.2,38.7,53.2,38.7z"/>
	</g>
</g>
</svg>
