<?xml version="1.0" encoding="utf-8"?>
<!-- Generator: Adobe Illustrator 22.0.1, SVG Export Plug-In . SVG Version: 6.00 Build 0)  -->
<svg version="1.1" id="Слой_1" xmlns="http://www.w3.org/2000/svg" xmlns:xlink="http://www.w3.org/1999/xlink" x="0px" y="0px"
	 viewBox="0 0 180 60" style="enable-background:new 0 0 180 60;" xml:space="preserve">
<style type="text/css">
	.st0{fill:#FFFFFF;}
</style>
<g>
	<g>
		<path class="st0" d="M22,0C9.9,0,0,9.7,0,21.7c0,14.9,19.7,36.7,20.5,37.6c0.8,0.9,2.2,0.9,2.9,0C24.3,58.4,44,36.6,44,21.7
			C44,9.7,34.1,0,22,0z M22,32.7c-6.1,0-11.1-4.9-11.1-10.9s5-10.9,11.1-10.9s11.1,4.9,11.1,10.9S28.1,32.7,22,32.7z"/>
	</g>
</g>
<g>
	<g>
		<path class="st0" d="M97.9,39.8c-2-1.9-4.4-1.9-6.4,0c-1.5,1.5-3,2.9-4.4,4.4c-0.4,0.4-0.7,0.5-1.2,0.2c-1-0.5-2-0.9-2.9-1.5
			c-4.3-2.7-7.9-6.2-11.1-10.1c-1.6-1.9-3-4-4-6.4c-0.2-0.5-0.2-0.8,0.2-1.2c1.5-1.4,2.9-2.9,4.4-4.4c2-2,2-4.4,0-6.5
			c-1.2-1.2-2.3-2.3-3.5-3.5c-1.2-1.2-2.4-2.4-3.6-3.6c-2-1.9-4.4-1.9-6.4,0c-1.5,1.5-2.9,3-4.5,4.4c-1.4,1.3-2.1,3-2.3,4.9
			c-0.2,3.1,0.5,6,1.6,8.9c2.2,5.9,5.5,11.1,9.6,15.9c5.5,6.5,12,11.6,19.7,15.3c3.4,1.7,7,2.9,10.9,3.2c2.7,0.1,5-0.5,6.9-2.6
			c1.3-1.4,2.7-2.7,4.1-4.1c2-2,2-4.4,0-6.4C102.7,44.5,100.3,42.1,97.9,39.8z"/>
		<path class="st0" d="M95.5,29.9l4.6-0.8c-0.7-4.2-2.7-8-5.8-11.1c-3.2-3.2-7.3-5.2-11.7-5.8L82,16.8c3.5,0.5,6.6,2,9.1,4.5
			C93.4,23.7,94.9,26.6,95.5,29.9z"/>
		<path class="st0" d="M102.7,9.9c-5.3-5.3-12-8.6-19.5-9.7l-0.6,4.6c6.4,0.9,12.2,3.8,16.8,8.4c4.4,4.3,7.2,9.8,8.3,15.8l4.6-0.8
			C111.1,21.3,107.8,15,102.7,9.9z"/>
	</g>
</g>
<g>
	<path class="st0" d="M180,45.3c0,1.3-0.4,2.6-1,3.7l-18.9-21.7l18.7-16.8c0.7,1.2,1.2,2.6,1.2,4.1V45.3L180,45.3z M150,31.3
		L176.1,8c-1.1-0.6-2.3-1-3.6-1h-45c-1.3,0-2.5,0.4-3.6,1L150,31.3z M157.3,29.9l-6,5.4c-0.4,0.3-0.8,0.5-1.2,0.5
		c-0.4,0-0.9-0.2-1.2-0.5l-6-5.4l-19.2,21.9c1.1,0.7,2.5,1.2,4,1.2h45c1.5,0,2.8-0.4,4-1.2L157.3,29.9z M121.2,10.6
		c-0.7,1.2-1.2,2.6-1.2,4.1v30.7c0,1.3,0.4,2.6,1,3.7l18.9-21.7L121.2,10.6z"/>
</g>
</svg>
