<?xml version="1.0" encoding="utf-8"?>
<!-- Generator: Adobe Illustrator 22.0.1, SVG Export Plug-In . SVG Version: 6.00 Build 0)  -->
<svg version="1.1" id="Capa_1" xmlns="http://www.w3.org/2000/svg" xmlns:xlink="http://www.w3.org/1999/xlink" x="0px" y="0px"
	 viewBox="0 0 60 60" style="enable-background:new 0 0 60 60;" xml:space="preserve">
<style type="text/css">
	.st0{fill:#FFFFFF;}
</style>
<g>
	<g>
		<path class="st0" d="M45.6,39.7c-2-1.9-4.4-1.9-6.4,0c-1.5,1.5-3,2.9-4.4,4.4c-0.4,0.4-0.7,0.5-1.2,0.2c-1-0.5-2-0.9-2.9-1.5
			c-4.3-2.7-7.9-6.2-11.1-10.1c-1.6-1.9-3-4-4-6.4c-0.2-0.5-0.2-0.8,0.2-1.2c1.5-1.4,2.9-2.9,4.4-4.4c2-2,2-4.4,0-6.5
			c-1.2-1.2-2.3-2.3-3.5-3.5c-1.2-1.2-2.4-2.4-3.6-3.6c-2-1.9-4.4-1.9-6.4,0c-1.5,1.5-2.9,3-4.5,4.4c-1.4,1.3-2.1,3-2.3,4.9
			c-0.2,3.1,0.5,6,1.6,8.9c2.2,5.9,5.5,11.2,9.6,16c5.5,6.5,12,11.7,19.7,15.4c3.4,1.7,7,3,10.9,3.2c2.7,0.1,5-0.5,6.9-2.6
			c1.3-1.4,2.7-2.7,4.1-4.1c2-2,2-4.5,0-6.5C50.4,44.4,48,42.1,45.6,39.7z"/>
		<path class="st0" d="M43.2,29.7l4.6-0.8c-0.7-4.2-2.7-8.1-5.8-11.1c-3.2-3.2-7.3-5.2-11.7-5.9l-0.6,4.6c3.5,0.5,6.6,2,9.1,4.5
			C41.1,23.5,42.7,26.5,43.2,29.7z"/>
		<path class="st0" d="M50.4,9.7C45.1,4.4,38.4,1,31,0l-0.6,4.6c6.4,0.9,12.2,3.8,16.8,8.4c4.4,4.4,7.2,9.9,8.3,15.9l4.6-0.8
			C58.8,21.1,55.5,14.8,50.4,9.7z"/>
	</g>
</g>
</svg>
