<?xml version="1.0" encoding="utf-8"?>
<!-- Generator: Adobe Illustrator 22.0.1, SVG Export Plug-In . SVG Version: 6.00 Build 0)  -->
<svg version="1.1" id="Capa_1" xmlns="http://www.w3.org/2000/svg" xmlns:xlink="http://www.w3.org/1999/xlink" x="0px" y="0px"
	 viewBox="0 0 60 46" style="enable-background:new 0 0 60 46;" xml:space="preserve">
<style type="text/css">
	.st0{fill:#FFFFFF;}
</style>
<g>
	<path class="st0" d="M60,38.3c0,1.3-0.4,2.6-1,3.7L40.1,20.4L58.8,3.6C59.6,4.8,60,6.2,60,7.7L60,38.3L60,38.3z M30,24.3L56.1,1
		c-1.1-0.6-2.3-1-3.6-1h-45C6.2,0,5,0.4,3.9,1L30,24.3z M37.3,22.9l-6,5.4c-0.4,0.3-0.8,0.5-1.2,0.5c-0.4,0-0.9-0.2-1.2-0.5l-6-5.4
		L3.5,44.8C4.7,45.6,6,46,7.5,46h45c1.5,0,2.8-0.4,4-1.2L37.3,22.9z M1.2,3.6C0.4,4.8,0,6.2,0,7.7v30.7c0,1.3,0.4,2.6,1,3.7
		l18.9-21.7L1.2,3.6z"/>
</g>
</svg>
