<?xml version="1.0" encoding="utf-8"?>
<!-- Generator: Adobe Illustrator 22.0.1, SVG Export Plug-In . SVG Version: 6.00 Build 0)  -->
<svg version="1.1" id="Capa_1" xmlns="http://www.w3.org/2000/svg" xmlns:xlink="http://www.w3.org/1999/xlink" x="0px" y="0px"
	 viewBox="0 0 54.9 54.9" style="enable-background:new 0 0 54.9 54.9;" xml:space="preserve">
<style type="text/css">
	.st0{fill:#407471;}
</style>
<path class="st0" d="M52.1,2.7c-0.2-0.2-0.5-0.3-0.8-0.2l-31,3.7c-0.5,0.1-0.9,0.4-0.9,0.9v5.5v3.8V40c-1.7-1.8-4.4-3-7.5-3
	c-5.2,0-9.5,3.4-9.5,7.7s4.3,7.7,9.5,7.7s9.5-3.4,9.5-7.7c0-0.3,0-0.6-0.1-0.9c0-0.1,0.1-0.2,0.1-0.3V17.1l29-3.4v17.2
	c-1.7-1.8-4.4-3-7.5-3c-5.2,0-9.5,3.4-9.5,7.7s4.3,7.7,9.5,7.7s9.5-3.4,9.5-7.7c0-0.1,0-0.2,0-0.2c0,0,0,0,0-0.1V12.7V8.8V3.4
	C52.4,3.1,52.3,2.8,52.1,2.7z"/>
</svg>
